SplineFontDB: 3.0
FontName: Oswald-Demi-BoldItalic
FullName: Oswald Demi-BoldItalic
FamilyName: Oswald
Weight: Demi
Copyright: Copyright (c) 2010-13 by Vernon Adams
Version: 3.0
ItalicAngle: 0
UnderlinePosition: -120
UnderlineWidth: 63
Ascent: 1638
Descent: 410
sfntRevision: 0x00030000
LayerCount: 2
Layer: 0 1 "Back"  1
Layer: 1 1 "Fore"  0
XUID: [1021 913 -2060267417 16343774]
FSType: 0
OS2Version: 4
OS2_WeightWidthSlopeOnly: 0
OS2_UseTypoMetrics: 1
CreationTime: 1372544301
ModificationTime: 1372716303
PfmFamily: 17
TTFWeight: 600
TTFWidth: 5
LineGap: 0
VLineGap: 0
Panose: 2 0 7 3 0 0 0 0 0 0
OS2TypoAscent: 2233
OS2TypoAOffset: 0
OS2TypoDescent: -548
OS2TypoDOffset: 0
OS2TypoLinegap: 0
OS2WinAscent: 2233
OS2WinAOffset: 0
OS2WinDescent: 548
OS2WinDOffset: 0
HheadAscent: 2233
HheadAOffset: 0
HheadDescent: -548
HheadDOffset: 0
OS2SubXSize: 1331
OS2SubYSize: 1433
OS2SubXOff: 0
OS2SubYOff: 286
OS2SupXSize: 1331
OS2SupYSize: 1433
OS2SupXOff: 0
OS2SupYOff: 983
OS2StrikeYSize: 102
OS2StrikeYPos: 530
OS2Vendor: 'newt'
OS2CodePages: 20000097.00000000
OS2UnicodeRanges: a00002ef.4000204b.00000000.00000000
Lookup: 258 0 0 "'kern' Horizontal Kerning lookup 0"  {"'kern' Horizontal Kerning lookup 0 per glyph data 0"  "'kern' Horizontal Kerning lookup 0 kerning class 1"  } ['kern' ('DFLT' <'dflt' > 'cyrl' <'dflt' > 'latn' <'dflt' > ) ]
Lookup: 260 0 0 "'mark' Mark Positioning lookup 1"  {"'mark' Mark Positioning lookup 1 subtable"  } ['mark' ('DFLT' <'dflt' > 'cyrl' <'dflt' > 'grek' <'dflt' > 'latn' <'dflt' > ) ]
MarkAttachClasses: 1
DEI: 91125
KernClass2: 44 59 "'kern' Horizontal Kerning lookup 0 kerning class 1" 
 89 A Agrave Aacute Acircumflex Atilde Adieresis Aring Abreve Amacron Aogonek uni0200 uni0202
 9 B uni1E02
 16 D Dcaron uni1E0A
 94 E Egrave Eacute Ecircumflex Edieresis Ebreve Ecaron Edotaccent Emacron Eogonek uni0204 uni0206
 9 F uni1E1E
 52 G Gbreve Gcircumflex Gcommaaccent Gdotaccent uni01F4
 14 K Kcommaaccent
 28 L Lacute Lcaron Lcommaaccent
 9 P uni1E56

StartChar: .notdef
Encoding: 65536 -1 0
Width: 748
Flags: W
LayerCount: 2
UndoRedoHistory
Layer: 1
Undoes
EndUndoes
Redoes
EndRedoes
EndUndoRedoHistory
Fore
SplineSet
136 68 m 1,0,-1
 544 68 l 1,1,-1
 544 1297 l 1,2,-1
 136 1297 l 1,3,-1
 136 68 l 1,0,-1
68 0 m 1,4,-1
 68 1365 l 1,5,-1
 612 1365 l 1,6,-1
 612 0 l 1,7,-1
 68 0 l 1,4,-1
EndSplineSet
EndChar

StartChar: exclam
Encoding: 33 33 4
Width: 495
GlyphClass: 2
Flags: W
LayerCount: 2
UndoRedoHistory
Layer: 1
Undoes
EndUndoes
Redoes
EndRedoes
EndUndoRedoHistory
Fore
SplineSet
44 0 m 1,0,-1
 75 289 l 1,1,-1
 366 289 l 1,2,-1
 335 0 l 1,3,-1
 44 0 l 1,0,-1
180 401 m 1,4,-1
 222 1655 l 1,5,-1
 525 1655 l 1,6,-1
 286 401 l 1,7,-1
 180 401 l 1,4,-1
EndSplineSet
EndChar

StartChar: quotedbl
Encoding: 34 34 5
Width: 749
GlyphClass: 2
Flags: W
LayerCount: 2
UndoRedoHistory
Layer: 1
Undoes
EndUndoes
Redoes
EndRedoes
EndUndoRedoHistory
Fore
SplineSet
158 1075 m 1,0,-1
 219 1658 l 1,1,-1
 481 1658 l 1,2,-1
 303 1075 l 1,3,-1
 158 1075 l 1,0,-1
517 1075 m 1,4,-1
 578 1658 l 1,5,-1
 840 1658 l 1,6,-1
 663 1075 l 1,7,-1
 517 1075 l 1,4,-1
EndSplineSet
EndChar

StartChar: numbersign
Encoding: 35 35 6
Width: 1066
GlyphClass: 2
Flags: W
LayerCount: 2
UndoRedoHistory
Layer: 1
Undoes
EndUndoes
Redoes
EndRedoes
EndUndoRedoHistory
Fore
SplineSet
66 -1 m 1,0,-1
 195 565 l 1,1,-1
 93 565 l 1,2,-1
 118 764 l 1,3,-1
 245 764 l 1,4,-1
 293 979 l 1,5,-1
 142 979 l 1,6,-1
 166 1181 l 1,7,-1
 348 1181 l 1,8,-1
 457 1658 l 1,9,-1
 683 1658 l 1,10,-1
 573 1181 l 1,11,-1
 737 1181 l 1,12,-1
 847 1658 l 1,13,-1
 1071 1658 l 1,14,-1
 961 1181 l 1,15,-1
 1058 1181 l 1,16,-1
 1033 979 l 1,17,-1
 907 979 l 1,18,-1
 858 764 l 1,19,-1
 1009 764 l 1,20,-1
 984 565 l 1,21,-1
 808 565 l 1,22,-1
 678 -1 l 1,23,-1
 454 -1 l 1,24,-1
 584 565 l 1,25,-1
 419 565 l 1,26,-1
 289 -1 l 1,27,-1
 66 -1 l 1,0,-1
468 764 m 1,28,-1
 634 764 l 1,29,-1
 684 979 l 1,30,-1
 518 979 l 1,31,-1
 468 764 l 1,28,-1
EndSplineSet
EndChar

StartChar: dollar
Encoding: 36 36 7
Width: 1004
GlyphClass: 2
Flags: W
LayerCount: 2
UndoRedoHistory
Layer: 1
Undoes
EndUndoes
Redoes
EndRedoes
EndUndoRedoHistory
Fore
SplineSet
416 -200 m 1,0,-1
 434 -21 l 1,1,2
 224 -12 224 -12 132 116 c 0,3,4
 54 224 54 224 54 419 c 0,5,6
 54 455 54 455 57 494 c 1,7,-1
 349 546 l 1,8,9
 345 501 345 501 345 462 c 0,10,11
 345 231 345 231 484 231 c 0,12,13
 545 231 545 231 576.5 270 c 128,-1,14
 608 309 608 309 615 371 c 0,15,16
 617 393 617 393 617 413 c 0,17,18
 618 484 618 484 590 535 c 0,19,20
 554 601 554 601 469 683 c 2,21,-1
 301 844 l 2,22,23
 240 902 240 902 204.5 953.5 c 0,24,25
 169 1006 169 1006 149 1084 c 0,26,27
 136 1135 136 1135 136 1192 c 0,28,29
 136 1224 136 1224 140 1259 c 1,30,31
 159 1447 159 1447 278 1556 c 128,-1,32
 397 1665 397 1665 586 1677 c 1,33,-1
 604 1848 l 1,34,-1
 698 1848 l 1,35,-1
 681 1678 l 1,36,37
 764 1672 764 1672 824.5 1642 c 128,-1,38
 885 1612 885 1612 918.5 1569.5 c 128,-1,39
 952 1527 952 1527 971 1465.5 c 128,-1,40
 990 1404 990 1404 994 1348 c 0,41,42
 996 1316 996 1316 996 1279 c 0,43,44
 996 1251 996 1251 995 1221 c 1,45,-1
 705 1174 l 1,46,47
 708 1225 708 1225 708 1268 c 0,48,49
 708 1288 708 1288 707 1308 c 0,50,51
 705 1366 705 1366 677 1402 c 0,52,53
 651 1434 651 1434 602 1434 c 0,54,55
 598 1434 598 1434 593 1434 c 0,56,57
 534 1431 534 1431 498.5 1391 c 128,-1,58
 463 1351 463 1351 457 1291 c 0,59,60
 455 1272 455 1272 455 1254 c 0,61,62
 454 1230 454 1230 458 1210 c 0,63,64
 464 1174 464 1174 484 1142.5 c 128,-1,65
 504 1111 504 1111 522 1090 c 128,-1,66
 540 1069 540 1069 573 1037 c 2,67,-1
 738 878 l 2,68,69
 789 828 789 828 825 781 c 128,-1,70
 861 734 861 734 892 674 c 0,71,72
 922 614 922 614 934 542 c 0,73,74
 941 500 941 500 941 455 c 0,75,76
 941 423 941 423 938 390 c 0,77,78
 920 224 920 224 808.5 112 c 128,-1,79
 697 0 697 0 529 -19 c 1,80,-1
 509 -200 l 1,81,-1
 416 -200 l 1,0,-1
EndSplineSet
EndChar

StartChar: percent
Encoding: 37 37 8
Width: 2022
GlyphClass: 2
Flags: W
LayerCount: 2
UndoRedoHistory
Layer: 1
Undoes
EndUndoes
Redoes
EndRedoes
EndUndoRedoHistory
Fore
SplineSet
508 935 m 0,0,1
 539 935 539 935 562 946.5 c 128,-1,2
 585 958 585 958 599.5 976 c 128,-1,3
 614 994 614 994 624 1026 c 128,-1,4
 634 1058 634 1058 639 1089 c 128,-1,5
 644 1120 644 1120 649 1167 c 2,6,-1
 657 1239 l 2,7,8
 664 1305 664 1305 664 1352 c 0,9,10
 664 1355 664 1355 664 1359 c 0,11,12
 664 1408 664 1408 640 1433 c 128,-1,13
 616 1458 616 1458 563 1458 c 0,14,15
 487 1458 487 1458 461.5 1409 c 128,-1,16
 436 1360 436 1360 424 1239 c 1,17,-1
 416 1166 l 2,18,19
 409 1101 409 1101 409 1051 c 0,20,21
 410 1046 410 1046 410 1044 c 0,22,23
 410 992 410 992 433.5 963.5 c 128,-1,24
 457 935 457 935 508 935 c 0,0,1
487 731 m 0,25,26
 289 731 289 731 212 838 c 0,27,28
 153 920 153 920 153 1067 c 0,29,30
 153 1111 153 1111 158 1161 c 1,31,-1
 166 1241 l 2,32,33
 189 1461 189 1461 285 1562 c 128,-1,34
 381 1663 381 1663 584 1663 c 0,35,36
 788 1663 788 1663 864 1564 c 0,37,38
 923 1488 923 1488 922 1342 c 0,39,40
 922 1298 922 1298 917 1248 c 1,41,-1
 907 1158 l 1,42,43
 885 941 885 941 785.5 836 c 128,-1,44
 686 731 686 731 487 731 c 0,25,26
1532 199 m 0,45,46
 1563 199 1563 199 1586 210.5 c 128,-1,47
 1609 222 1609 222 1623.5 240 c 128,-1,48
 1638 258 1638 258 1648 290 c 128,-1,49
 1658 322 1658 322 1663 352.5 c 128,-1,50
 1668 383 1668 383 1673 431 c 2,51,-1
 1681 503 l 2,52,53
 1688 569 1688 569 1688 616 c 0,54,55
 1688 619 1688 619 1688 623 c 0,56,57
 1688 672 1688 672 1664 697 c 128,-1,58
 1640 722 1640 722 1587 722 c 0,59,60
 1555 722 1555 722 1532 712 c 128,-1,61
 1509 702 1509 702 1495 686.5 c 128,-1,62
 1481 671 1481 671 1471 640 c 128,-1,63
 1461 609 1461 609 1456.5 580.5 c 128,-1,64
 1452 552 1452 552 1447 503 c 2,65,-1
 1439 430 l 1,66,67
 1433 365 1433 365 1433 317 c 0,68,69
 1434 312 1434 312 1434 308 c 0,70,71
 1434 256 1434 256 1457.5 227.5 c 128,-1,72
 1481 199 1481 199 1532 199 c 0,45,46
1510 -5 m 0,73,74
 1312 -5 1312 -5 1236 102 c 0,75,76
 1177 185 1177 185 1176 334 c 0,77,78
 1176 377 1176 377 1181 425 c 1,79,-1
 1190 505 l 1,80,81
 1213 725 1213 725 1309 826 c 128,-1,82
 1405 927 1405 927 1608 927 c 0,83,84
 1812 927 1812 927 1888 828 c 0,85,86
 1946 753 1946 753 1946 609 c 0,87,88
 1946 564 1946 564 1940 512 c 1,89,-1
 1931 422 l 1,90,91
 1908 205 1908 205 1808.5 100 c 128,-1,92
 1709 -5 1709 -5 1510 -5 c 0,73,74
622 0 m 1,93,-1
 1280 1658 l 1,94,-1
 1473 1658 l 1,95,-1
 815 0 l 1,96,-1
 622 0 l 1,93,-1
EndSplineSet
EndChar

StartChar: ampersand
Encoding: 38 38 9
Width: 1192
GlyphClass: 2
Flags: W
LayerCount: 2
UndoRedoHistory
Layer: 1
Undoes
EndUndoes
Redoes
EndRedoes
EndUndoRedoHistory
Fore
SplineSet
412 -23 m 0,0,1
 245 -22 245 -22 154 84 c 0,2,3
 78 173 78 173 78 306 c 0,4,5
 78 332 78 332 81 361 c 0,6,7
 96 505 96 505 177 637 c 128,-1,8
 258 769 258 769 369 865 c 1,9,10
 356 898 356 898 325 970 c 128,-1,11
 294 1042 294 1042 278.5 1083.5 c 0,12,13
 263 1124 263 1124 251 1188 c 0,14,15
 243 1230 243 1230 243 1270 c 0,16,17
 243 1290 243 1290 245 1309 c 0,18,19
 262 1469 262 1469 369.5 1574.5 c 128,-1,20
 477 1680 477 1680 638 1680 c 0,21,22
 796 1680 796 1680 890 1588 c 0,23,24
 970 1509 970 1509 970 1384 c 0,25,26
 970 1363 970 1363 968 1340 c 0,27,28
 964 1303 964 1303 955 1267 c 128,-1,29
 946 1231 946 1231 929.5 1196 c 128,-1,30
 913 1161 913 1161 898.5 1133 c 128,-1,31
 884 1105 884 1105 857.5 1071.5 c 128,-1,32
 831 1038 831 1038 815 1017.5 c 128,-1,33
 799 997 799 997 767 964 c 128,-1,34
 735 931 735 931 721 917 c 128,-1,35
 707 903 707 903 672 870.5 c 128,-1,36
 637 838 637 838 628 829 c 1,37,-1
 794 469 l 1,38,39
 822 515 822 515 849 611.5 c 128,-1,40
 876 708 876 708 891 802 c 1,41,-1
 1123 802 l 1,42,43
 1094 533 1094 533 936 295 c 1,44,45
 954 268 954 268 991.5 247.5 c 128,-1,46
 1029 227 1029 227 1069 225 c 1,47,-1
 1043 -21 l 1,48,49
 1011 -27 1011 -27 995 -27 c 0,50,51
 972 -27 972 -27 951 -23 c 128,-1,52
 930 -19 930 -19 908.5 -7 c 128,-1,53
 887 5 887 5 873 12.5 c 128,-1,54
 859 20 859 20 837 40 c 128,-1,55
 815 60 815 60 808 66.5 c 128,-1,56
 801 73 801 73 777.5 98 c 128,-1,57
 754 123 754 123 752 125 c 1,58,59
 690 55 690 55 601.5 16 c 128,-1,60
 513 -23 513 -23 412 -23 c 0,0,1
439 194 m 0,61,62
 542 194 542 194 617 282 c 1,63,64
 464 628 464 628 456 657 c 1,65,66
 356 524 356 524 340 377 c 0,67,68
 338 359 338 359 338 342 c 0,69,70
 338 284 338 284 360 245 c 0,71,72
 388 194 388 194 439 194 c 0,61,62
554 990 m 1,73,74
 605 1062 605 1062 655.5 1166.5 c 128,-1,75
 706 1271 706 1271 715 1351 c 0,76,77
 716 1359 716 1359 716 1366 c 0,78,79
 716 1404 716 1404 694 1428 c 0,80,81
 668 1457 668 1457 624 1457 c 0,82,83
 577 1457 577 1457 545.5 1418 c 128,-1,84
 514 1379 514 1379 509 1320 c 1,85,86
 508 1278 508 1278 508 1251 c 128,-1,87
 508 1224 508 1224 515.5 1178.5 c 128,-1,88
 523 1133 523 1133 528.5 1107 c 128,-1,89
 534 1081 534 1081 542.5 1042 c 128,-1,90
 551 1003 551 1003 554 990 c 1,73,74
EndSplineSet
EndChar

StartChar: quotesingle
Encoding: 39 39 10
Width: 575
GlyphClass: 2
Flags: W
LayerCount: 2
UndoRedoHistory
Layer: 1
Undoes
EndUndoes
Redoes
EndRedoes
EndUndoRedoHistory
Fore
SplineSet
179 1075 m 1,0,-1
 240 1658 l 1,1,-1
 494 1658 l 1,2,-1
 331 1075 l 1,3,-1
 179 1075 l 1,0,-1
EndSplineSet
EndChar

StartChar: parenleft
Encoding: 40 40 11
Width: 670
GlyphClass: 2
Flags: W
LayerCount: 2
UndoRedoHistory
Layer: 1
Undoes
EndUndoes
Redoes
EndRedoes
EndUndoRedoHistory
Fore
SplineSet
512 -383 m 1,0,1
 440 -383 440 -383 382.5 -364.5 c 128,-1,2
 325 -346 325 -346 283.5 -314.5 c 128,-1,3
 242 -283 242 -283 211.5 -232 c 128,-1,4
 181 -181 181 -181 162.5 -127 c 128,-1,5
 144 -73 144 -73 134.5 2.5 c 0,6,7
 124 78 124 78 122 146 c 0,8,9
 121 172 121 172 122 201 c 0,10,11
 122 248 122 248 124 304 c 0,12,13
 128 396 128 396 134.5 469.5 c 128,-1,14
 141 543 141 543 151 641 c 0,15,16
 162 744 162 744 171.5 820 c 128,-1,17
 181 896 181 896 196.5 989.5 c 128,-1,18
 212 1083 212 1083 229 1151 c 128,-1,19
 246 1219 246 1219 271 1295 c 128,-1,20
 296 1371 296 1371 326 1424 c 128,-1,21
 356 1477 356 1477 396.5 1528 c 128,-1,22
 437 1579 437 1579 485 1609.5 c 128,-1,23
 533 1640 533 1640 594.5 1658 c 128,-1,24
 656 1676 656 1676 728 1676 c 1,25,-1
 706 1466 l 1,26,27
 671 1466 671 1466 641.5 1444.5 c 128,-1,28
 612 1423 612 1423 588.5 1386.5 c 128,-1,29
 565 1350 565 1350 545 1290 c 128,-1,30
 525 1230 525 1230 510.5 1166.5 c 128,-1,31
 496 1103 496 1103 481.5 1012 c 128,-1,32
 467 921 467 921 457 837.5 c 128,-1,33
 447 754 447 754 435 641 c 0,34,35
 421 510 421 510 413.5 411.5 c 0,36,37
 406 314 406 314 402 216 c 0,38,39
 401 180 401 180 401 148 c 0,40,41
 401 94 401 94 405 52 c 0,42,43
 411 -14 411 -14 425.5 -68 c 128,-1,44
 440 -122 440 -122 467.5 -147.5 c 128,-1,45
 495 -173 495 -173 534 -173 c 1,46,-1
 512 -383 l 1,0,1
EndSplineSet
EndChar

StartChar: parenright
Encoding: 41 41 12
Width: 627
GlyphClass: 2
Flags: W
LayerCount: 2
UndoRedoHistory
Layer: 1
Undoes
EndUndoes
Redoes
EndRedoes
EndUndoRedoHistory
Fore
SplineSet
-22 -383 m 1,0,-1
 0 -172 l 1,1,2
 47 -172 47 -172 85 -132 c 128,-1,3
 123 -92 123 -92 150 -25.5 c 128,-1,4
 177 41 177 41 200 150 c 128,-1,5
 223 259 223 259 238.5 372 c 128,-1,6
 254 485 254 485 271 643 c 0,7,8
 285 777 285 777 292.5 872 c 128,-1,9
 300 967 300 967 304 1068 c 0,10,11
 306 1111 306 1111 306 1148 c 0,12,13
 306 1198 306 1198 303 1236 c 0,14,15
 297 1302 297 1302 283 1357.5 c 128,-1,16
 269 1413 269 1413 241 1439.5 c 128,-1,17
 213 1466 213 1466 172 1466 c 1,18,-1
 194 1676 l 1,19,20
 286 1676 286 1676 355 1646 c 128,-1,21
 424 1616 424 1616 467.5 1568 c 128,-1,22
 511 1520 511 1520 537.5 1439 c 128,-1,23
 564 1358 564 1358 575 1278 c 0,24,25
 585 1208 585 1208 585 1110 c 0,26,27
 584 1097 584 1097 584 1083 c 0,28,29
 582 967 582 967 575.5 872 c 128,-1,30
 569 777 569 777 555 643 c 0,31,32
 545 545 545 545 535.5 471 c 128,-1,33
 526 397 526 397 510.5 305.5 c 128,-1,34
 495 214 495 214 478 146 c 128,-1,35
 461 78 461 78 436 2.5 c 128,-1,36
 411 -73 411 -73 381 -126.5 c 128,-1,37
 351 -180 351 -180 310 -231.5 c 128,-1,38
 269 -283 269 -283 221 -314.5 c 128,-1,39
 173 -346 173 -346 111.5 -364.5 c 128,-1,40
 50 -383 50 -383 -22 -383 c 1,0,-1
EndSplineSet
EndChar

StartChar: asterisk
Encoding: 42 42 13
Width: 855
GlyphClass: 2
Flags: W
LayerCount: 2
UndoRedoHistory
Layer: 1
Undoes
EndUndoes
Redoes
EndRedoes
EndUndoRedoHistory
Fore
SplineSet
389 931 m 1,0,-1
 221 1037 l 1,1,-1
 393 1250 l 1,2,-1
 178 1337 l 1,3,-1
 266 1521 l 1,4,-1
 462 1407 l 1,5,-1
 462 1657 l 1,6,-1
 689 1657 l 1,7,-1
 637 1406 l 1,8,-1
 857 1521 l 1,9,-1
 907 1336 l 1,10,-1
 671 1249 l 1,11,-1
 802 1038 l 1,12,-1
 609 931 l 1,13,-1
 523 1161 l 1,14,-1
 389 931 l 1,0,-1
EndSplineSet
EndChar

StartChar: plus
Encoding: 43 43 14
Width: 904
GlyphClass: 2
Flags: W
LayerCount: 2
UndoRedoHistory
Layer: 1
Undoes
EndUndoes
Redoes
EndRedoes
EndUndoRedoHistory
Fore
SplineSet
340 424 m 1,0,-1
 375 755 l 1,1,-1
 83 755 l 1,2,-1
 103 946 l 1,3,-1
 395 946 l 1,4,-1
 429 1272 l 1,5,-1
 637 1272 l 1,6,-1
 603 946 l 1,7,-1
 901 946 l 1,8,-1
 881 755 l 1,9,-1
 583 755 l 1,10,-1
 548 424 l 1,11,-1
 340 424 l 1,0,-1
EndSplineSet
EndChar

StartChar: comma
Encoding: 44 44 15
Width: 455
GlyphClass: 2
Flags: W
LayerCount: 2
UndoRedoHistory
Layer: 1
Undoes
EndUndoes
Redoes
EndRedoes
EndUndoRedoHistory
Fore
SplineSet
50 -284 m 1,0,-1
 35 -177 l 1,1,2
 98 -162 98 -162 141.5 -118.5 c 128,-1,3
 185 -75 185 -75 193 0 c 1,4,-1
 34 0 l 1,5,-1
 65 290 l 1,6,-1
 358 290 l 1,7,-1
 330 29 l 1,8,9
 302 -250 302 -250 50 -284 c 1,0,-1
EndSplineSet
EndChar

StartChar: hyphen
Encoding: 45 45 16
Width: 754
GlyphClass: 2
Flags: W
LayerCount: 2
UndoRedoHistory
Layer: 1
Undoes
EndUndoes
Redoes
EndRedoes
EndUndoRedoHistory
Fore
SplineSet
132 578 m 1,0,-1
 154 782 l 1,1,-1
 664 782 l 1,2,-1
 643 578 l 1,3,-1
 132 578 l 1,0,-1
EndSplineSet
EndChar

StartChar: period
Encoding: 46 46 17
Width: 465
GlyphClass: 2
Flags: W
LayerCount: 2
UndoRedoHistory
Layer: 1
Undoes
EndUndoes
Redoes
EndRedoes
EndUndoRedoHistory
Fore
SplineSet
44 0 m 1,0,-1
 75 294 l 1,1,-1
 367 294 l 1,2,-1
 336 0 l 1,3,-1
 44 0 l 1,0,-1
EndSplineSet
EndChar

StartChar: slash
Encoding: 47 47 18
Width: 836
GlyphClass: 2
Flags: W
LayerCount: 2
UndoRedoHistory
Layer: 1
Undoes
EndUndoes
Redoes
EndRedoes
EndUndoRedoHistory
Fore
SplineSet
30 0 m 1,0,-1
 689 1658 l 1,1,-1
 879 1658 l 1,2,-1
 219 0 l 1,3,-1
 30 0 l 1,0,-1
EndSplineSet
EndChar

StartChar: zero
Encoding: 48 48 19
Width: 1077
GlyphClass: 2
Flags: W
LayerCount: 2
UndoRedoHistory
Layer: 1
Undoes
EndUndoes
Redoes
EndRedoes
EndUndoRedoHistory
Fore
SplineSet
515 245 m 0,0,1
 640 245 640 245 662 460 c 2,2,-1
 738 1186 l 2,3,4
 741 1215 741 1215 742 1236 c 128,-1,5
 743 1257 743 1257 742.5 1285 c 128,-1,6
 742 1313 742 1313 735.5 1333 c 128,-1,7
 729 1353 729 1353 718 1371.5 c 128,-1,8
 707 1390 707 1390 686 1399.5 c 128,-1,9
 665 1409 665 1409 637 1409 c 0,10,11
 603 1409 603 1409 577 1394 c 128,-1,12
 551 1379 551 1379 536.5 1358.5 c 128,-1,13
 522 1338 522 1338 511.5 1304.5 c 128,-1,14
 501 1271 501 1271 497 1246 c 128,-1,15
 493 1221 493 1221 489 1186 c 2,16,-1
 413 460 l 2,17,18
 410 428 410 428 410 400 c 0,19,20
 410 245 410 245 515 245 c 0,0,1
486 -26 m 0,21,22
 273 -26 273 -26 173 104 c 0,23,24
 92 210 92 210 92 375 c 0,25,26
 92 413 92 413 96 454 c 2,27,-1
 173 1193 l 2,28,29
 197 1420 197 1420 321 1550 c 128,-1,30
 445 1680 445 1680 665 1680 c 0,31,32
 884 1680 884 1680 981 1550 c 0,33,34
 1059 1445 1059 1445 1059 1279 c 0,35,36
 1059 1238 1059 1238 1054 1193 c 2,37,-1
 977 454 l 2,38,39
 954 236 954 236 825.5 105 c 128,-1,40
 697 -26 697 -26 486 -26 c 0,21,22
EndSplineSet
EndChar

StartChar: one
Encoding: 49 49 20
Width: 1077
GlyphClass: 2
Flags: W
LayerCount: 2
UndoRedoHistory
Layer: 1
Undoes
EndUndoes
Redoes
EndRedoes
EndUndoRedoHistory
Fore
SplineSet
391 0 m 1,0,-1
 530 1328 l 1,1,-1
 271 1246 l 1,2,-1
 295 1478 l 1,3,4
 380 1509 380 1509 483.5 1559 c 128,-1,5
 587 1609 587 1609 635 1658 c 1,6,-1
 876 1658 l 1,7,-1
 702 0 l 1,8,-1
 391 0 l 1,0,-1
EndSplineSet
EndChar

StartChar: two
Encoding: 50 50 21
Width: 1077
GlyphClass: 2
Flags: W
LayerCount: 2
UndoRedoHistory
Layer: 1
Undoes
EndUndoes
Redoes
EndRedoes
EndUndoRedoHistory
Fore
SplineSet
57 0 m 1,0,-1
 80 219 l 1,1,-1
 545 843 l 2,2,3
 558 861 558 861 591.5 904.5 c 128,-1,4
 625 948 625 948 641.5 970 c 128,-1,5
 658 992 658 992 684 1032 c 128,-1,6
 710 1072 710 1072 723.5 1101.5 c 128,-1,7
 737 1131 737 1131 749.5 1170 c 128,-1,8
 762 1209 762 1209 766 1247 c 0,9,10
 768 1269 768 1269 768 1288 c 0,11,12
 768 1346 768 1346 746 1380 c 0,13,14
 720 1420 720 1420 665 1420 c 0,15,16
 658 1420 658 1420 650 1419 c 0,17,18
 514 1408 514 1408 488 1170 c 2,19,-1
 480 1096 l 1,20,-1
 177 1096 l 1,21,-1
 185 1174 l 2,22,23
 197 1288 197 1288 231.5 1378 c 128,-1,24
 266 1468 266 1468 325 1537 c 128,-1,25
 384 1606 384 1606 475 1643.5 c 128,-1,26
 566 1681 566 1681 684 1681 c 0,27,28
 900 1680 900 1680 998 1566 c 0,29,30
 1079 1472 1079 1472 1078 1317 c 0,31,32
 1078 1282 1078 1282 1074 1244 c 0,33,34
 1071 1213 1071 1213 1064 1181.5 c 128,-1,35
 1057 1150 1057 1150 1050.5 1125 c 128,-1,36
 1044 1100 1044 1100 1030 1069 c 128,-1,37
 1016 1038 1016 1038 1007.5 1019 c 128,-1,38
 999 1000 999 1000 979 968.5 c 128,-1,39
 959 937 959 937 950 922.5 c 128,-1,40
 941 908 941 908 916 874.5 c 128,-1,41
 891 841 891 841 883 830 c 128,-1,42
 875 819 875 819 846.5 782.5 c 128,-1,43
 818 746 818 746 811 737 c 2,44,-1
 435 247 l 1,45,-1
 925 247 l 1,46,-1
 899 0 l 1,47,-1
 57 0 l 1,0,-1
EndSplineSet
EndChar

StartChar: three
Encoding: 51 51 22
Width: 1077
GlyphClass: 2
Flags: W
LayerCount: 2
UndoRedoHistory
Layer: 1
Undoes
EndUndoes
Redoes
EndRedoes
EndUndoRedoHistory
Fore
SplineSet
491 -26 m 0,0,1
 92 -26 92 -26 92 367 c 0,2,3
 92 414 92 414 98 466 c 1,4,-1
 104 525 l 1,5,-1
 415 525 l 1,6,7
 414 522 414 522 412 499.5 c 128,-1,8
 410 477 410 477 409 474 c 0,9,10
 405 429 405 429 405 394 c 0,11,12
 406 327 406 327 420 290 c 0,13,14
 442 234 442 234 521 234 c 0,15,16
 601 234 601 234 633 292 c 128,-1,17
 665 350 665 350 678 477 c 0,18,19
 682 519 682 519 682 554 c 0,20,21
 682 591 682 591 678 619 c 0,22,23
 668 674 668 674 630 707 c 128,-1,24
 592 740 592 740 521 743 c 0,25,26
 517 744 517 744 471 744 c 1,27,-1
 496 983 l 1,28,-1
 541 983 l 1,29,30
 649 985 649 985 696 1040 c 128,-1,31
 743 1095 743 1095 756 1222 c 0,32,33
 759 1255 759 1255 759 1282 c 0,34,35
 758 1344 758 1344 742 1380 c 0,36,37
 718 1432 718 1432 642 1431 c 0,38,39
 602 1431 602 1431 573.5 1415 c 128,-1,40
 545 1399 545 1399 528 1367 c 128,-1,41
 511 1335 511 1335 502 1298.5 c 128,-1,42
 493 1262 493 1262 486 1209 c 1,43,44
 486 1182 486 1182 479 1140 c 1,45,-1
 168 1140 l 1,46,-1
 178 1227 l 1,47,48
 200 1444 200 1444 328.5 1562.5 c 128,-1,49
 457 1681 457 1681 667 1681 c 0,50,51
 880 1680 880 1680 984 1566 c 0,52,53
 1069 1472 1069 1472 1069 1309 c 0,54,55
 1069 1274 1069 1274 1065 1237 c 0,56,57
 1050 1096 1050 1096 980.5 1000 c 128,-1,58
 911 904 911 904 813 877 c 1,59,60
 991 811 991 811 991 567 c 0,61,62
 991 528 991 528 986 484 c 0,63,64
 974 368 974 368 940 276.5 c 128,-1,65
 906 185 906 185 847 116 c 128,-1,66
 788 47 788 47 698 10.5 c 128,-1,67
 608 -26 608 -26 491 -26 c 0,0,1
EndSplineSet
EndChar

StartChar: four
Encoding: 52 52 23
Width: 1077
GlyphClass: 2
Flags: W
LayerCount: 2
UndoRedoHistory
Layer: 1
Undoes
EndUndoes
Redoes
EndRedoes
EndUndoRedoHistory
Fore
SplineSet
516 0 m 1,0,-1
 557 395 l 1,1,-1
 62 395 l 1,2,-1
 90 654 l 1,3,-1
 620 1659 l 1,4,-1
 975 1659 l 1,5,-1
 868 636 l 1,6,-1
 1034 636 l 1,7,-1
 1009 395 l 1,8,-1
 843 395 l 1,9,-1
 801 0 l 1,10,-1
 516 0 l 1,0,-1
339 636 m 1,11,-1
 582 636 l 1,12,-1
 656 1335 l 1,13,-1
 339 636 l 1,11,-1
EndSplineSet
EndChar

StartChar: five
Encoding: 53 53 24
Width: 1077
GlyphClass: 2
Flags: W
LayerCount: 2
UndoRedoHistory
Layer: 1
Undoes
EndUndoes
Redoes
EndRedoes
EndUndoRedoHistory
Fore
SplineSet
492 -26 m 0,0,1
 365 -26 365 -26 283 10.5 c 128,-1,2
 201 47 201 47 163.5 113.5 c 128,-1,3
 126 180 126 180 115 274 c 0,4,5
 110 314 110 314 110 357 c 0,6,7
 110 416 110 416 119 483 c 1,8,-1
 422 483 l 1,9,10
 415 413 415 413 415 359 c 0,11,12
 415 348 415 348 415 336 c 0,13,14
 418 274 418 274 446 241 c 0,15,16
 474 209 474 209 530 209 c 0,17,18
 532 209 532 209 533 209 c 0,19,20
 560 210 560 210 582 219.5 c 128,-1,21
 604 229 604 229 619.5 243 c 128,-1,22
 635 257 635 257 647.5 285.5 c 128,-1,23
 660 314 660 314 667.5 337.5 c 128,-1,24
 675 361 675 361 682 405 c 128,-1,25
 689 449 689 449 692.5 479.5 c 128,-1,26
 696 510 696 510 702 567 c 0,27,28
 710 650 710 650 710 714 c 0,29,30
 710 718 710 718 710 722 c 0,31,32
 710 789 710 789 681 829 c 128,-1,33
 652 869 652 869 591 869 c 0,34,35
 479 869 479 869 431 723 c 1,36,-1
 163 723 l 1,37,-1
 281 1658 l 1,38,-1
 1045 1658 l 1,39,-1
 1017 1386 l 1,40,-1
 511 1386 l 1,41,-1
 454 1019 l 1,42,43
 485 1051 485 1051 545 1072.5 c 128,-1,44
 605 1094 605 1094 675 1099 c 0,45,46
 692 1100 692 1100 708 1100 c 0,47,48
 874 1100 874 1100 947 976 c 0,49,50
 1007 874 1007 874 1007 706 c 0,51,52
 1007 649 1007 649 1000 585 c 0,53,54
 988 472 988 472 969 386.5 c 128,-1,55
 950 301 950 301 913 220.5 c 128,-1,56
 876 140 876 140 822 88 c 128,-1,57
 768 36 768 36 684.5 5 c 128,-1,58
 601 -26 601 -26 492 -26 c 0,0,1
EndSplineSet
EndChar

StartChar: six
Encoding: 54 54 25
Width: 1077
GlyphClass: 2
Flags: W
LayerCount: 2
UndoRedoHistory
Layer: 1
Undoes
EndUndoes
Redoes
EndRedoes
EndUndoRedoHistory
Fore
SplineSet
500 -22 m 0,0,1
 385 -22 385 -22 302.5 19.5 c 128,-1,2
 220 61 220 61 176 136 c 128,-1,3
 132 211 132 211 116 309 c 0,4,5
 107 364 107 364 108 426 c 0,6,7
 108 474 108 474 113 526 c 2,8,-1
 173 1100 l 2,9,10
 184 1203 184 1203 204.5 1285.5 c 128,-1,11
 225 1368 225 1368 263.5 1443.5 c 128,-1,12
 302 1519 302 1519 357 1569.5 c 128,-1,13
 412 1620 412 1620 493 1649.5 c 128,-1,14
 574 1679 574 1679 678 1679 c 0,15,16
 896 1679 896 1679 985 1573 c 0,17,18
 1058 1486 1058 1486 1058 1328 c 0,19,20
 1058 1294 1058 1294 1055 1258 c 0,21,22
 1055 1256 1055 1256 1054 1244.5 c 128,-1,23
 1053 1233 1053 1233 1053 1232 c 1,24,-1
 756 1232 l 1,25,26
 761 1280 761 1280 761 1316 c 0,27,28
 761 1332 761 1332 760 1346 c 0,29,30
 757 1392 757 1392 731.5 1416 c 128,-1,31
 706 1440 706 1440 654 1440 c 0,32,33
 579 1440 579 1440 543 1365.5 c 128,-1,34
 507 1291 507 1291 487 1102 c 2,35,-1
 469 927 l 1,36,37
 500 974 500 974 559 1000.5 c 128,-1,38
 618 1027 618 1027 693 1029 c 1,39,40
 696 1029 696 1029 700 1029 c 0,41,42
 775 1029 775 1029 831 1007 c 0,43,44
 890 984 890 984 925.5 941 c 128,-1,45
 961 898 961 898 982.5 838 c 128,-1,46
 1004 778 1004 778 1006 706 c 0,47,48
 1006 690 1006 690 1006 674 c 0,49,50
 1006 616 1006 616 1001 553 c 1,51,52
 940 -22 940 -22 500 -22 c 0,0,1
528 214 m 0,53,54
 567 214 567 214 595 233.5 c 128,-1,55
 623 253 623 253 640.5 293.5 c 128,-1,56
 658 334 658 334 668 381.5 c 128,-1,57
 678 429 678 429 685 498 c 1,58,59
 692 580 692 580 696 646 c 0,60,61
 696 654 696 654 696 662 c 0,62,63
 696 716 696 716 673 752 c 0,64,65
 647 792 647 792 587 793 c 0,66,67
 542 793 542 793 504.5 768 c 128,-1,68
 467 743 467 743 446 709 c 1,69,-1
 419 451 l 1,70,71
 415 413 415 413 415 381 c 0,72,73
 415 214 415 214 528 214 c 0,53,54
EndSplineSet
EndChar

StartChar: seven
Encoding: 55 55 26
Width: 1077
GlyphClass: 2
Flags: W
LayerCount: 2
UndoRedoHistory
Layer: 1
Undoes
EndUndoes
Redoes
EndRedoes
EndUndoRedoHistory
Fore
SplineSet
235 0 m 1,0,-1
 723 1422 l 1,1,-1
 251 1422 l 1,2,-1
 275 1658 l 1,3,-1
 1052 1658 l 1,4,-1
 1031 1446 l 1,5,-1
 537 0 l 1,6,-1
 235 0 l 1,0,-1
EndSplineSet
EndChar

StartChar: eight
Encoding: 56 56 27
Width: 1077
GlyphClass: 2
Flags: W
LayerCount: 2
UndoRedoHistory
Layer: 1
Undoes
EndUndoes
Redoes
EndRedoes
EndUndoRedoHistory
Fore
SplineSet
492 -24 m 0,0,1
 97 -24 97 -24 97 376 c 0,2,3
 97 429 97 429 104 488 c 0,4,5
 119 623 119 623 177.5 722.5 c 128,-1,6
 236 822 236 822 336 874 c 1,7,8
 205 980 205 980 205 1177 c 0,9,10
 205 1206 205 1206 208 1236 c 0,11,12
 227 1446 227 1446 346 1562.5 c 128,-1,13
 465 1679 465 1679 671 1679 c 0,14,15
 876 1678 876 1678 969 1562 c 0,16,17
 1042 1470 1042 1470 1042 1321 c 0,18,19
 1042 1281 1042 1281 1037 1236 c 0,20,21
 1009 992 1009 992 834 874 c 1,22,23
 923 822 923 822 961 722 c 0,24,25
 990 646 990 646 990 551 c 0,26,27
 990 521 990 521 987 488 c 0,28,29
 940 -24 940 -24 492 -24 c 0,0,1
516 209 m 128,-1,31
 561 209 561 209 593 232.5 c 128,-1,32
 625 256 625 256 642.5 298.5 c 128,-1,33
 660 341 660 341 668 379.5 c 128,-1,34
 676 418 676 418 681 469 c 1,35,36
 688 510 688 510 688 550 c 0,37,38
 688 558 688 558 688 566 c 0,39,40
 686 614 686 614 677.5 651 c 128,-1,41
 669 688 669 688 642 711 c 128,-1,42
 615 734 615 734 572 734 c 128,-1,43
 529 734 529 734 497.5 712 c 128,-1,44
 466 690 466 690 447.5 649.5 c 128,-1,45
 429 609 429 609 419.5 567 c 128,-1,46
 410 525 410 525 404 469 c 1,47,48
 398 434 398 434 398 396 c 0,49,50
 398 388 398 388 398 380 c 0,51,52
 400 334 400 334 408 296 c 128,-1,53
 416 258 416 258 443.5 233.5 c 128,-1,30
 471 209 471 209 516 209 c 128,-1,31
598 993 m 0,54,55
 717 993 717 993 744 1248 c 0,56,57
 747 1274 747 1274 747 1297 c 0,58,59
 747 1353 747 1353 730 1391 c 0,60,61
 706 1445 706 1445 646 1445 c 0,62,63
 584 1445 584 1445 549 1392 c 128,-1,64
 514 1339 514 1339 504 1249 c 0,65,66
 499 1202 499 1202 499 1164 c 0,67,68
 499 993 499 993 598 993 c 0,54,55
EndSplineSet
EndChar

StartChar: nine
Encoding: 57 57 28
Width: 1077
GlyphClass: 2
Flags: W
LayerCount: 2
UndoRedoHistory
Layer: 1
Undoes
EndUndoes
Redoes
EndRedoes
EndUndoRedoHistory
Fore
SplineSet
480 -22 m 0,0,1
 261 -22 261 -22 173 85 c 0,2,3
 101 172 101 172 101 328 c 0,4,5
 101 364 101 364 105 403 c 0,6,7
 105 404 105 404 106 414 c 128,-1,8
 107 424 107 424 107 426 c 1,9,-1
 404 426 l 1,10,11
 400 384 400 384 400 352 c 0,12,13
 400 296 400 296 412 266 c 0,14,15
 432 218 432 218 508 218 c 0,16,17
 582 218 582 218 616 291 c 128,-1,18
 650 364 650 364 671 556 c 1,19,-1
 689 730 l 1,20,21
 622 632 622 632 466 629 c 0,22,23
 463 629 463 629 460 629 c 0,24,25
 385 628 385 628 328 652 c 0,26,27
 269 676 269 676 234 721 c 128,-1,28
 199 766 199 766 178 828 c 128,-1,29
 157 890 157 890 155 963 c 0,30,31
 155 979 155 979 155 996 c 0,32,33
 155 1054 155 1054 160 1117 c 1,34,35
 174 1245 174 1245 208.5 1345.5 c 128,-1,36
 243 1446 243 1446 302 1522 c 128,-1,37
 361 1598 361 1598 451.5 1638.5 c 128,-1,38
 542 1679 542 1679 660 1679 c 0,39,40
 775 1679 775 1679 857.5 1639.5 c 128,-1,41
 940 1600 940 1600 985 1527.5 c 0,42,43
 1030 1456 1030 1456 1046 1360 c 0,44,45
 1054 1308 1054 1308 1054 1249 c 0,46,47
 1054 1200 1054 1200 1048 1145 c 2,48,-1
 987 558 l 2,49,50
 976 455 976 455 955.5 372 c 128,-1,51
 935 289 935 289 896 214 c 128,-1,52
 857 139 857 139 802 88 c 128,-1,53
 747 37 747 37 665.5 7.5 c 128,-1,54
 584 -22 584 -22 480 -22 c 0,0,1
577 865 m 1,55,56
 658 865 658 865 712 949 c 1,57,-1
 739 1207 l 1,58,59
 743 1251 743 1251 743 1291 c 0,60,61
 743 1308 743 1308 742 1322 c 0,62,63
 740 1374 740 1374 713.5 1409 c 128,-1,64
 687 1444 687 1444 636 1444 c 0,65,66
 562 1444 562 1444 528.5 1373.5 c 128,-1,67
 495 1303 495 1303 479 1160 c 1,68,69
 470 1064 470 1064 470 1008 c 0,70,71
 470 974 470 974 473 955 c 1,72,73
 494 868 494 868 577 865 c 1,55,56
EndSplineSet
EndChar

StartChar: colon
Encoding: 58 58 29
Width: 516
GlyphClass: 2
Flags: W
LayerCount: 2
UndoRedoHistory
Layer: 1
Undoes
EndUndoes
Redoes
EndRedoes
EndUndoRedoHistory
Fore
SplineSet
95 145 m 1,0,-1
 126 432 l 1,1,-1
 415 432 l 1,2,-1
 385 145 l 1,3,-1
 95 145 l 1,0,-1
169 843 m 1,4,-1
 199 1131 l 1,5,-1
 489 1131 l 1,6,-1
 458 843 l 1,7,-1
 169 843 l 1,4,-1
EndSplineSet
EndChar

StartChar: semicolon
Encoding: 59 59 30
Width: 538
GlyphClass: 2
Flags: W
LayerCount: 2
UndoRedoHistory
Layer: 1
Undoes
EndUndoes
Redoes
EndRedoes
EndUndoRedoHistory
Fore
SplineSet
105 -197 m 1,0,-1
 90 -90 l 1,1,2
 231 -76 231 -76 246 67 c 1,3,-1
 87 67 l 1,4,-1
 118 357 l 1,5,-1
 411 357 l 1,6,-1
 383 96 l 1,7,8
 353 -196 353 -196 105 -197 c 1,0,-1
172 881 m 1,9,-1
 202 1174 l 1,10,-1
 492 1174 l 1,11,-1
 462 881 l 1,12,-1
 172 881 l 1,9,-1
EndSplineSet
EndChar

StartChar: less
Encoding: 60 60 31
Width: 801
GlyphClass: 2
Flags: W
LayerCount: 2
UndoRedoHistory
Layer: 1
Undoes
EndUndoes
Redoes
EndRedoes
EndUndoRedoHistory
Fore
SplineSet
650 156 m 1,0,-1
 75 589 l 1,1,-1
 102 843 l 1,2,-1
 768 1278 l 1,3,-1
 739 1002 l 1,4,-1
 309 718 l 1,5,-1
 679 430 l 1,6,-1
 650 156 l 1,0,-1
EndSplineSet
EndChar

StartChar: equal
Encoding: 61 61 32
Width: 892
GlyphClass: 2
Flags: W
LayerCount: 2
UndoRedoHistory
Layer: 1
Undoes
EndUndoes
Redoes
EndRedoes
EndUndoRedoHistory
Fore
SplineSet
129 527 m 1,0,-1
 149 723 l 1,1,-1
 795 723 l 1,2,-1
 775 527 l 1,3,-1
 129 527 l 1,0,-1
169 909 m 1,4,-1
 189 1105 l 1,5,-1
 835 1105 l 1,6,-1
 815 909 l 1,7,-1
 169 909 l 1,4,-1
EndSplineSet
EndChar

StartChar: greater
Encoding: 62 62 33
Width: 801
GlyphClass: 2
Flags: W
LayerCount: 2
UndoRedoHistory
Layer: 1
Undoes
EndUndoes
Redoes
EndRedoes
EndUndoRedoHistory
Fore
SplineSet
80 156 m 1,0,-1
 109 430 l 1,1,-1
 539 718 l 1,2,-1
 169 1002 l 1,3,-1
 198 1278 l 1,4,-1
 774 843 l 1,5,-1
 748 589 l 1,6,-1
 80 156 l 1,0,-1
EndSplineSet
EndChar

StartChar: question
Encoding: 63 63 34
Width: 996
GlyphClass: 2
Flags: W
LayerCount: 2
UndoRedoHistory
Layer: 1
Undoes
EndUndoes
Redoes
EndRedoes
EndUndoRedoHistory
Fore
SplineSet
279 430 m 1,0,-1
 307 691 l 1,1,2
 688 993 688 993 706 1273 c 0,3,4
 706 1281 706 1281 706 1288 c 0,5,6
 706 1349 706 1349 676 1383 c 0,7,8
 642 1421 642 1421 583 1421 c 0,9,10
 525 1421 525 1421 490 1383 c 128,-1,11
 455 1345 455 1345 454 1282 c 1,12,13
 453 1272 453 1272 453 1259 c 0,14,15
 453 1229 453 1229 461 1186 c 1,16,-1
 178 1126 l 1,17,18
 167 1201 167 1201 167 1245 c 0,19,20
 167 1258 167 1258 168 1268 c 1,21,22
 168 1454 168 1454 281 1569 c 128,-1,23
 394 1684 394 1684 606 1684 c 0,24,25
 820 1684 820 1684 923 1573 c 0,26,27
 1009 1481 1009 1481 1009 1327 c 0,28,29
 1009 1296 1009 1296 1005 1262 c 0,30,31
 987 1083 987 1083 868 920.5 c 128,-1,32
 749 758 749 758 575 628 c 1,33,-1
 555 430 l 1,34,-1
 279 430 l 1,0,-1
224 0 m 1,35,-1
 255 293 l 1,36,-1
 554 293 l 1,37,-1
 523 0 l 1,38,-1
 224 0 l 1,35,-1
EndSplineSet
EndChar

StartChar: at
Encoding: 64 64 35
Width: 1931
GlyphClass: 2
Flags: W
LayerCount: 2
UndoRedoHistory
Layer: 1
Undoes
EndUndoes
Redoes
EndRedoes
EndUndoRedoHistory
Fore
SplineSet
891 -269 m 0,0,1
 458 -268 458 -268 258 -22 c 0,2,3
 116 153 116 153 116 426 c 0,4,5
 116 537 116 537 139 664 c 1,6,7
 215 1132 215 1132 504.5 1395.5 c 128,-1,8
 794 1659 794 1659 1226 1659 c 0,9,10
 1361 1659 1361 1659 1472.5 1628.5 c 128,-1,11
 1584 1598 1584 1598 1662 1542 c 128,-1,12
 1740 1486 1740 1486 1796.5 1408.5 c 128,-1,13
 1853 1331 1853 1331 1878 1237 c 128,-1,14
 1903 1143 1903 1143 1909 1036 c 0,15,16
 1910 1014 1910 1014 1910 991 c 0,17,18
 1910 905 1910 905 1892 814 c 1,19,20
 1879 727 1879 727 1848 641.5 c 128,-1,21
 1817 556 1817 556 1766 475.5 c 128,-1,22
 1715 395 1715 395 1650 334 c 128,-1,23
 1585 273 1585 273 1496.5 236 c 128,-1,24
 1408 199 1408 199 1309 199 c 0,25,26
 1218 199 1218 199 1153 241.5 c 128,-1,27
 1088 284 1088 284 1078 362 c 1,28,29
 1050 302 1050 302 996 260 c 128,-1,30
 942 218 942 218 871 212 c 0,31,32
 854 211 854 211 837 211 c 0,33,34
 698 211 698 211 628 317 c 0,35,36
 567 408 567 408 567 536 c 0,37,38
 567 575 567 575 573 617 c 0,39,40
 583 696 583 696 611 780.5 c 128,-1,41
 639 865 639 865 686.5 949.5 c 128,-1,42
 734 1034 734 1034 795 1100.5 c 128,-1,43
 856 1167 856 1167 939 1208.5 c 128,-1,44
 1022 1250 1022 1250 1113 1250 c 0,45,46
 1140 1250 1140 1250 1162.5 1239 c 128,-1,47
 1185 1228 1185 1228 1199.5 1210.5 c 128,-1,48
 1214 1193 1214 1193 1224 1176.5 c 128,-1,49
 1234 1160 1234 1160 1242 1144 c 0,50,51
 1243 1142 1243 1142 1243.5 1140 c 128,-1,52
 1244 1138 1244 1138 1245 1137 c 1,53,-1
 1276 1235 l 1,54,-1
 1513 1235 l 1,55,-1
 1340 534 l 1,56,57
 1322 456 1322 456 1322 418 c 0,58,59
 1322 404 1322 404 1324 395 c 0,60,61
 1330 372 1330 372 1350 368 c 1,62,63
 1360 367 1360 367 1370 367 c 0,64,65
 1426 368 1426 368 1486 416 c 0,66,67
 1556 474 1556 474 1608 578 c 128,-1,68
 1660 682 1660 682 1680 804 c 1,69,70
 1695 904 1695 904 1695 994 c 0,71,72
 1695 1004 1695 1004 1695 1014 c 0,73,74
 1693 1112 1693 1112 1659 1195 c 128,-1,75
 1625 1278 1625 1278 1566 1337.5 c 128,-1,76
 1507 1397 1507 1397 1409.5 1430 c 128,-1,77
 1312 1463 1312 1463 1184 1463 c 0,78,79
 1016 1463 1016 1463 875 1403 c 128,-1,80
 734 1343 734 1343 634 1235 c 128,-1,81
 534 1127 534 1127 468.5 984 c 128,-1,82
 403 841 403 841 374 670 c 1,83,84
 352 555 352 555 352 457 c 0,85,86
 352 253 352 253 446 122 c 0,87,88
 586 -71 586 -71 940 -71 c 0,89,90
 1023 -71 1023 -71 1135 -53.5 c 128,-1,91
 1247 -36 1247 -36 1341 -7 c 1,92,-1
 1359 -203 l 1,93,94
 1095 -269 1095 -269 891 -269 c 0,0,1
958 422 m 1,95,96
 978 426 978 426 998.5 435 c 128,-1,97
 1019 444 1019 444 1046.5 469.5 c 128,-1,98
 1074 495 1074 495 1087 530 c 1,99,-1
 1202 1006 l 1,100,101
 1199 1017 1199 1017 1182.5 1022 c 128,-1,102
 1166 1027 1166 1027 1151 1027 c 0,103,104
 1073 1027 1073 1027 1004 965.5 c 128,-1,105
 935 904 935 904 893 810.5 c 128,-1,106
 851 717 851 717 840 615 c 0,107,108
 837 591 837 591 837 569 c 0,109,110
 837 540 837 540 842 516 c 0,111,112
 850 472 850 472 880 444 c 0,113,114
 905 421 905 421 943 421 c 0,115,116
 950 421 950 421 958 422 c 1,95,96
EndSplineSet
EndChar

StartChar: A
Encoding: 65 65 36
Width: 1093
GlyphClass: 2
Flags: W
AnchorPoint: "Anchor-0" 880 0 basechar 0
LayerCount: 2
UndoRedoHistory
Layer: 1
Undoes
EndUndoes
Redoes
EndRedoes
EndUndoRedoHistory
Fore
SplineSet
-10 0 m 1,0,-1
 491 1658 l 1,1,-1
 851 1658 l 1,2,-1
 1002 0 l 1,3,-1
 695 0 l 1,4,-1
 671 370 l 1,5,-1
 404 370 l 1,6,-1
 303 0 l 1,7,-1
 -10 0 l 1,0,-1
458 577 m 1,8,-1
 660 577 l 1,9,-1
 629 1241 l 1,10,-1
 458 577 l 1,8,-1
EndSplineSet
EndChar

StartChar: B
Encoding: 66 66 37
Width: 1168
GlyphClass: 2
Flags: W
LayerCount: 2
UndoRedoHistory
Layer: 1
Undoes
EndUndoes
Redoes
EndRedoes
EndUndoRedoHistory
Fore
SplineSet
73 0 m 1,0,-1
 247 1658 l 1,1,-1
 665 1658 l 2,2,3
 757 1658 757 1658 828.5 1647 c 128,-1,4
 900 1636 900 1636 963 1607 c 128,-1,5
 1026 1578 1026 1578 1064.5 1530.5 c 128,-1,6
 1103 1483 1103 1483 1120 1407 c 0,7,8
 1130 1362 1130 1362 1130 1309 c 0,9,10
 1130 1271 1130 1271 1125 1230 c 0,11,12
 1090 930 1090 930 846 892 c 1,13,14
 1101 849 1101 849 1101 559 c 0,15,16
 1101 524 1101 524 1097 486 c 0,17,18
 1073 243 1073 243 936.5 121.5 c 128,-1,19
 800 0 800 0 565 0 c 2,20,-1
 73 0 l 1,0,-1
429 233 m 1,21,-1
 524 233 l 2,22,23
 653 233 653 233 709 293.5 c 128,-1,24
 765 354 765 354 779 490 c 0,25,26
 783 525 783 525 783 556 c 0,27,28
 783 651 783 651 747 699 c 0,29,30
 700 762 700 762 569 762 c 2,31,-1
 484 762 l 1,32,-1
 429 233 l 1,21,-1
508 988 m 1,33,-1
 591 988 l 2,34,35
 718 988 718 988 770.5 1043.5 c 128,-1,36
 823 1099 823 1099 836 1225 c 0,37,38
 838 1246 838 1246 838 1265 c 0,39,40
 838 1351 838 1351 792 1387 c 0,41,42
 736 1431 736 1431 604 1431 c 2,43,-1
 555 1431 l 1,44,-1
 508 988 l 1,33,-1
EndSplineSet
EndChar

StartChar: C
Encoding: 67 67 38
Width: 1124
GlyphClass: 2
Flags: W
AnchorPoint: "Anchor-1" 480 0 basechar 0
LayerCount: 2
UndoRedoHistory
Layer: 1
Undoes
EndUndoes
Redoes
EndRedoes
EndUndoRedoHistory
Fore
SplineSet
529 -22 m 0,0,1
 420 -22 420 -22 339 4 c 128,-1,2
 258 30 258 30 209 78.5 c 128,-1,3
 160 127 160 127 132 196 c 128,-1,4
 104 265 104 265 100 350 c 0,5,6
 99 376 99 376 99 404 c 0,7,8
 99 466 99 466 105 535 c 1,9,-1
 166 1119 l 2,10,11
 180 1254 180 1254 214 1353.5 c 128,-1,12
 248 1453 248 1453 310.5 1528 c 128,-1,13
 373 1603 373 1603 472.5 1641 c 128,-1,14
 572 1679 572 1679 708 1679 c 0,15,16
 837 1679 837 1679 924.5 1645.5 c 128,-1,17
 1012 1612 1012 1612 1057.5 1547 c 0,18,19
 1104 1482 1104 1482 1118 1398 c 0,20,21
 1126 1352 1126 1352 1125 1296 c 0,22,23
 1125 1251 1125 1251 1120 1200 c 2,24,-1
 1104 1056 l 1,25,-1
 783 1056 l 1,26,-1
 799 1209 l 2,27,28
 802 1240 802 1240 803 1249.5 c 128,-1,29
 804 1259 804 1259 805.5 1286 c 128,-1,30
 807 1313 807 1313 806 1323 c 128,-1,31
 805 1333 805 1333 802.5 1354.5 c 128,-1,32
 800 1376 800 1376 794 1384.5 c 128,-1,33
 788 1393 788 1393 779 1406.5 c 128,-1,34
 770 1420 770 1420 757 1425.5 c 128,-1,35
 744 1431 744 1431 725.5 1435.5 c 128,-1,36
 707 1440 707 1440 684 1440 c 0,37,38
 650 1440 650 1440 624 1431.5 c 128,-1,39
 598 1423 598 1423 580 1405 c 128,-1,40
 562 1387 562 1387 550 1367.5 c 128,-1,41
 538 1348 538 1348 530 1316 c 128,-1,42
 522 1284 522 1284 517.5 1258 c 128,-1,43
 513 1232 513 1232 509 1193 c 2,44,-1
 433 460 l 2,45,46
 428 416 428 416 428 380 c 0,47,48
 428 314 428 314 445 276 c 0,49,50
 471 218 471 218 556 218 c 0,51,52
 589 218 589 218 614 226 c 128,-1,53
 639 234 639 234 656 253 c 128,-1,54
 673 272 673 272 683.5 290 c 128,-1,55
 694 308 694 308 701.5 341 c 128,-1,56
 709 374 709 374 712.5 396.5 c 128,-1,57
 716 419 716 419 720 460 c 2,58,-1
 737 619 l 1,59,-1
 1058 619 l 1,60,-1
 1044 480 l 2,61,62
 1032 365 1032 365 1000.5 278 c 128,-1,63
 969 191 969 191 910.5 121 c 128,-1,64
 852 51 852 51 756 14.5 c 128,-1,65
 660 -22 660 -22 529 -22 c 0,0,1
EndSplineSet
EndChar

StartChar: D
Encoding: 68 68 39
Width: 1161
GlyphClass: 2
Flags: W
LayerCount: 2
UndoRedoHistory
Layer: 1
Undoes
EndUndoes
Redoes
EndRedoes
EndUndoRedoHistory
Fore
SplineSet
429 231 m 1,0,-1
 501 231 l 2,1,2
 542 231 542 231 573.5 237.5 c 128,-1,3
 605 244 605 244 627 253.5 c 128,-1,4
 649 263 649 263 665.5 284 c 128,-1,5
 682 305 682 305 692 323.5 c 128,-1,6
 702 342 702 342 709.5 377.5 c 128,-1,7
 717 413 717 413 721 440 c 128,-1,8
 725 467 725 467 730 517 c 2,9,-1
 799 1171 l 2,10,11
 805 1226 805 1226 805 1268 c 0,12,13
 804 1296 804 1296 802 1318 c 0,14,15
 796 1374 796 1374 755.5 1399 c 128,-1,16
 715 1424 715 1424 624 1424 c 2,17,-1
 554 1424 l 1,18,-1
 429 231 l 1,0,-1
73 0 m 1,19,-1
 247 1658 l 1,20,-1
 647 1658 l 2,21,22
 803 1658 803 1658 904 1628.5 c 128,-1,23
 1005 1599 1005 1599 1060.5 1533.5 c 128,-1,24
 1116 1468 1116 1468 1132 1374 c 0,25,26
 1140 1325 1140 1325 1140 1264 c 0,27,28
 1140 1207 1140 1207 1133 1138 c 2,29,-1
 1070 540 l 2,30,31
 1050 348 1050 348 990 233 c 128,-1,32
 930 118 930 118 806.5 59 c 128,-1,33
 683 0 683 0 482 0 c 2,34,-1
 73 0 l 1,19,-1
EndSplineSet
EndChar

StartChar: E
Encoding: 69 69 40
Width: 892
GlyphClass: 2
Flags: W
AnchorPoint: "Anchor-0" 511 0 basechar 0
LayerCount: 2
UndoRedoHistory
Layer: 1
Undoes
EndUndoes
Redoes
EndRedoes
EndUndoRedoHistory
Fore
SplineSet
73 0 m 1,0,-1
 247 1658 l 1,1,-1
 964 1658 l 1,2,-1
 940 1428 l 1,3,-1
 554 1428 l 1,4,-1
 507 982 l 1,5,-1
 808 982 l 1,6,-1
 784 750 l 1,7,-1
 483 750 l 1,8,-1
 428 227 l 1,9,-1
 819 227 l 1,10,-1
 795 0 l 1,11,-1
 73 0 l 1,0,-1
EndSplineSet
EndChar

StartChar: F
Encoding: 70 70 41
Width: 861
GlyphClass: 2
Flags: W
LayerCount: 2
UndoRedoHistory
Layer: 1
Undoes
EndUndoes
Redoes
EndRedoes
EndUndoRedoHistory
Fore
SplineSet
73 0 m 1,0,-1
 247 1658 l 1,1,-1
 945 1658 l 1,2,-1
 922 1431 l 1,3,-1
 555 1431 l 1,4,-1
 507 978 l 1,5,-1
 810 978 l 1,6,-1
 786 746 l 1,7,-1
 483 746 l 1,8,-1
 404 0 l 1,9,-1
 73 0 l 1,0,-1
EndSplineSet
EndChar

StartChar: G
Encoding: 71 71 42
Width: 1161
GlyphClass: 2
Flags: W
LayerCount: 2
UndoRedoHistory
Layer: 1
Undoes
EndUndoes
Redoes
EndRedoes
EndUndoRedoHistory
Fore
SplineSet
492 -23 m 0,0,1
 370 -23 370 -23 286 17.5 c 128,-1,2
 202 58 202 58 159.5 132.5 c 0,3,4
 117 208 117 208 103 314 c 0,5,6
 96 364 96 364 96 418 c 0,7,8
 96 481 96 481 105 552 c 1,9,-1
 162 1097 l 2,10,11
 174 1209 174 1209 197.5 1297 c 128,-1,12
 221 1385 221 1385 263 1458 c 128,-1,13
 305 1531 305 1531 365 1579 c 128,-1,14
 425 1627 425 1627 511 1653 c 128,-1,15
 597 1679 597 1679 707 1679 c 0,16,17
 837 1679 837 1679 925 1646.5 c 128,-1,18
 1013 1614 1013 1614 1061 1549.5 c 128,-1,19
 1109 1485 1109 1485 1124 1398 c 0,20,21
 1132 1350 1132 1350 1132 1292 c 0,22,23
 1132 1246 1132 1246 1127 1193 c 2,24,-1
 1117 1101 l 1,25,-1
 797 1101 l 1,26,-1
 808 1208 l 1,27,28
 813 1268 813 1268 813 1314 c 0,29,30
 813 1322 813 1322 813 1330 c 0,31,32
 812 1382 812 1382 781.5 1411 c 128,-1,33
 751 1440 751 1440 686 1440 c 0,34,35
 644 1440 644 1440 613.5 1425 c 128,-1,36
 583 1410 583 1410 565 1389 c 128,-1,37
 547 1368 547 1368 535 1330.5 c 128,-1,38
 523 1293 523 1293 518 1262.5 c 128,-1,39
 513 1232 513 1232 508 1183 c 2,40,-1
 433 474 l 1,41,42
 429 431 429 431 429 394 c 0,43,44
 430 365 430 365 432 340 c 0,45,46
 438 283 438 283 470.5 251 c 128,-1,47
 503 219 503 219 566 219 c 0,48,49
 660 219 660 219 703.5 287.5 c 128,-1,50
 747 356 747 356 761 487 c 2,51,-1
 777 646 l 1,52,-1
 611 646 l 1,53,-1
 633 851 l 1,54,-1
 1098 851 l 1,55,-1
 1008 0 l 1,56,-1
 791 0 l 1,57,-1
 786 155 l 1,58,59
 694 -23 694 -23 492 -23 c 0,0,1
EndSplineSet
EndChar

StartChar: H
Encoding: 72 72 43
Width: 1210
GlyphClass: 2
Flags: W
LayerCount: 2
UndoRedoHistory
Layer: 1
Undoes
EndUndoes
Redoes
EndRedoes
EndUndoRedoHistory
Fore
SplineSet
73 0 m 1,0,-1
 247 1658 l 1,1,-1
 578 1658 l 1,2,-1
 507 976 l 1,3,-1
 809 976 l 1,4,-1
 880 1658 l 1,5,-1
 1211 1658 l 1,6,-1
 1037 0 l 1,7,-1
 706 0 l 1,8,-1
 784 739 l 1,9,-1
 482 739 l 1,10,-1
 404 0 l 1,11,-1
 73 0 l 1,0,-1
EndSplineSet
EndChar

StartChar: I
Encoding: 73 73 44
Width: 586
GlyphClass: 2
Flags: W
AnchorPoint: "Anchor-0" 220 0 basechar 0
LayerCount: 2
UndoRedoHistory
Layer: 1
Undoes
EndUndoes
Redoes
EndRedoes
EndUndoRedoHistory
Fore
SplineSet
80 0 m 1,0,-1
 254 1658 l 1,1,-1
 582 1658 l 1,2,-1
 408 0 l 1,3,-1
 80 0 l 1,0,-1
EndSplineSet
EndChar

StartChar: J
Encoding: 74 74 45
Width: 689
GlyphClass: 2
Flags: W
AnchorPoint: "Anchor-2" 338 1800 basechar 0
LayerCount: 2
UndoRedoHistory
Layer: 1
Undoes
EndUndoes
Redoes
EndRedoes
EndUndoRedoHistory
Fore
SplineSet
-32 -38 m 1,0,-1
 -8 195 l 1,1,2
 -2 195 -2 195 4 195 c 0,3,4
 119 194 119 194 164 230 c 0,5,6
 211 268 211 268 224 385 c 2,7,-1
 357 1658 l 1,8,-1
 688 1658 l 1,9,-1
 554 374 l 1,10,11
 541 266 541 266 515 192.5 c 128,-1,12
 489 119 489 119 440.5 65.5 c 128,-1,13
 392 12 392 12 315 -13 c 128,-1,14
 238 -38 238 -38 128 -38 c 2,15,-1
 -32 -38 l 1,0,-1
EndSplineSet
EndChar

StartChar: K
Encoding: 75 75 46
Width: 1117
GlyphClass: 2
Flags: W
LayerCount: 2
UndoRedoHistory
Layer: 1
Undoes
EndUndoes
Redoes
EndRedoes
EndUndoRedoHistory
Fore
SplineSet
73 0 m 1,0,-1
 247 1658 l 1,1,-1
 578 1658 l 1,2,-1
 505 959 l 1,3,-1
 884 1658 l 1,4,-1
 1203 1658 l 1,5,-1
 812 913 l 1,6,-1
 1054 0 l 1,7,-1
 720 0 l 1,8,-1
 533 763 l 1,9,-1
 476 678 l 1,10,-1
 404 0 l 1,11,-1
 73 0 l 1,0,-1
EndSplineSet
EndChar

StartChar: L
Encoding: 76 76 47
Width: 875
GlyphClass: 2
Flags: W
LayerCount: 2
UndoRedoHistory
Layer: 1
Undoes
EndUndoes
Redoes
EndRedoes
EndUndoRedoHistory
Fore
SplineSet
73 0 m 1,0,-1
 247 1658 l 1,1,-1
 578 1658 l 1,2,-1
 428 227 l 1,3,-1
 817 227 l 1,4,-1
 793 0 l 1,5,-1
 73 0 l 1,0,-1
EndSplineSet
EndChar

StartChar: M
Encoding: 77 77 48
Width: 1413
GlyphClass: 2
Flags: W
LayerCount: 2
UndoRedoHistory
Layer: 1
Undoes
EndUndoes
Redoes
EndRedoes
EndUndoRedoHistory
Fore
SplineSet
68 0 m 1,0,-1
 269 1658 l 1,1,-1
 616 1658 l 1,2,-1
 718 581 l 1,3,-1
 1055 1658 l 1,4,-1
 1393 1658 l 1,5,-1
 1246 0 l 1,6,-1
 1003 0 l 1,7,-1
 1098 1124 l 1,8,-1
 761 0 l 1,9,-1
 560 0 l 1,10,-1
 454 1129 l 1,11,-1
 314 0 l 1,12,-1
 68 0 l 1,0,-1
EndSplineSet
EndChar

StartChar: N
Encoding: 78 78 49
Width: 1128
GlyphClass: 2
Flags: W
LayerCount: 2
UndoRedoHistory
Layer: 1
Undoes
EndUndoes
Redoes
EndRedoes
EndUndoRedoHistory
Fore
SplineSet
73 0 m 1,0,-1
 247 1658 l 1,1,-1
 478 1658 l 1,2,-1
 762 783 l 1,3,-1
 854 1658 l 1,4,-1
 1129 1658 l 1,5,-1
 955 0 l 1,6,-1
 735 0 l 1,7,-1
 453 929 l 1,8,-1
 355 0 l 1,9,-1
 73 0 l 1,0,-1
EndSplineSet
EndChar

StartChar: O
Encoding: 79 79 50
Width: 1172
GlyphClass: 2
Flags: W
AnchorPoint: "Anchor-0" 581 0 basechar 0
LayerCount: 2
UndoRedoHistory
Layer: 1
Undoes
EndUndoes
Redoes
EndRedoes
EndUndoRedoHistory
Fore
SplineSet
558 218 m 0,0,1
 606 218 606 218 639.5 235.5 c 128,-1,2
 673 253 673 253 691.5 287.5 c 128,-1,3
 710 322 710 322 718.5 358 c 128,-1,4
 727 394 727 394 733 446 c 2,5,-1
 814 1217 l 1,6,7
 817 1258 817 1258 817 1294 c 0,8,9
 816 1312 816 1312 816 1329 c 0,10,11
 814 1379 814 1379 782 1409.5 c 128,-1,12
 750 1440 750 1440 687 1440 c 0,13,14
 639 1440 639 1440 606 1423.5 c 128,-1,15
 573 1407 573 1407 555 1373 c 128,-1,16
 537 1339 537 1339 528.5 1304 c 128,-1,17
 520 1269 520 1269 514 1217 c 2,18,-1
 433 446 l 1,19,20
 429 401 429 401 429 362 c 0,21,22
 429 346 429 346 430 332 c 0,23,24
 432 282 432 282 463.5 250 c 128,-1,25
 495 218 495 218 558 218 c 0,0,1
533 -22 m 0,26,27
 399 -22 399 -22 308 14.5 c 128,-1,28
 217 51 217 51 168 123.5 c 128,-1,29
 119 196 119 196 104 294 c 0,30,31
 96 345 96 345 96 405 c 0,32,33
 96 461 96 461 103 525 c 2,34,-1
 168 1138 l 2,35,36
 196 1407 196 1407 323 1543 c 128,-1,37
 450 1679 450 1679 712 1679 c 0,38,39
 846 1679 846 1679 937 1643 c 128,-1,40
 1028 1607 1028 1607 1077.5 1535.5 c 0,41,42
 1126 1464 1126 1464 1142 1366 c 0,43,44
 1150 1315 1150 1315 1151 1255 c 0,45,46
 1151 1200 1151 1200 1144 1138 c 2,47,-1
 1079 525 l 2,48,49
 1051 257 1051 257 922.5 117.5 c 128,-1,50
 794 -22 794 -22 533 -22 c 0,26,27
EndSplineSet
EndChar

StartChar: P
Encoding: 80 80 51
Width: 1103
GlyphClass: 2
Flags: W
LayerCount: 2
UndoRedoHistory
Layer: 1
Undoes
EndUndoes
Redoes
EndRedoes
EndUndoRedoHistory
Fore
SplineSet
73 0 m 1,0,-1
 247 1658 l 1,1,-1
 758 1658 l 2,2,3
 1144 1658 1144 1658 1144 1277 c 0,4,5
 1144 1233 1144 1233 1139 1183 c 0,6,7
 1125 1056 1125 1056 1082.5 965.5 c 128,-1,8
 1040 875 1040 875 971.5 823.5 c 128,-1,9
 903 772 903 772 819.5 749 c 128,-1,10
 736 726 736 726 631 726 c 2,11,-1
 481 726 l 1,12,-1
 404 0 l 1,13,-1
 73 0 l 1,0,-1
505 957 m 1,14,-1
 611 957 l 2,15,16
 726 957 726 957 770.5 1007.5 c 128,-1,17
 815 1058 815 1058 828 1187 c 0,18,19
 833 1236 833 1236 833 1274 c 0,20,21
 833 1298 833 1298 831 1319 c 0,22,23
 826 1372 826 1372 786 1398.5 c 128,-1,24
 746 1425 746 1425 660 1425 c 2,25,-1
 554 1425 l 1,26,-1
 505 957 l 1,14,-1
EndSplineSet
EndChar

StartChar: Q
Encoding: 81 81 52
Width: 1172
GlyphClass: 2
Flags: W
LayerCount: 2
UndoRedoHistory
Layer: 1
Undoes
EndUndoes
Redoes
EndRedoes
EndUndoRedoHistory
Fore
SplineSet
858 -343 m 1,0,1
 793 -306 793 -306 705.5 -209.5 c 128,-1,2
 618 -113 618 -113 567 -21 c 1,3,4
 556 -22 556 -22 533 -22 c 0,5,6
 399 -22 399 -22 308 14.5 c 128,-1,7
 217 51 217 51 168 123.5 c 128,-1,8
 119 196 119 196 104 294 c 0,9,10
 96 345 96 345 96 405 c 0,11,12
 96 461 96 461 103 525 c 2,13,-1
 168 1138 l 2,14,15
 196 1407 196 1407 323 1543 c 128,-1,16
 450 1679 450 1679 712 1679 c 0,17,18
 846 1679 846 1679 937 1643 c 128,-1,19
 1028 1607 1028 1607 1077.5 1535.5 c 0,20,21
 1126 1464 1126 1464 1142 1366 c 0,22,23
 1150 1315 1150 1315 1151 1255 c 0,24,25
 1151 1200 1151 1200 1144 1138 c 2,26,-1
 1079 525 l 2,27,28
 1039 146 1039 146 803 32 c 1,29,30
 838 -25 838 -25 900 -92 c 128,-1,31
 962 -159 962 -159 1004 -191 c 1,32,-1
 858 -343 l 1,0,1
558 218 m 0,33,34
 606 218 606 218 639.5 235.5 c 128,-1,35
 673 253 673 253 691.5 287.5 c 128,-1,36
 710 322 710 322 718.5 358 c 128,-1,37
 727 394 727 394 733 446 c 2,38,-1
 814 1217 l 1,39,40
 817 1258 817 1258 817 1294 c 0,41,42
 816 1312 816 1312 816 1329 c 0,43,44
 814 1379 814 1379 782 1409.5 c 128,-1,45
 750 1440 750 1440 687 1440 c 0,46,47
 639 1440 639 1440 606 1423.5 c 128,-1,48
 573 1407 573 1407 555 1373 c 128,-1,49
 537 1339 537 1339 528.5 1304 c 128,-1,50
 520 1269 520 1269 514 1217 c 2,51,-1
 433 446 l 1,52,53
 429 401 429 401 429 362 c 0,54,55
 429 346 429 346 430 332 c 0,56,57
 432 282 432 282 463.5 250 c 128,-1,58
 495 218 495 218 558 218 c 0,33,34
EndSplineSet
EndChar

StartChar: R
Encoding: 82 82 53
Width: 1165
GlyphClass: 2
Flags: W
LayerCount: 2
UndoRedoHistory
Layer: 1
Undoes
EndUndoes
Redoes
EndRedoes
EndUndoRedoHistory
Fore
SplineSet
73 0 m 1,0,-1
 247 1658 l 1,1,-1
 660 1658 l 2,2,3
 765 1658 765 1658 844 1645.5 c 128,-1,4
 923 1633 923 1633 988 1602 c 128,-1,5
 1053 1571 1053 1571 1092 1521.5 c 0,6,7
 1132 1472 1132 1472 1148 1396 c 0,8,9
 1158 1350 1158 1350 1157 1295 c 0,10,11
 1157 1258 1157 1258 1153 1218 c 0,12,13
 1137 1062 1137 1062 1076 961 c 128,-1,14
 1015 860 1015 860 898 810 c 1,15,-1
 1058 0 l 1,16,-1
 729 0 l 1,17,-1
 603 750 l 1,18,-1
 483 750 l 1,19,-1
 404 0 l 1,20,-1
 73 0 l 1,0,-1
504 952 m 1,21,-1
 586 952 l 2,22,23
 710 952 710 952 768 1009 c 128,-1,24
 826 1066 826 1066 840 1195 c 0,25,26
 843 1226 843 1226 843 1253 c 0,27,28
 844 1334 844 1334 814 1376 c 0,29,30
 774 1432 774 1432 656 1433 c 2,31,-1
 555 1433 l 1,32,-1
 504 952 l 1,21,-1
EndSplineSet
EndChar

StartChar: S
Encoding: 83 83 54
Width: 1024
GlyphClass: 2
Flags: W
AnchorPoint: "Anchor-1" 470 0 basechar 0
LayerCount: 2
UndoRedoHistory
Layer: 1
Undoes
EndUndoes
Redoes
EndRedoes
EndUndoRedoHistory
Fore
SplineSet
496 -22 m 0,0,1
 266 -22 266 -22 166 106 c 0,2,3
 81 215 81 215 80 418 c 0,4,5
 80 454 80 454 83 494 c 1,6,-1
 375 546 l 1,7,8
 371 501 371 501 371 462 c 0,9,10
 371 231 371 231 510 231 c 0,11,12
 571 231 571 231 602.5 270 c 128,-1,13
 634 309 634 309 641 371 c 0,14,15
 643 390 643 390 643 407 c 0,16,17
 644 454 644 454 630 496 c 0,18,19
 612 552 612 552 581.5 590.5 c 128,-1,20
 551 629 551 629 494 683 c 2,21,-1
 326 844 l 2,22,23
 234 932 234 932 192 1025 c 0,24,25
 162 1093 162 1093 161 1188 c 0,26,27
 161 1222 161 1222 165 1259 c 0,28,29
 186 1459 186 1459 316 1568.5 c 128,-1,30
 446 1678 446 1678 652 1679 c 0,31,32
 655 1679 655 1679 659 1679 c 0,33,34
 751 1679 751 1679 818 1653 c 0,35,36
 888 1626 888 1626 927.5 1583.5 c 128,-1,37
 967 1541 967 1541 989.5 1478.5 c 128,-1,38
 1012 1416 1012 1416 1018 1356 c 0,39,40
 1022 1317 1022 1317 1021 1272 c 0,41,42
 1021 1248 1021 1248 1020 1221 c 1,43,-1
 730 1174 l 1,44,45
 733 1225 733 1225 733 1268 c 0,46,47
 733 1288 733 1288 732 1308 c 0,48,49
 730 1366 730 1366 702 1402 c 0,50,51
 677 1434 677 1434 628 1434 c 0,52,53
 624 1434 624 1434 619 1434 c 0,54,55
 560 1431 560 1431 524 1390.5 c 128,-1,56
 488 1350 488 1350 482 1291 c 0,57,58
 480 1276 480 1276 480 1261 c 0,59,60
 480 1220 480 1220 493 1184 c 0,61,62
 510 1135 510 1135 532 1107.5 c 128,-1,63
 554 1080 554 1080 598 1037 c 2,64,-1
 764 878 l 2,65,66
 815 828 815 828 851 781 c 128,-1,67
 887 734 887 734 917.5 674 c 128,-1,68
 948 614 948 614 960 542 c 0,69,70
 967 501 967 501 967 458 c 0,71,72
 967 425 967 425 963 390 c 0,73,74
 944 209 944 209 815 93.5 c 128,-1,75
 686 -22 686 -22 496 -22 c 0,0,1
EndSplineSet
EndChar

StartChar: T
Encoding: 84 84 55
Width: 887
GlyphClass: 2
Flags: W
AnchorPoint: "Anchor-1" 380 0 basechar 0
LayerCount: 2
UndoRedoHistory
Layer: 1
Undoes
EndUndoes
Redoes
EndRedoes
EndUndoRedoHistory
Fore
SplineSet
231 0 m 1,0,-1
 380 1414 l 1,1,-1
 112 1414 l 1,2,-1
 138 1658 l 1,3,-1
 998 1658 l 1,4,-1
 973 1414 l 1,5,-1
 711 1414 l 1,6,-1
 562 0 l 1,7,-1
 231 0 l 1,0,-1
EndSplineSet
EndChar

StartChar: U
Encoding: 85 85 56
Width: 1176
GlyphClass: 2
Flags: W
AnchorPoint: "Anchor-0" 581 0 basechar 0
LayerCount: 2
UndoRedoHistory
Layer: 1
Undoes
EndUndoes
Redoes
EndRedoes
EndUndoRedoHistory
Fore
SplineSet
536 -22 m 0,0,1
 397 -22 397 -22 306 16 c 128,-1,2
 215 54 215 54 171.5 126 c 128,-1,3
 128 198 128 198 115 303 c 0,4,5
 109 350 109 350 109 403 c 0,6,7
 109 468 109 468 118 541 c 1,8,-1
 235 1658 l 1,9,-1
 559 1658 l 1,10,-1
 438 500 l 2,11,12
 434 460 434 460 432 430 c 0,13,14
 431 415 431 415 431.5 399 c 0,15,16
 432 384 432 384 432 366 c 0,17,18
 434 332 434 332 442 308 c 128,-1,19
 450 284 450 284 464 263.5 c 128,-1,20
 478 243 478 243 503 233 c 128,-1,21
 528 223 528 223 562 223 c 0,22,23
 602 223 602 223 632.5 239 c 128,-1,24
 663 255 663 255 681.5 279 c 128,-1,25
 700 303 700 303 713 342 c 128,-1,26
 726 381 726 381 732 416 c 128,-1,27
 738 451 738 451 743 500 c 2,28,-1
 864 1658 l 1,29,-1
 1189 1658 l 1,30,-1
 1071 541 l 2,31,32
 1059 430 1059 430 1037 345.5 c 128,-1,33
 1015 261 1015 261 975 189.5 c 128,-1,34
 935 118 935 118 876.5 73 c 128,-1,35
 818 28 818 28 733 3 c 128,-1,36
 648 -22 648 -22 536 -22 c 0,0,1
EndSplineSet
EndChar

StartChar: V
Encoding: 86 86 57
Width: 1062
GlyphClass: 2
Flags: W
LayerCount: 2
UndoRedoHistory
Layer: 1
Undoes
EndUndoes
Redoes
EndRedoes
EndUndoRedoHistory
Fore
SplineSet
314 0 m 1,0,-1
 168 1658 l 1,1,-1
 456 1658 l 1,2,-1
 537 520 l 1,3,-1
 844 1658 l 1,4,-1
 1144 1658 l 1,5,-1
 647 0 l 1,6,-1
 314 0 l 1,0,-1
EndSplineSet
EndChar

StartChar: W
Encoding: 87 87 58
Width: 1453
GlyphClass: 2
Flags: W
LayerCount: 2
UndoRedoHistory
Layer: 1
Undoes
EndUndoes
Redoes
EndRedoes
EndUndoRedoHistory
Fore
SplineSet
233 0 m 1,0,-1
 186 1658 l 1,1,-1
 466 1658 l 1,2,-1
 478 637 l 1,3,-1
 739 1658 l 1,4,-1
 960 1658 l 1,5,-1
 1012 639 l 1,6,-1
 1239 1658 l 1,7,-1
 1514 1658 l 1,8,-1
 1120 0 l 1,9,-1
 844 0 l 1,10,-1
 788 1059 l 1,11,-1
 514 0 l 1,12,-1
 233 0 l 1,0,-1
EndSplineSet
EndChar

StartChar: X
Encoding: 88 88 59
Width: 1035
GlyphClass: 2
Flags: W
LayerCount: 2
UndoRedoHistory
Layer: 1
Undoes
EndUndoes
Redoes
EndRedoes
EndUndoRedoHistory
Fore
SplineSet
-33 0 m 1,0,-1
 390 886 l 1,1,-1
 153 1658 l 1,2,-1
 465 1658 l 1,3,-1
 614 1174 l 1,4,-1
 832 1658 l 1,5,-1
 1117 1658 l 1,6,-1
 721 815 l 1,7,-1
 970 0 l 1,8,-1
 660 0 l 1,9,-1
 498 528 l 1,10,-1
 250 0 l 1,11,-1
 -33 0 l 1,0,-1
EndSplineSet
EndChar

StartChar: Y
Encoding: 89 89 60
AltUni2: 0004ae.ffffffff.0
Width: 1004
GlyphClass: 2
Flags: W
LayerCount: 2
UndoRedoHistory
Layer: 1
Undoes
EndUndoes
Redoes
EndRedoes
EndUndoRedoHistory
Fore
SplineSet
296 0 m 1,0,-1
 364 652 l 1,1,-1
 142 1658 l 1,2,-1
 452 1658 l 1,3,-1
 574 1059 l 1,4,-1
 808 1658 l 1,5,-1
 1112 1658 l 1,6,-1
 681 652 l 1,7,-1
 613 0 l 1,8,-1
 296 0 l 1,0,-1
EndSplineSet
EndChar

StartChar: Z
Encoding: 90 90 61
Width: 878
GlyphClass: 2
Flags: W
LayerCount: 2
UndoRedoHistory
Layer: 1
Undoes
EndUndoes
Redoes
EndRedoes
EndUndoRedoHistory
Fore
SplineSet
21 0 m 1,0,-1
 43 209 l 1,1,-1
 594 1431 l 1,2,-1
 190 1431 l 1,3,-1
 214 1658 l 1,4,-1
 951 1658 l 1,5,-1
 933 1485 l 1,6,-1
 361 227 l 1,7,-1
 803 227 l 1,8,-1
 779 0 l 1,9,-1
 21 0 l 1,0,-1
EndSplineSet
EndChar

StartChar: bracketleft
Encoding: 91 91 62
Width: 695
GlyphClass: 2
Flags: W
LayerCount: 2
UndoRedoHistory
Layer: 1
Undoes
EndUndoes
Redoes
EndRedoes
EndUndoRedoHistory
Fore
SplineSet
22 -384 m 1,0,-1
 237 1658 l 1,1,-1
 741 1658 l 1,2,-1
 728 1532 l 1,3,-1
 479 1532 l 1,4,-1
 290 -257 l 1,5,-1
 539 -257 l 1,6,-1
 525 -384 l 1,7,-1
 22 -384 l 1,0,-1
EndSplineSet
EndChar

StartChar: backslash
Encoding: 92 92 63
Width: 836
GlyphClass: 2
Flags: W
LayerCount: 2
UndoRedoHistory
Layer: 1
Undoes
EndUndoes
Redoes
EndRedoes
EndUndoRedoHistory
Fore
SplineSet
516 0 m 1,0,-1
 204 1658 l 1,1,-1
 394 1658 l 1,2,-1
 705 0 l 1,3,-1
 516 0 l 1,0,-1
EndSplineSet
EndChar

StartChar: bracketright
Encoding: 93 93 64
Width: 660
GlyphClass: 2
Flags: W
LayerCount: 2
UndoRedoHistory
Layer: 1
Undoes
EndUndoes
Redoes
EndRedoes
EndUndoRedoHistory
Fore
SplineSet
-46 -384 m 1,0,-1
 -33 -258 l 1,1,-1
 217 -258 l 1,2,-1
 404 1531 l 1,3,-1
 155 1531 l 1,4,-1
 168 1658 l 1,5,-1
 671 1658 l 1,6,-1
 458 -384 l 1,7,-1
 -46 -384 l 1,0,-1
EndSplineSet
EndChar

StartChar: asciicircum
Encoding: 94 94 65
Width: 965
GlyphClass: 2
Flags: W
LayerCount: 2
UndoRedoHistory
Layer: 1
Undoes
EndUndoes
Redoes
EndRedoes
EndUndoRedoHistory
Fore
SplineSet
118 976 m 1,0,-1
 477 1658 l 1,1,-1
 735 1658 l 1,2,-1
 952 976 l 1,3,-1
 686 976 l 1,4,-1
 579 1406 l 1,5,-1
 383 976 l 1,6,-1
 118 976 l 1,0,-1
EndSplineSet
EndChar

StartChar: underscore
Encoding: 95 95 66
Width: 740
GlyphClass: 2
Flags: W
LayerCount: 2
UndoRedoHistory
Layer: 1
Undoes
EndUndoes
Redoes
EndRedoes
EndUndoRedoHistory
Fore
SplineSet
-84 -326 m 1,0,-1
 -63 -116 l 1,1,-1
 678 -116 l 1,2,-1
 656 -326 l 1,3,-1
 -84 -326 l 1,0,-1
EndSplineSet
EndChar

StartChar: grave
Encoding: 96 96 67
Width: 621
GlyphClass: 2
Flags: W
LayerCount: 2
UndoRedoHistory
Layer: 1
Undoes
EndUndoes
Redoes
EndRedoes
EndUndoRedoHistory
Fore
SplineSet
429 1248 m 1,0,-1
 219 1658 l 1,1,-1
 529 1658 l 1,2,-1
 609 1248 l 1,3,-1
 429 1248 l 1,0,-1
EndSplineSet
EndChar

StartChar: a
Encoding: 97 97 68
Width: 949
GlyphClass: 2
Flags: W
AnchorPoint: "Anchor-0" 714 0 basechar 0
LayerCount: 2
UndoRedoHistory
Layer: 1
Undoes
EndUndoes
Redoes
EndRedoes
EndUndoRedoHistory
Fore
SplineSet
289 -20 m 1,0,1
 210 -19 210 -19 152.5 24 c 0,2,3
 96 67 96 67 72 131 c 0,4,5
 54 180 54 180 53 234 c 0,6,7
 53 250 53 250 55 266 c 0,8,9
 60 312 60 312 73 353.5 c 128,-1,10
 86 395 86 395 102.5 428 c 128,-1,11
 119 461 119 461 146 492 c 128,-1,12
 173 523 173 523 196 545 c 128,-1,13
 219 567 219 567 256.5 590.5 c 128,-1,14
 294 614 294 614 319 628 c 128,-1,15
 344 642 344 642 387 661 c 128,-1,16
 430 680 430 680 453.5 689 c 128,-1,17
 477 698 477 698 522 714.5 c 128,-1,18
 567 731 567 731 585 738 c 1,19,-1
 596 845 l 1,20,21
 599 870 599 870 599 890 c 0,22,23
 598 924 598 924 590 944 c 0,24,25
 576 976 576 976 528 977 c 0,26,27
 446 977 446 977 431 863 c 1,28,-1
 417 783 l 1,29,-1
 130 794 l 1,30,31
 131 799 131 799 133.5 816.5 c 128,-1,32
 136 834 136 834 136 835 c 0,33,34
 169 1025 169 1025 279.5 1114 c 128,-1,35
 390 1203 390 1203 578 1203 c 0,36,37
 754 1203 754 1203 832 1107 c 0,38,39
 895 1029 895 1029 894 904 c 0,40,41
 894 875 894 875 891 843 c 2,42,-1
 833 297 l 2,43,44
 823 196 823 196 823 83 c 0,45,46
 823 42 823 42 824 0 c 1,47,-1
 551 0 l 1,48,49
 540 129 540 129 540 171 c 1,50,51
 508 90 508 90 443.5 35 c 128,-1,52
 379 -20 379 -20 289 -20 c 1,0,1
426 203 m 0,53,54
 454 203 454 203 484.5 223.5 c 128,-1,55
 515 244 515 244 536 269 c 1,56,-1
 570 593 l 1,57,58
 482 549 482 549 418.5 480 c 128,-1,59
 355 411 355 411 346 336 c 1,60,61
 345 323 345 323 345 311 c 0,62,63
 346 268 346 268 362 239 c 0,64,65
 384 203 384 203 426 203 c 0,53,54
EndSplineSet
EndChar

StartChar: b
Encoding: 98 98 69
Width: 1005
GlyphClass: 2
Flags: W
LayerCount: 2
UndoRedoHistory
Layer: 1
Undoes
EndUndoes
Redoes
EndRedoes
EndUndoRedoHistory
Fore
SplineSet
595 -20 m 0,0,1
 479 -20 479 -20 371 88 c 1,2,-1
 362 0 l 1,3,-1
 58 0 l 1,4,-1
 232 1658 l 1,5,-1
 536 1658 l 1,6,-1
 478 1095 l 1,7,8
 604 1203 604 1203 729 1203 c 0,9,-1
 736 1203 l 0,10,11
 785 1202 785 1202 823.5 1185.5 c 128,-1,12
 862 1169 862 1169 886 1140.5 c 128,-1,13
 910 1112 910 1112 927.5 1075 c 128,-1,14
 945 1038 945 1038 950.5 996 c 128,-1,15
 956 954 956 954 958 910 c 0,16,17
 959 897 959 897 959 885 c 0,18,19
 959 855 959 855 955 826 c 1,20,-1
 908 385 l 2,21,22
 896 268 896 268 859.5 179.5 c 128,-1,23
 823 91 823 91 755 35.5 c 128,-1,24
 687 -20 687 -20 595 -20 c 0,0,1
492 189 m 1,25,26
 493 189 493 189 494 189 c 0,27,28
 544 190 544 190 568 238 c 0,29,30
 592 288 592 288 602 372 c 2,31,-1
 652 843 l 2,32,33
 655 869 655 869 655 891 c 0,34,35
 655 1005 655 1005 579 1005 c 0,36,37
 576 1005 576 1005 573 1005 c 1,38,39
 524 1004 524 1004 463 962 c 1,40,-1
 385 223 l 1,41,42
 436 189 436 189 492 189 c 1,25,26
EndSplineSet
EndChar

StartChar: c
Encoding: 99 99 70
Width: 926
GlyphClass: 2
Flags: W
AnchorPoint: "Anchor-1" 380 0 basechar 0
LayerCount: 2
UndoRedoHistory
Layer: 1
Undoes
EndUndoes
Redoes
EndRedoes
EndUndoRedoHistory
Fore
SplineSet
423 -20 m 0,0,1
 224 -20 224 -20 139 90 c 0,2,3
 71 177 71 177 71 323 c 0,4,5
 71 361 71 361 76 402 c 2,6,-1
 116 783 l 2,7,8
 137 985 137 985 245 1094 c 128,-1,9
 353 1203 353 1203 551 1203 c 0,10,11
 742 1204 742 1204 826 1114 c 0,12,13
 895 1041 895 1041 894 906 c 0,14,15
 894 876 894 876 891 842 c 1,16,-1
 879 733 l 1,17,-1
 591 733 l 1,18,-1
 603 849 l 2,19,20
 606 875 606 875 606 895 c 0,21,22
 606 939 606 939 594 960 c 0,23,24
 577 991 577 991 531 991 c 0,25,26
 481 991 481 991 457.5 953.5 c 128,-1,27
 434 916 434 916 424 819 c 2,28,-1
 376 361 l 2,29,30
 372 325 372 325 372 298 c 0,31,32
 372 252 372 252 383 230 c 0,33,34
 400 196 400 196 448 195.5 c 128,-1,35
 496 195 496 195 518.5 228 c 128,-1,36
 541 261 541 261 549 332 c 2,37,-1
 563 472 l 1,38,-1
 852 472 l 1,39,-1
 839 346 l 1,40,41
 819 165 819 165 714.5 72.5 c 128,-1,42
 610 -20 610 -20 423 -20 c 0,0,1
EndSplineSet
EndChar

StartChar: d
Encoding: 100 100 71
Width: 997
GlyphClass: 2
Flags: W
LayerCount: 2
UndoRedoHistory
Layer: 1
Undoes
EndUndoes
Redoes
EndRedoes
EndUndoRedoHistory
Fore
SplineSet
318 -20 m 1,0,1
 72 -20 72 -20 72 284 c 0,2,3
 72 330 72 330 78 383 c 1,4,-1
 120 788 l 2,5,6
 133 909 133 909 169 999 c 128,-1,7
 205 1089 205 1089 275.5 1146 c 128,-1,8
 346 1203 346 1203 444 1203 c 0,9,10
 562 1203 562 1203 654 1111 c 1,11,-1
 711 1658 l 1,12,-1
 1015 1658 l 1,13,-1
 841 0 l 1,14,-1
 537 0 l 1,15,-1
 546 85 l 1,16,17
 433 -19 433 -19 318 -20 c 1,0,1
458 187 m 0,18,19
 501 187 501 187 560 218 c 1,20,-1
 639 969 l 1,21,22
 593 1000 593 1000 544 1000 c 0,23,24
 494 1000 494 1000 466.5 956 c 128,-1,25
 439 912 439 912 431 843 c 2,26,-1
 380 361 l 2,27,28
 377 333 377 333 377 309 c 0,29,30
 377 187 377 187 458 187 c 0,18,19
EndSplineSet
EndChar

StartChar: e
Encoding: 101 101 72
Width: 936
GlyphClass: 2
Flags: W
AnchorPoint: "Anchor-0" 518 0 basechar 0
LayerCount: 2
UndoRedoHistory
Layer: 1
Undoes
EndUndoes
Redoes
EndRedoes
EndUndoRedoHistory
Fore
SplineSet
426 -20 m 0,0,1
 226 -20 226 -20 140 89 c 0,2,3
 71 177 71 177 72 327 c 0,4,5
 72 364 72 364 76 404 c 2,6,-1
 115 779 l 2,7,8
 137 986 137 986 246.5 1094.5 c 128,-1,9
 356 1203 356 1203 553 1203 c 0,10,11
 755 1203 755 1203 832 1093 c 0,12,13
 891 1008 891 1008 891 860 c 0,14,15
 891 816 891 816 886 765 c 2,16,-1
 866 575 l 1,17,-1
 395 575 l 1,18,-1
 375 384 l 1,19,20
 371 336 371 336 371 298 c 0,21,22
 372 293 372 293 372 289 c 0,23,24
 372 248 372 248 390.5 224 c 128,-1,25
 409 200 409 200 448 200 c 0,26,27
 497 200 497 200 522.5 234 c 128,-1,28
 548 268 548 268 555 337 c 2,29,-1
 567 444 l 1,30,-1
 852 444 l 1,31,-1
 842 352 l 2,32,33
 823 172 823 172 716 76 c 128,-1,34
 609 -20 609 -20 426 -20 c 0,0,1
411 722 m 1,35,-1
 596 722 l 1,36,-1
 608 838 l 2,37,38
 610 862 610 862 610 881 c 0,39,40
 610 926 610 926 598 950 c 0,41,42
 580 984 580 984 529.5 984.5 c 128,-1,43
 479 985 479 985 454.5 946 c 128,-1,44
 430 907 430 907 420 809 c 2,45,-1
 411 722 l 1,35,-1
EndSplineSet
EndChar

StartChar: f
Encoding: 102 102 73
Width: 639
GlyphClass: 2
Flags: W
LayerCount: 2
UndoRedoHistory
Layer: 1
Undoes
EndUndoes
Redoes
EndRedoes
EndUndoRedoHistory
Fore
SplineSet
108 0 m 1,0,-1
 210 973 l 1,1,-1
 89 973 l 1,2,-1
 110 1184 l 1,3,-1
 232 1184 l 1,4,-1
 240 1256 l 2,5,6
 247 1328 247 1328 258 1377.5 c 128,-1,7
 269 1427 269 1427 292.5 1474.5 c 128,-1,8
 316 1522 316 1522 352.5 1550 c 128,-1,9
 389 1578 389 1578 447 1595 c 128,-1,10
 505 1612 505 1612 584 1612 c 0,11,12
 643 1612 643 1612 739 1601 c 1,13,-1
 715 1375 l 1,14,15
 645 1385 645 1385 642 1385 c 0,16,17
 557 1385 557 1385 545 1276 c 2,18,-1
 535 1184 l 1,19,-1
 694 1184 l 1,20,-1
 673 973 l 1,21,-1
 514 973 l 1,22,-1
 411 0 l 1,23,-1
 108 0 l 1,0,-1
EndSplineSet
EndChar

StartChar: g
Encoding: 103 103 74
Width: 983
GlyphClass: 2
Flags: W
LayerCount: 2
UndoRedoHistory
Layer: 1
Undoes
EndUndoes
Redoes
EndRedoes
EndUndoRedoHistory
Fore
SplineSet
444 -357 m 0,0,1
 393 -357 393 -357 354 -356 c 128,-1,2
 315 -355 315 -355 262.5 -350 c 128,-1,3
 210 -345 210 -345 171.5 -336.5 c 128,-1,4
 133 -328 133 -328 93.5 -312 c 128,-1,5
 54 -296 54 -296 29.5 -274.5 c 0,6,7
 6 -253 6 -253 -8 -220 c 0,8,9
 -18 -195 -18 -195 -19 -164 c 0,10,11
 -19 -155 -19 -155 -18 -146 c 0,12,13
 -3 -10 -3 -10 176 98 c 1,14,15
 54 144 54 144 54 232 c 1,16,17
 53 298 53 298 92.5 346.5 c 128,-1,18
 132 395 132 395 217 459 c 1,19,20
 158 508 158 508 132 580 c 0,21,22
 115 628 115 628 116 696 c 0,23,24
 116 731 116 731 120 771 c 0,25,26
 143 990 143 990 254.5 1096.5 c 128,-1,27
 366 1203 366 1203 553 1203 c 128,-1,28
 740 1203 740 1203 802 1093 c 1,29,30
 881 1177 881 1177 976 1221 c 2,31,-1
 1019 1241 l 1,32,-1
 1073 1082 l 1,33,34
 1039 1073 1039 1073 968 1045 c 128,-1,35
 897 1017 897 1017 865 998 c 1,36,37
 896 934 896 934 896 838 c 0,38,39
 896 806 896 806 893 770 c 0,40,41
 873 578 873 578 772 471 c 128,-1,42
 671 364 671 364 481 364 c 0,43,44
 443 364 443 364 391.5 373.5 c 128,-1,45
 340 383 340 383 318 393 c 1,46,47
 276 341 276 341 276 313 c 0,48,49
 276 278 276 278 379 265 c 0,50,51
 395 262 395 262 487 252 c 128,-1,52
 579 242 579 242 609 237 c 1,53,54
 766 220 766 220 828 150 c 0,55,56
 879 93 879 93 879 -7 c 0,57,58
 879 -28 879 -28 877 -50 c 1,59,60
 860 -203 860 -203 760 -280 c 128,-1,61
 660 -357 660 -357 444 -357 c 0,0,1
464 -155 m 0,62,63
 548 -155 548 -155 589 -135.5 c 128,-1,64
 630 -116 630 -116 637 -71 c 1,65,66
 640 -56 640 -56 640 -44 c 0,67,68
 640 -11 640 -11 620 6 c 0,69,70
 594 30 594 30 518 38 c 2,71,-1
 336 58 l 1,72,73
 273 -17 273 -17 268 -67 c 0,74,75
 267 -72 267 -72 267 -77 c 0,76,77
 268 -116 268 -116 304 -134 c 0,78,79
 344 -154 344 -154 464 -155 c 0,62,63
489 554 m 0,80,81
 553 554 553 554 577.5 604 c 128,-1,82
 602 654 602 654 616 782 c 1,83,84
 625 847 625 847 625 894 c 0,85,86
 624 932 624 932 618 958 c 0,87,88
 604 1014 604 1014 538 1014 c 0,89,90
 510 1014 510 1014 490 1004 c 128,-1,91
 470 994 470 994 457.5 977.5 c 128,-1,92
 445 961 445 961 436 929.5 c 128,-1,93
 427 898 427 898 422 866.5 c 128,-1,94
 417 835 417 835 412 782 c 1,95,96
 404 727 404 727 404 685 c 0,97,98
 404 644 404 644 412 614 c 0,99,100
 428 554 428 554 489 554 c 0,80,81
EndSplineSet
EndChar

StartChar: h
Encoding: 104 104 75
Width: 1008
GlyphClass: 2
Flags: W
LayerCount: 2
UndoRedoHistory
Layer: 1
Undoes
EndUndoes
Redoes
EndRedoes
EndUndoRedoHistory
Fore
SplineSet
59 0 m 1,0,-1
 233 1658 l 1,1,-1
 537 1658 l 1,2,-1
 476 1074 l 1,3,4
 624 1203 624 1203 782 1203 c 0,5,6
 884 1203 884 1203 927 1128 c 0,7,8
 961 1069 961 1069 961 987 c 0,9,10
 961 964 961 964 958 939 c 2,11,-1
 860 0 l 1,12,-1
 556 0 l 1,13,-1
 648 882 l 2,14,15
 650 898 650 898 650 912 c 0,16,17
 650 942 650 942 641 958 c 0,18,19
 628 982 628 982 586 981 c 1,20,21
 538 981 538 981 461 930 c 1,22,-1
 363 0 l 1,23,-1
 59 0 l 1,0,-1
EndSplineSet
EndChar

StartChar: i
Encoding: 105 105 76
Width: 525
GlyphClass: 2
Flags: W
AnchorPoint: "Anchor-0" 196 0 basechar 0
LayerCount: 2
UndoRedoHistory
Layer: 1
Undoes
EndUndoes
Redoes
EndRedoes
EndUndoRedoHistory
Fore
SplineSet
62 0 m 1,0,-1
 186 1184 l 1,1,-1
 490 1184 l 1,2,-1
 366 0 l 1,3,-1
 62 0 l 1,0,-1
206 1377 m 1,4,-1
 231 1612 l 1,5,-1
 536 1612 l 1,6,-1
 511 1377 l 1,7,-1
 206 1377 l 1,4,-1
EndSplineSet
EndChar

StartChar: j
Encoding: 106 106 77
Width: 539
GlyphClass: 2
Flags: W
LayerCount: 2
UndoRedoHistory
Layer: 1
Undoes
EndUndoes
Redoes
EndRedoes
EndUndoRedoHistory
Fore
SplineSet
-109 -322 m 1,0,-1
 -86 -104 l 1,1,2
 -46 -111 -46 -111 -28 -111 c 0,3,4
 71 -111 71 -111 83 0 c 2,5,-1
 207 1184 l 1,6,-1
 511 1184 l 1,7,-1
 383 -36 l 2,8,9
 369 -178 369 -178 281 -261.5 c 128,-1,10
 193 -345 193 -345 49 -345 c 0,11,12
 -35 -345 -35 -345 -109 -322 c 1,0,-1
227 1377 m 1,13,-1
 252 1612 l 1,14,-1
 558 1612 l 1,15,-1
 533 1377 l 1,16,-1
 227 1377 l 1,13,-1
EndSplineSet
EndChar

StartChar: k
Encoding: 107 107 78
Width: 1040
GlyphClass: 2
Flags: W
LayerCount: 2
UndoRedoHistory
Layer: 1
Undoes
EndUndoes
Redoes
EndRedoes
EndUndoRedoHistory
Fore
SplineSet
58 2 m 1,0,-1
 233 1660 l 1,1,-1
 535 1660 l 1,2,-1
 436 724 l 1,3,-1
 776 1184 l 1,4,-1
 1111 1184 l 1,5,-1
 761 705 l 1,6,-1
 983 0 l 1,7,-1
 658 0 l 1,8,-1
 510 573 l 1,9,-1
 408 453 l 1,10,-1
 360 2 l 1,11,-1
 58 2 l 1,0,-1
EndSplineSet
EndChar

StartChar: l
Encoding: 108 108 79
Width: 538
GlyphClass: 2
Flags: W
LayerCount: 2
UndoRedoHistory
Layer: 1
Undoes
EndUndoes
Redoes
EndRedoes
EndUndoRedoHistory
Fore
SplineSet
72 0 m 1,0,-1
 246 1658 l 1,1,-1
 550 1658 l 1,2,-1
 376 0 l 1,3,-1
 72 0 l 1,0,-1
EndSplineSet
EndChar

StartChar: m
Encoding: 109 109 80
Width: 1487
GlyphClass: 2
Flags: W
LayerCount: 2
UndoRedoHistory
Layer: 1
Undoes
EndUndoes
Redoes
EndRedoes
EndUndoRedoHistory
Fore
SplineSet
56 0 m 1,0,-1
 180 1184 l 1,1,-1
 483 1184 l 1,2,-1
 473 1083 l 1,3,4
 616 1203 616 1203 771 1203 c 0,5,6
 909 1203 909 1203 942 1064 c 1,7,8
 1093 1203 1093 1203 1260 1203 c 0,9,10
 1363 1203 1363 1203 1406 1128 c 0,11,12
 1440 1069 1440 1069 1440 987 c 0,13,14
 1440 964 1440 964 1437 939 c 2,15,-1
 1338 0 l 1,16,-1
 1035 0 l 1,17,-1
 1128 882 l 2,18,19
 1129 896 1129 896 1129 908 c 0,20,21
 1129 940 1129 940 1120 958 c 0,22,23
 1107 982 1107 982 1065 981 c 1,24,25
 1016 981 1016 981 947 937 c 0,26,27
 947 936 947 936 946 931 c 1,28,-1
 946 926 l 1,29,-1
 848 0 l 1,30,-1
 547 0 l 1,31,-1
 639 882 l 2,32,33
 641 897 641 897 641 910 c 0,34,35
 642 939 642 939 632 957 c 0,36,37
 619 981 619 981 578 981 c 0,38,39
 576 981 576 981 575 981 c 1,40,41
 528 981 528 981 458 936 c 1,42,-1
 359 0 l 1,43,-1
 56 0 l 1,0,-1
EndSplineSet
EndChar

StartChar: n
Encoding: 110 110 81
Width: 1001
GlyphClass: 2
Flags: W
LayerCount: 2
UndoRedoHistory
Layer: 1
Undoes
EndUndoes
Redoes
EndRedoes
EndUndoRedoHistory
Fore
SplineSet
56 0 m 1,0,-1
 180 1184 l 1,1,-1
 484 1184 l 1,2,-1
 472 1067 l 1,3,4
 630 1203 630 1203 775 1203 c 0,5,6
 877 1203 877 1203 920 1128 c 0,7,8
 954 1069 954 1069 954 987 c 0,9,10
 954 964 954 964 951 939 c 2,11,-1
 853 0 l 1,12,-1
 549 0 l 1,13,-1
 641 882 l 2,14,15
 643 898 643 898 643 912 c 0,16,17
 643 942 643 942 634 958 c 0,18,19
 621 982 621 982 579 981 c 1,20,21
 531 981 531 981 458 933 c 1,22,-1
 360 0 l 1,23,-1
 56 0 l 1,0,-1
EndSplineSet
EndChar

StartChar: o
Encoding: 111 111 82
Width: 956
GlyphClass: 2
Flags: W
AnchorPoint: "Anchor-0" 421 0 basechar 0
LayerCount: 2
UndoRedoHistory
Layer: 1
Undoes
EndUndoes
Redoes
EndRedoes
EndUndoRedoHistory
Fore
SplineSet
447 190 m 0,0,1
 504 190 504 190 527.5 234 c 128,-1,2
 551 278 551 278 560 363 c 2,3,-1
 608 821 l 2,4,5
 611 854 611 854 611 880 c 0,6,7
 610 922 610 922 602 950 c 0,8,9
 588 994 588 994 532 994.5 c 128,-1,10
 476 995 476 995 452.5 950 c 128,-1,11
 429 905 429 905 420 821 c 2,12,-1
 372 363 l 1,13,14
 369 324 369 324 369 291 c 0,15,16
 369 284 369 284 369 276 c 0,17,18
 370 238 370 238 389.5 214 c 128,-1,19
 409 190 409 190 447 190 c 0,0,1
425 -20 m 128,-1,21
 233 -20 233 -20 143 84 c 0,22,23
 70 169 70 169 70 313 c 0,24,25
 70 347 70 347 74 384 c 2,26,-1
 117 800 l 2,27,28
 137 994 137 994 249 1098.5 c 128,-1,29
 361 1203 361 1203 553 1203 c 0,30,31
 746 1203 746 1203 837 1099 c 0,32,33
 911 1015 911 1015 911 870 c 0,34,35
 911 837 911 837 907 800 c 2,36,-1
 864 384 l 2,37,38
 843 189 843 189 730 84.5 c 128,-1,20
 617 -20 617 -20 425 -20 c 128,-1,21
EndSplineSet
EndChar

StartChar: p
Encoding: 112 112 83
Width: 1002
GlyphClass: 2
Flags: W
LayerCount: 2
UndoRedoHistory
Layer: 1
Undoes
EndUndoes
Redoes
EndRedoes
EndUndoRedoHistory
Fore
SplineSet
15 -390 m 1,0,-1
 180 1184 l 1,1,-1
 484 1184 l 1,2,-1
 476 1095 l 1,3,4
 602 1203 602 1203 727 1203 c 0,5,-1
 734 1203 l 0,6,7
 783 1202 783 1202 821.5 1185.5 c 128,-1,8
 860 1169 860 1169 884 1140.5 c 128,-1,9
 908 1112 908 1112 925 1075 c 128,-1,10
 942 1038 942 1038 948 996 c 128,-1,11
 954 954 954 954 956 910 c 0,12,13
 956 899 956 899 956 889 c 0,14,15
 956 857 956 857 952 826 c 1,16,-1
 906 385 l 2,17,18
 887 205 887 205 807.5 92.5 c 128,-1,19
 728 -20 728 -20 592 -20 c 0,20,21
 476 -20 476 -20 369 89 c 1,22,-1
 319 -390 l 1,23,-1
 15 -390 l 1,0,-1
488 189 m 0,24,25
 524 189 524 189 548.5 215.5 c 128,-1,26
 573 242 573 242 583.5 280 c 128,-1,27
 594 318 594 318 600 372 c 2,28,-1
 649 843 l 2,29,30
 652 869 652 869 652 891 c 0,31,32
 652 1005 652 1005 575 1005 c 0,33,34
 572 1005 572 1005 569 1005 c 1,35,36
 522 1004 522 1004 461 962 c 1,37,-1
 383 223 l 1,38,39
 434 189 434 189 488 189 c 0,24,25
EndSplineSet
EndChar

StartChar: q
Encoding: 113 113 84
Width: 999
GlyphClass: 2
Flags: W
LayerCount: 2
UndoRedoHistory
Layer: 1
Undoes
EndUndoes
Redoes
EndRedoes
EndUndoRedoHistory
Fore
SplineSet
500 -390 m 1,0,-1
 550 89 l 1,1,2
 433 -19 433 -19 318 -20 c 1,3,4
 72 -20 72 -20 72 284 c 0,5,6
 72 330 72 330 78 383 c 1,7,-1
 120 788 l 2,8,9
 133 909 133 909 169 999 c 128,-1,10
 205 1089 205 1089 275.5 1146 c 128,-1,11
 346 1203 346 1203 444 1203 c 0,12,13
 563 1203 563 1203 657 1107 c 1,14,-1
 665 1184 l 1,15,-1
 969 1184 l 1,16,-1
 804 -390 l 1,17,-1
 500 -390 l 1,0,-1
460 187 m 0,18,19
 501 187 501 187 564 220 c 1,20,-1
 642 967 l 1,21,22
 592 1000 592 1000 546 1000 c 0,23,24
 495 1000 495 1000 466.5 956 c 128,-1,25
 438 912 438 912 431 843 c 2,26,-1
 380 361 l 2,27,28
 377 333 377 333 377 309 c 0,29,30
 377 187 377 187 460 187 c 0,18,19
EndSplineSet
EndChar

StartChar: r
Encoding: 114 114 85
Width: 733
GlyphClass: 2
Flags: W
LayerCount: 2
UndoRedoHistory
Layer: 1
Undoes
EndUndoes
Redoes
EndRedoes
EndUndoRedoHistory
Fore
SplineSet
60 0 m 1,0,-1
 184 1184 l 1,1,-1
 488 1184 l 1,2,-1
 469 996 l 1,3,4
 600 1199 600 1199 734 1199 c 0,5,6
 752 1199 752 1199 778 1193 c 1,7,-1
 747 908 l 1,8,9
 712 920 712 920 676 920 c 0,10,-1
 671 920 l 0,11,12
 606 918 606 918 553 887 c 128,-1,13
 500 856 500 856 447 789 c 1,14,-1
 364 0 l 1,15,-1
 60 0 l 1,0,-1
EndSplineSet
EndChar

StartChar: s
Encoding: 115 115 86
Width: 836
GlyphClass: 2
Flags: W
AnchorPoint: "Anchor-1" 370 0 basechar 0
LayerCount: 2
UndoRedoHistory
Layer: 1
Undoes
EndUndoes
Redoes
EndRedoes
EndUndoRedoHistory
Fore
SplineSet
379 -20 m 0,0,1
 84 -20 84 -20 22 289 c 1,2,-1
 252 377 l 1,3,4
 270 286 270 286 308 237 c 0,5,6
 343 191 343 191 395 191 c 0,7,8
 398 191 398 191 401 191 c 0,9,10
 440 193 440 193 468 220 c 0,11,12
 498 249 498 249 497 289 c 0,13,14
 497 344 497 344 380 454 c 2,15,-1
 263 564 l 1,16,17
 112 705 112 705 112 849 c 0,18,19
 112 867 112 867 114 885 c 1,20,21
 131 1027 131 1027 239.5 1115 c 128,-1,22
 348 1203 348 1203 495 1203 c 0,23,24
 637 1203 637 1203 720 1121.5 c 128,-1,25
 803 1040 803 1040 820 897 c 1,26,-1
 612 809 l 1,27,28
 602 884 602 884 571.5 935 c 128,-1,29
 541 986 541 986 489 988 c 0,30,31
 487 988 487 988 486 988 c 0,32,33
 446 988 446 988 420 964 c 0,34,35
 392 940 392 940 389 905 c 0,36,37
 386 883 386 883 403 853.5 c 128,-1,38
 420 824 420 824 441 801.5 c 128,-1,39
 462 779 462 779 499 744 c 1,40,-1
 616 627 l 2,41,42
 649 595 649 595 668.5 574.5 c 128,-1,43
 688 554 688 554 714 519.5 c 128,-1,44
 740 485 740 485 753 454.5 c 128,-1,45
 766 424 766 424 774 383 c 0,46,47
 779 358 779 358 779 332 c 0,48,49
 779 316 779 316 777 299 c 0,50,51
 761 149 761 149 647.5 64.5 c 128,-1,52
 534 -20 534 -20 379 -20 c 0,0,1
EndSplineSet
EndChar

StartChar: t
Encoding: 116 116 87
Width: 700
GlyphClass: 2
Flags: W
AnchorPoint: "Anchor-1" 340 0 basechar 0
LayerCount: 2
UndoRedoHistory
Layer: 1
Undoes
EndUndoes
Redoes
EndRedoes
EndUndoRedoHistory
Fore
SplineSet
387 -15 m 0,0,1
 317 -13 317 -13 266.5 7 c 128,-1,2
 216 27 216 27 188.5 62 c 128,-1,3
 161 97 161 97 146 145 c 128,-1,4
 131 193 131 193 131 249.5 c 128,-1,5
 131 306 131 306 136 370 c 1,6,-1
 201 984 l 1,7,-1
 87 984 l 1,8,-1
 107 1184 l 1,9,-1
 222 1184 l 1,10,-1
 259 1537 l 1,11,-1
 566 1537 l 1,12,-1
 528 1184 l 1,13,-1
 704 1184 l 1,14,-1
 683 984 l 1,15,-1
 508 984 l 1,16,-1
 439 334 l 2,17,18
 438 325 438 325 438 317 c 0,19,20
 438 232 438 232 535 229 c 0,21,22
 538 229 538 229 541 229 c 0,23,24
 568 229 568 229 623 237 c 1,25,-1
 598 0 l 1,26,27
 492 -15 492 -15 413 -15 c 0,28,29
 399 -15 399 -15 387 -15 c 0,0,1
EndSplineSet
EndChar

StartChar: u
Encoding: 117 117 88
Width: 995
GlyphClass: 2
Flags: W
AnchorPoint: "Anchor-0" 672 0 basechar 0
LayerCount: 2
UndoRedoHistory
Layer: 1
Undoes
EndUndoes
Redoes
EndRedoes
EndUndoRedoHistory
Fore
SplineSet
249 -19 m 0,0,1
 147 -20 147 -20 104 56 c 0,2,3
 70 115 70 115 70 198 c 0,4,5
 70 221 70 221 73 246 c 2,6,-1
 171 1184 l 1,7,-1
 475 1184 l 1,8,-1
 382 295 l 2,9,10
 380 280 380 280 380 267 c 0,11,12
 380 237 380 237 390 220 c 0,13,14
 403 196 403 196 443 196 c 0,15,16
 445 196 445 196 446 196 c 0,17,18
 492 197 492 197 559 240 c 1,19,-1
 658 1184 l 1,20,-1
 962 1184 l 1,21,-1
 838 0 l 1,22,-1
 534 0 l 1,23,-1
 546 110 l 1,24,25
 392 -19 392 -19 249 -19 c 0,0,1
EndSplineSet
EndChar

StartChar: v
Encoding: 118 118 89
Width: 843
GlyphClass: 2
Flags: W
LayerCount: 2
UndoRedoHistory
Layer: 1
Undoes
EndUndoes
Redoes
EndRedoes
EndUndoRedoHistory
Fore
SplineSet
207 0 m 1,0,-1
 98 1184 l 1,1,-1
 393 1184 l 1,2,-1
 416 371 l 1,3,-1
 605 1184 l 1,4,-1
 897 1184 l 1,5,-1
 539 0 l 1,6,-1
 207 0 l 1,0,-1
EndSplineSet
EndChar

StartChar: w
Encoding: 119 119 90
Width: 1221
GlyphClass: 2
Flags: W
LayerCount: 2
UndoRedoHistory
Layer: 1
Undoes
EndUndoes
Redoes
EndRedoes
EndUndoRedoHistory
Fore
SplineSet
176 0 m 1,0,-1
 122 1184 l 1,1,-1
 374 1184 l 1,2,-1
 393 460 l 1,3,-1
 580 1184 l 1,4,-1
 802 1184 l 1,5,-1
 827 451 l 1,6,-1
 1008 1184 l 1,7,-1
 1247 1184 l 1,8,-1
 939 0 l 1,9,-1
 681 0 l 1,10,-1
 637 706 l 1,11,-1
 437 0 l 1,12,-1
 176 0 l 1,0,-1
EndSplineSet
EndChar

StartChar: x
Encoding: 120 120 91
Width: 873
GlyphClass: 2
Flags: W
LayerCount: 2
UndoRedoHistory
Layer: 1
Undoes
EndUndoes
Redoes
EndRedoes
EndUndoRedoHistory
Fore
SplineSet
-31 0 m 1,0,-1
 291 641 l 1,1,-1
 103 1184 l 1,2,-1
 405 1184 l 1,3,-1
 512 877 l 1,4,-1
 665 1184 l 1,5,-1
 915 1184 l 1,6,-1
 608 597 l 1,7,-1
 815 0 l 1,8,-1
 512 0 l 1,9,-1
 394 343 l 1,10,-1
 231 0 l 1,11,-1
 -31 0 l 1,0,-1
EndSplineSet
EndChar

StartChar: y
Encoding: 121 121 92
Width: 882
GlyphClass: 2
Flags: W
LayerCount: 2
UndoRedoHistory
Layer: 1
Undoes
EndUndoes
Redoes
EndRedoes
EndUndoRedoHistory
Fore
SplineSet
39 -329 m 1,0,-1
 62 -114 l 1,1,2
 181 -114 181 -114 225 -90 c 0,3,4
 266 -68 266 -68 266 -0 c 0,5,6
 266 5 266 5 266 9 c 0,7,8
 265 50 265 50 244 188 c 1,9,-1
 84 1184 l 1,10,-1
 376 1184 l 1,11,-1
 447 449 l 1,12,-1
 644 1184 l 1,13,-1
 937 1184 l 1,14,-1
 526 -63 l 2,15,16
 501 -139 501 -139 457.5 -192 c 128,-1,17
 414 -245 414 -245 354 -274.5 c 128,-1,18
 294 -304 294 -304 227.5 -316.5 c 128,-1,19
 161 -329 161 -329 79 -329 c 2,20,-1
 39 -329 l 1,0,-1
EndSplineSet
EndChar

StartChar: z
Encoding: 122 122 93
Width: 776
GlyphClass: 2
Flags: W
LayerCount: 2
UndoRedoHistory
Layer: 1
Undoes
EndUndoes
Redoes
EndRedoes
EndUndoRedoHistory
Fore
SplineSet
19 0 m 1,0,-1
 40 198 l 1,1,-1
 455 961 l 1,2,-1
 149 961 l 1,3,-1
 172 1184 l 1,4,-1
 796 1184 l 1,5,-1
 777 1005 l 1,6,-1
 362 225 l 1,7,-1
 696 225 l 1,8,-1
 673 0 l 1,9,-1
 19 0 l 1,0,-1
EndSplineSet
EndChar

StartChar: braceleft
Encoding: 123 123 94
Width: 727
GlyphClass: 2
Flags: W
LayerCount: 2
UndoRedoHistory
Layer: 1
Undoes
EndUndoes
Redoes
EndRedoes
EndUndoRedoHistory
Fore
SplineSet
576 -401 m 1,0,1
 513 -401 513 -401 463.5 -398.5 c 128,-1,2
 414 -396 414 -396 372.5 -388.5 c 128,-1,3
 331 -381 331 -381 300.5 -372 c 128,-1,4
 270 -363 270 -363 246.5 -346.5 c 128,-1,5
 223 -330 223 -330 207.5 -312.5 c 128,-1,6
 192 -295 192 -295 182 -267.5 c 128,-1,7
 172 -240 172 -240 167.5 -212.5 c 128,-1,8
 163 -185 163 -185 163 -144 c 128,-1,9
 163 -103 163 -103 165.5 -64 c 128,-1,10
 168 -25 168 -25 174 30 c 2,11,-1
 196 237 l 2,12,13
 204 312 204 312 207 354 c 0,14,15
 209 386 209 386 209 415 c 0,16,17
 209 425 209 425 209 434 c 0,18,19
 208 472 208 472 202.5 488.5 c 128,-1,20
 197 505 197 505 182.5 518 c 128,-1,21
 168 531 168 531 149.5 533.5 c 128,-1,22
 131 536 131 536 99 536 c 1,23,-1
 122 751 l 1,24,25
 154 751 154 751 173 754 c 128,-1,26
 192 757 192 757 209.5 769.5 c 128,-1,27
 227 782 227 782 236 799 c 128,-1,28
 245 816 245 816 254 854 c 128,-1,29
 263 892 263 892 268.5 934.5 c 128,-1,30
 274 977 274 977 282 1051 c 2,31,-1
 304 1258 l 2,32,33
 311 1328 311 1328 318 1374 c 128,-1,34
 325 1420 325 1420 337.5 1467 c 128,-1,35
 350 1514 350 1514 366 1542.5 c 128,-1,36
 382 1571 382 1571 408.5 1599 c 128,-1,37
 435 1627 435 1627 468.5 1641.5 c 128,-1,38
 502 1656 502 1656 550.5 1668 c 128,-1,39
 599 1680 599 1680 658 1684 c 128,-1,40
 717 1688 717 1688 796 1688 c 1,41,-1
 774 1479 l 1,42,43
 742 1479 742 1479 720.5 1476.5 c 128,-1,44
 699 1474 699 1474 680.5 1469 c 128,-1,45
 662 1464 662 1464 650.5 1451.5 c 128,-1,46
 639 1439 639 1439 629.5 1424.5 c 128,-1,47
 620 1410 620 1410 614 1381.5 c 128,-1,48
 608 1353 608 1353 603.5 1323.5 c 128,-1,49
 599 1294 599 1294 594 1245 c 2,50,-1
 570 1014 l 2,51,52
 552 841 552 841 504.5 753 c 128,-1,53
 457 665 457 665 365 644 c 1,54,55
 454 623 454 623 482 534 c 0,56,57
 499 479 499 479 499 394 c 0,58,59
 499 340 499 340 492 274 c 2,60,-1
 468 42 l 2,61,62
 463 -6 463 -6 461 -36.5 c 128,-1,63
 459 -67 459 -67 459.5 -94.5 c 128,-1,64
 460 -122 460 -122 466 -137 c 128,-1,65
 472 -152 472 -152 480.5 -164.5 c 128,-1,66
 489 -177 489 -177 506.5 -182 c 128,-1,67
 524 -187 524 -187 545 -189.5 c 128,-1,68
 566 -192 566 -192 598 -192 c 1,69,-1
 576 -401 l 1,0,1
EndSplineSet
EndChar

StartChar: bar
Encoding: 124 124 95
Width: 527
GlyphClass: 2
Flags: W
LayerCount: 2
UndoRedoHistory
Layer: 1
Undoes
EndUndoes
Redoes
EndRedoes
EndUndoRedoHistory
Fore
SplineSet
48 -348 m 1,0,-1
 259 1659 l 1,1,-1
 517 1659 l 1,2,-1
 306 -348 l 1,3,-1
 48 -348 l 1,0,-1
EndSplineSet
EndChar

StartChar: braceright
Encoding: 125 125 96
Width: 751
GlyphClass: 2
Flags: W
LayerCount: 2
UndoRedoHistory
Layer: 1
Undoes
EndUndoes
Redoes
EndRedoes
EndUndoRedoHistory
Fore
SplineSet
-10 -401 m 1,0,-1
 13 -192 l 1,1,2
 45 -192 45 -192 66.5 -189.5 c 128,-1,3
 88 -187 88 -187 106.5 -182 c 128,-1,4
 125 -177 125 -177 136.5 -164.5 c 128,-1,5
 148 -152 148 -152 157.5 -137.5 c 128,-1,6
 167 -123 167 -123 173 -94.5 c 128,-1,7
 179 -66 179 -66 183.5 -36.5 c 128,-1,8
 188 -7 188 -7 193 42 c 2,9,-1
 217 274 l 2,10,11
 235 446 235 446 283 534.5 c 128,-1,12
 331 623 331 623 423 644 c 1,13,14
 335 666 335 666 306 754 c 0,15,16
 288 809 288 809 288 895 c 0,17,18
 288 949 288 949 295 1014 c 2,19,-1
 319 1245 l 2,20,21
 324 1293 324 1293 326 1323.5 c 128,-1,22
 328 1354 328 1354 327.5 1381.5 c 128,-1,23
 327 1409 327 1409 321 1424 c 128,-1,24
 315 1439 315 1439 306.5 1451.5 c 128,-1,25
 298 1464 298 1464 280.5 1469 c 128,-1,26
 263 1474 263 1474 242 1476.5 c 128,-1,27
 221 1479 221 1479 189 1479 c 1,28,-1
 211 1688 l 1,29,30
 337 1688 337 1688 414 1675.5 c 128,-1,31
 491 1663 491 1663 540 1633.5 c 128,-1,32
 589 1604 589 1604 605 1555 c 128,-1,33
 621 1506 621 1506 624 1432 c 0,34,35
 625 1419 625 1419 625 1405 c 0,36,37
 625 1340 625 1340 613 1258 c 1,38,-1
 591 1051 l 2,39,40
 584 976 584 976 580 934 c 0,41,42
 577 901 577 901 577 871 c 0,43,44
 577 862 577 862 577 854 c 0,45,46
 578 816 578 816 583.5 799 c 128,-1,47
 589 782 589 782 603.5 769.5 c 128,-1,48
 618 757 618 757 637 754 c 128,-1,49
 656 751 656 751 688 751 c 1,50,-1
 665 536 l 1,51,52
 633 536 633 536 613.5 533.5 c 128,-1,53
 594 531 594 531 577 518 c 128,-1,54
 560 505 560 505 551 488.5 c 128,-1,55
 542 472 542 472 533 434 c 128,-1,56
 524 396 524 396 518.5 353.5 c 128,-1,57
 513 311 513 311 505 237 c 2,58,-1
 483 30 l 2,59,60
 473 -64 473 -64 463 -120.5 c 128,-1,61
 453 -177 453 -177 431 -231 c 128,-1,62
 409 -285 409 -285 378 -313 c 128,-1,63
 347 -341 347 -341 293 -363.5 c 128,-1,64
 239 -386 239 -386 167 -393.5 c 128,-1,65
 95 -401 95 -401 -10 -401 c 1,0,-1
EndSplineSet
EndChar

StartChar: asciitilde
Encoding: 126 126 97
Width: 973
GlyphClass: 2
Flags: W
LayerCount: 2
UndoRedoHistory
Layer: 1
Undoes
EndUndoes
Redoes
EndRedoes
EndUndoRedoHistory
Fore
SplineSet
679 699 m 0,0,1
 631 699 631 699 568 729 c 128,-1,2
 505 759 505 759 448 789 c 128,-1,3
 391 819 391 819 357 819 c 0,4,5
 331 819 331 819 286.5 793 c 128,-1,6
 242 767 242 767 204 727 c 1,7,-1
 119 859 l 1,8,9
 171 926 171 926 248 982.5 c 128,-1,10
 325 1039 325 1039 383 1039 c 0,11,12
 431 1039 431 1039 493.5 1009.5 c 128,-1,13
 556 980 556 980 612.5 950.5 c 128,-1,14
 669 921 669 921 702 921 c 0,15,16
 752 921 752 921 853 1014 c 1,17,-1
 948 897 l 1,18,19
 900 823 900 823 821 761 c 128,-1,20
 742 699 742 699 679 699 c 0,0,1
EndSplineSet
EndChar

StartChar: exclamdown
Encoding: 161 161 99
Width: 468
GlyphClass: 2
Flags: W
LayerCount: 2
UndoRedoHistory
Layer: 1
Undoes
EndUndoes
Redoes
EndRedoes
EndUndoRedoHistory
Fore
SplineSet
-3 -330 m 1,0,-1
 236 925 l 1,1,-1
 342 925 l 1,2,-1
 300 -330 l 1,3,-1
 -3 -330 l 1,0,-1
156 1037 m 1,4,-1
 187 1326 l 1,5,-1
 478 1326 l 1,6,-1
 447 1037 l 1,7,-1
 156 1037 l 1,4,-1
EndSplineSet
EndChar

StartChar: cent
Encoding: 162 162 100
Width: 891
GlyphClass: 2
Flags: W
LayerCount: 2
UndoRedoHistory
Layer: 1
Undoes
EndUndoes
Redoes
EndRedoes
EndUndoRedoHistory
Fore
SplineSet
339 -230 m 1,0,-1
 362 -17 l 1,1,2
 195 0 195 0 124 108 c 0,3,4
 69 192 69 192 69 324 c 0,5,6
 69 361 69 361 73 402 c 2,7,-1
 113 783 l 2,8,9
 132 969 132 969 226 1076.5 c 128,-1,10
 320 1184 320 1184 490 1201 c 1,11,-1
 511 1411 l 1,12,-1
 593 1411 l 1,13,-1
 571 1203 l 1,14,15
 750 1198 750 1198 828 1109 c 0,16,17
 891 1037 891 1037 891 906 c 0,18,19
 891 876 891 876 888 842 c 1,20,-1
 876 733 l 1,21,-1
 588 733 l 1,22,-1
 599 844 l 1,23,24
 602 872 602 872 602 894 c 0,25,26
 602 935 602 935 591 955 c 0,27,28
 574 986 574 986 527 986 c 0,29,30
 477 986 477 986 454 948.5 c 128,-1,31
 431 911 431 911 421 814 c 2,32,-1
 374 366 l 2,33,34
 370 330 370 330 370 303 c 0,35,36
 370 257 370 257 381 235 c 0,37,38
 398 200 398 200 445 200 c 0,39,40
 493 200 493 200 515.5 233 c 128,-1,41
 538 266 538 266 546 337 c 2,42,-1
 560 472 l 1,43,-1
 849 472 l 1,44,-1
 836 346 l 1,45,46
 798 -9 798 -9 443 -19 c 1,47,-1
 421 -230 l 1,48,-1
 339 -230 l 1,0,-1
EndSplineSet
EndChar

StartChar: sterling
Encoding: 163 163 101
Width: 948
GlyphClass: 2
Flags: W
LayerCount: 2
UndoRedoHistory
Layer: 1
Undoes
EndUndoes
Redoes
EndRedoes
EndUndoRedoHistory
Fore
SplineSet
-22 0 m 1,0,-1
 -4 167 l 1,1,-1
 124 225 l 1,2,-1
 171 673 l 1,3,-1
 50 673 l 1,4,-1
 74 908 l 1,5,-1
 195 908 l 1,6,-1
 214 1090 l 2,7,8
 222 1166 222 1166 231 1224 c 128,-1,9
 240 1282 240 1282 256.5 1346.5 c 128,-1,10
 273 1411 273 1411 294.5 1457 c 128,-1,11
 316 1503 316 1503 350 1547.5 c 128,-1,12
 384 1592 384 1592 427 1619 c 128,-1,13
 470 1646 470 1646 530 1662.5 c 128,-1,14
 590 1679 590 1679 663 1679 c 0,15,16
 745 1679 745 1679 804.5 1658.5 c 128,-1,17
 864 1638 864 1638 898.5 1600.5 c 128,-1,18
 933 1563 933 1563 952.5 1511 c 128,-1,19
 972 1459 972 1459 974 1395 c 0,20,21
 974 1379 974 1379 974 1362 c 0,22,23
 974 1312 974 1312 970 1258 c 1,24,-1
 964 1201 l 1,25,-1
 708 1201 l 1,26,27
 713 1261 713 1261 715 1311 c 0,28,29
 715 1316 715 1316 715 1320 c 0,30,31
 715 1364 715 1364 698 1394 c 0,32,33
 679 1426 679 1426 638 1426 c 0,34,35
 613 1426 613 1426 594 1412 c 128,-1,36
 575 1398 575 1398 563.5 1377.5 c 128,-1,37
 552 1357 552 1357 542.5 1319 c 128,-1,38
 533 1281 533 1281 528.5 1250 c 128,-1,39
 524 1219 524 1219 518 1166 c 2,40,-1
 491 907 l 1,41,-1
 731 907 l 1,42,-1
 707 673 l 1,43,-1
 467 673 l 1,44,-1
 422 250 l 1,45,-1
 858 250 l 1,46,-1
 831 0 l 1,47,-1
 -22 0 l 1,0,-1
EndSplineSet
EndChar

StartChar: currency
Encoding: 164 164 102
Width: 1138
GlyphClass: 2
Flags: W
LayerCount: 2
UndoRedoHistory
Layer: 1
Undoes
EndUndoes
Redoes
EndRedoes
EndUndoRedoHistory
Fore
SplineSet
104 381 m 1,0,-1
 77 411 l 1,1,-1
 257 573 l 1,2,3
 174 678 174 678 174 815 c 0,4,5
 174 840 174 840 177 866 c 0,6,7
 195 1035 195 1035 319 1159 c 1,8,-1
 173 1321 l 1,9,-1
 206 1351 l 1,10,-1
 351 1189 l 1,11,12
 486 1304 486 1304 653 1304 c 0,13,14
 654 1304 654 1304 655.5 1304 c 129,-1,15
 657 1304 657 1304 659 1304 c 0,16,17
 828 1304 828 1304 937 1189 c 1,18,-1
 1116 1351 l 1,19,-1
 1143 1321 l 1,20,-1
 964 1159 l 1,21,22
 1046 1054 1046 1054 1046 918 c 0,23,24
 1046 893 1046 893 1043 866 c 0,25,26
 1025 697 1025 697 901 573 c 1,27,-1
 1047 411 l 1,28,-1
 1014 381 l 1,29,-1
 869 543 l 1,30,31
 736 428 736 428 567 428 c 0,32,33
 566 428 566 428 564.5 428 c 129,-1,34
 563 428 563 428 561 428 c 0,35,36
 394 428 394 428 283 543 c 1,37,-1
 104 381 l 1,0,-1
574 521 m 128,-1,39
 715 521 715 521 822.5 622 c 128,-1,40
 930 723 930 723 945 866 c 0,41,42
 947 887 947 887 947 908 c 0,43,44
 947 1024 947 1024 874 1110 c 0,45,46
 788 1211 788 1211 646 1211 c 0,47,48
 505 1211 505 1211 398 1110 c 128,-1,49
 291 1009 291 1009 276 866 c 0,50,51
 274 845 274 845 274 824 c 0,52,53
 274 708 274 708 347 622 c 0,54,38
 433 521 433 521 574 521 c 128,-1,39
EndSplineSet
EndChar

StartChar: yen
Encoding: 165 165 103
Width: 967
GlyphClass: 2
Flags: W
LayerCount: 2
UndoRedoHistory
Layer: 1
Undoes
EndUndoes
Redoes
EndRedoes
EndUndoRedoHistory
Fore
SplineSet
286 0 m 1,0,-1
 312 242 l 1,1,-1
 140 242 l 1,2,-1
 157 405 l 1,3,-1
 329 405 l 1,4,-1
 343 535 l 1,5,-1
 171 535 l 1,6,-1
 188 701 l 1,7,-1
 324 701 l 1,8,-1
 133 1658 l 1,9,-1
 443 1658 l 1,10,-1
 556 984 l 1,11,-1
 799 1658 l 1,12,-1
 1102 1658 l 1,13,-1
 713 701 l 1,14,-1
 849 701 l 1,15,-1
 832 535 l 1,16,-1
 660 535 l 1,17,-1
 646 405 l 1,18,-1
 818 405 l 1,19,-1
 801 242 l 1,20,-1
 629 242 l 1,21,-1
 603 0 l 1,22,-1
 286 0 l 1,0,-1
EndSplineSet
EndChar

StartChar: brokenbar
Encoding: 166 166 104
Width: 444
GlyphClass: 2
Flags: W
LayerCount: 2
UndoRedoHistory
Layer: 1
Undoes
EndUndoes
Redoes
EndRedoes
EndUndoRedoHistory
Fore
SplineSet
26 -348 m 1,0,-1
 114 487 l 1,1,-1
 333 487 l 1,2,-1
 245 -348 l 1,3,-1
 26 -348 l 1,0,-1
149 824 m 1,4,-1
 236 1658 l 1,5,-1
 456 1658 l 1,6,-1
 369 824 l 1,7,-1
 149 824 l 1,4,-1
EndSplineSet
EndChar

StartChar: section
Encoding: 167 167 105
Width: 944
GlyphClass: 2
Flags: W
LayerCount: 2
UndoRedoHistory
Layer: 1
Undoes
EndUndoes
Redoes
EndRedoes
EndUndoRedoHistory
Fore
SplineSet
416 -15 m 0,0,1
 264 -15 264 -15 181 76 c 128,-1,2
 98 167 98 167 78 315 c 1,3,-1
 293 374 l 1,4,5
 310 309 310 309 347.5 259 c 128,-1,6
 385 209 385 209 444 209 c 0,7,8
 498 209 498 209 532.5 235 c 128,-1,9
 567 261 567 261 574 308 c 0,10,11
 576 320 576 320 576 332 c 0,12,13
 576 370 576 370 556 400 c 0,14,15
 530 440 530 440 463 484 c 2,16,-1
 276 605 l 2,17,18
 200 655 200 655 162 719 c 0,19,20
 135 766 135 766 135 827 c 0,21,22
 135 850 135 850 139 875 c 0,23,24
 153 967 153 967 208 1032 c 128,-1,25
 263 1097 263 1097 339 1124 c 1,26,27
 271 1165 271 1165 225 1235 c 0,28,29
 184 1297 184 1297 184 1367 c 0,30,31
 184 1376 184 1376 185 1386 c 0,32,33
 191 1483 191 1483 249.5 1556 c 128,-1,34
 308 1629 308 1629 398.5 1665.5 c 128,-1,35
 489 1702 489 1702 598 1702 c 0,36,37
 751 1702 751 1702 837.5 1610.5 c 128,-1,38
 924 1519 924 1519 943 1370 c 1,39,-1
 732 1314 l 1,40,41
 725 1348 725 1348 715 1374.5 c 128,-1,42
 705 1401 705 1401 688 1427.5 c 128,-1,43
 671 1454 671 1454 643.5 1468.5 c 128,-1,44
 616 1483 616 1483 581 1483 c 0,45,46
 530 1482 530 1482 498 1456 c 128,-1,47
 466 1430 466 1430 461 1381 c 0,48,49
 458 1356 458 1356 465.5 1335 c 128,-1,50
 473 1314 473 1314 492 1296 c 128,-1,51
 511 1278 511 1278 521.5 1270 c 128,-1,52
 532 1262 532 1262 554 1248 c 2,53,-1
 736 1128 l 1,54,55
 880 1032 880 1032 880 880 c 0,56,57
 880 863 880 863 878 845 c 0,58,59
 869 761 869 761 822 701.5 c 128,-1,60
 775 642 775 642 694 595 c 1,61,62
 770 529 770 529 804 465 c 0,63,64
 831 414 831 414 831 351 c 0,65,66
 831 334 831 334 829 317 c 0,67,68
 813 165 813 165 702 75 c 128,-1,69
 591 -15 591 -15 416 -15 c 0,0,1
541 723 m 1,70,71
 629 767 629 767 636 831 c 1,72,73
 636 836 636 836 636 841 c 0,74,75
 636 898 636 898 583 933 c 2,76,-1
 492 993 l 1,77,78
 451 977 451 977 422.5 946.5 c 128,-1,79
 394 916 394 916 390 877 c 0,80,81
 390 873 390 873 390 869 c 0,82,83
 390 848 390 848 398 828 c 0,84,85
 408 804 408 804 427 793 c 2,86,-1
 541 723 l 1,70,71
EndSplineSet
EndChar

StartChar: dieresis
Encoding: 168 168 106
Width: 857
GlyphClass: 2
Flags: W
LayerCount: 2
UndoRedoHistory
Layer: 1
Undoes
EndUndoes
Redoes
EndRedoes
EndUndoRedoHistory
Fore
SplineSet
186 1376 m 1,0,-1
 216 1658 l 1,1,-1
 475 1658 l 1,2,-1
 445 1376 l 1,3,-1
 186 1376 l 1,0,-1
601 1376 m 1,4,-1
 631 1658 l 1,5,-1
 890 1658 l 1,6,-1
 861 1376 l 1,7,-1
 601 1376 l 1,4,-1
EndSplineSet
EndChar

StartChar: copyright
Encoding: 169 169 107
Width: 1795
GlyphClass: 2
Flags: W
LayerCount: 2
UndoRedoHistory
Layer: 1
Undoes
EndUndoes
Redoes
EndRedoes
EndUndoRedoHistory
Fore
SplineSet
876 254 m 0,0,1
 660 254 660 254 566 364 c 0,2,3
 490 453 490 453 490 601 c 0,4,5
 490 636 490 636 494 675 c 1,6,-1
 529 1013 l 2,7,8
 550 1214 550 1214 666.5 1323 c 128,-1,9
 783 1432 783 1432 1000 1432 c 0,10,11
 1208 1432 1208 1432 1300 1343 c 0,12,13
 1377 1269 1377 1269 1377 1132 c 0,14,15
 1377 1104 1377 1104 1374 1073 c 1,16,-1
 1363 977 l 1,17,-1
 1052 977 l 1,18,-1
 1063 1075 l 2,19,20
 1065 1098 1065 1098 1065 1117 c 0,21,22
 1065 1164 1065 1164 1051 1187 c 0,23,24
 1031 1219 1031 1219 980 1219 c 0,25,26
 925 1219 925 1219 897.5 1180.5 c 128,-1,27
 870 1142 870 1142 860 1045 c 2,28,-1
 817 638 l 2,29,30
 814 606 814 606 814 581 c 0,31,32
 814 529 814 529 828 505 c 0,33,34
 848 469 848 469 901 469 c 0,35,36
 955 469 955 469 980.5 503 c 128,-1,37
 1006 537 1006 537 1014 608 c 1,38,-1
 1025 720 l 1,39,-1
 1336 720 l 1,40,-1
 1326 617 l 1,41,42
 1307 438 1307 438 1194 346 c 128,-1,43
 1081 254 1081 254 876 254 c 0,0,1
858 61 m 0,44,45
 1003 61 1003 61 1128.5 104.5 c 128,-1,46
 1254 148 1254 148 1345 221.5 c 128,-1,47
 1436 295 1436 295 1503.5 395 c 128,-1,48
 1571 495 1571 495 1609 605.5 c 128,-1,49
 1647 716 1647 716 1660 835 c 1,50,51
 1665 889 1665 889 1665 942 c 0,52,53
 1666 1005 1666 1005 1658 1065 c 0,54,55
 1644 1175 1644 1175 1596.5 1274 c 128,-1,56
 1549 1373 1549 1373 1474 1446 c 128,-1,57
 1399 1519 1399 1519 1283 1562 c 128,-1,58
 1167 1605 1167 1605 1021 1605 c 128,-1,59
 875 1605 875 1605 749.5 1562 c 128,-1,60
 624 1519 624 1519 533.5 1446 c 128,-1,61
 443 1373 443 1373 375 1274 c 128,-1,62
 307 1175 307 1175 269.5 1065 c 128,-1,63
 232 955 232 955 219 835 c 0,64,65
 213 780 213 780 213 726 c 0,66,67
 213 664 213 664 221 606 c 0,68,69
 236 496 236 496 282.5 395.5 c 128,-1,70
 329 295 329 295 404 221.5 c 128,-1,71
 479 148 479 148 595.5 104.5 c 128,-1,72
 712 61 712 61 858 61 c 0,44,45
846 -25 m 128,-1,74
 677 -25 677 -25 543 25 c 128,-1,75
 409 75 409 75 324.5 158.5 c 128,-1,76
 240 242 240 242 188 354 c 128,-1,77
 136 466 136 466 120 587 c 0,78,79
 111 654 111 654 111 723 c 0,80,81
 111 779 111 779 117 836 c 0,82,83
 130 964 130 964 171.5 1085 c 128,-1,84
 213 1206 213 1206 288.5 1318 c 128,-1,85
 364 1430 364 1430 466.5 1513 c 128,-1,86
 569 1596 569 1596 713.5 1646 c 128,-1,87
 858 1696 858 1696 1027 1696 c 128,-1,88
 1196 1696 1196 1696 1329.5 1646 c 128,-1,89
 1463 1596 1463 1596 1547 1513 c 128,-1,90
 1631 1430 1631 1430 1683 1318 c 128,-1,91
 1735 1206 1735 1206 1751 1085 c 0,92,93
 1760 1018 1760 1018 1760 949 c 0,94,95
 1760 893 1760 893 1754 836 c 0,96,97
 1740 708 1740 708 1699 587 c 128,-1,98
 1658 466 1658 466 1582.5 354 c 128,-1,99
 1507 242 1507 242 1405.5 158.5 c 128,-1,100
 1304 75 1304 75 1159.5 25 c 128,-1,73
 1015 -25 1015 -25 846 -25 c 128,-1,74
EndSplineSet
EndChar

StartChar: ordfeminine
Encoding: 170 170 108
Width: 970
GlyphClass: 2
Flags: W
LayerCount: 2
UndoRedoHistory
Layer: 1
Undoes
EndUndoes
Redoes
EndRedoes
EndUndoRedoHistory
Fore
SplineSet
389 643 m 0,0,1
 279 644 279 644 221 714 c 0,2,3
 172 774 172 774 172 854 c 0,4,5
 172 868 172 868 173 882 c 0,6,7
 178 929 178 929 195 970 c 128,-1,8
 212 1011 212 1011 233.5 1041 c 128,-1,9
 255 1071 255 1071 291.5 1099 c 128,-1,10
 328 1127 328 1127 356.5 1144.5 c 128,-1,11
 385 1162 385 1162 431.5 1181 c 128,-1,12
 478 1200 478 1200 505.5 1209.5 c 128,-1,13
 533 1219 533 1219 582 1235 c 128,-1,14
 631 1251 631 1251 650 1257 c 1,15,-1
 662 1368 l 1,16,17
 663 1383 663 1383 663 1396 c 0,18,19
 663 1480 663 1480 607 1480 c 0,20,21
 565 1480 565 1480 545 1442.5 c 128,-1,22
 525 1405 525 1405 510 1320 c 1,23,-1
 252 1326 l 1,24,25
 272 1500 272 1500 375.5 1591.5 c 128,-1,26
 479 1683 479 1683 648 1683 c 0,27,28
 932 1683 932 1683 932 1402 c 0,29,30
 932 1368 932 1368 928 1331 c 1,31,-1
 858 658 l 1,32,-1
 616 658 l 1,33,-1
 618 794 l 1,34,35
 584 728 584 728 524 685.5 c 128,-1,36
 464 643 464 643 389 643 c 0,0,1
510 836 m 0,37,38
 538 836 538 836 565.5 854 c 128,-1,39
 593 872 593 872 612 899 c 1,40,-1
 638 1148 l 1,41,42
 558 1111 558 1111 502.5 1053.5 c 128,-1,43
 447 996 447 996 441 936 c 0,44,45
 440 926 440 926 440 918 c 0,46,47
 440 885 440 885 455 863 c 0,48,49
 474 836 474 836 510 836 c 0,37,38
EndSplineSet
EndChar

StartChar: guillemotleft
Encoding: 171 171 109
Width: 984
GlyphClass: 2
Flags: W
LayerCount: 2
UndoRedoHistory
Layer: 1
Undoes
EndUndoes
Redoes
EndRedoes
EndUndoRedoHistory
Fore
SplineSet
407 67 m 1,0,-1
 78 546 l 1,1,-1
 90 663 l 1,2,-1
 520 1142 l 1,3,-1
 487 826 l 1,4,-1
 274 604 l 1,5,-1
 440 382 l 1,6,-1
 407 67 l 1,0,-1
843 67 m 1,7,-1
 513 546 l 1,8,-1
 525 663 l 1,9,-1
 956 1142 l 1,10,-1
 923 826 l 1,11,-1
 710 604 l 1,12,-1
 876 382 l 1,13,-1
 843 67 l 1,7,-1
EndSplineSet
EndChar

StartChar: logicalnot
Encoding: 172 172 110
Width: 952
GlyphClass: 2
Flags: W
LayerCount: 2
UndoRedoHistory
Layer: 1
Undoes
EndUndoes
Redoes
EndRedoes
EndUndoRedoHistory
Fore
SplineSet
716 450 m 1,0,-1
 747 742 l 1,1,-1
 119 742 l 1,2,-1
 141 953 l 1,3,-1
 919 953 l 1,4,-1
 866 450 l 1,5,-1
 716 450 l 1,0,-1
EndSplineSet
EndChar

StartChar: uni00AD
Encoding: 173 173 111
Width: 745
GlyphClass: 2
Flags: W
LayerCount: 2
UndoRedoHistory
Layer: 1
Undoes
EndUndoes
Redoes
EndRedoes
EndUndoRedoHistory
Fore
SplineSet
151 695 m 1,0,-1
 172 898 l 1,1,-1
 672 898 l 1,2,-1
 651 695 l 1,3,-1
 151 695 l 1,0,-1
EndSplineSet
EndChar

StartChar: registered
Encoding: 174 174 112
Width: 1824
GlyphClass: 2
Flags: W
LayerCount: 2
UndoRedoHistory
Layer: 1
Undoes
EndUndoes
Redoes
EndRedoes
EndUndoRedoHistory
Fore
SplineSet
558 312 m 1,0,-1
 668 1354 l 1,1,-1
 1001 1354 l 2,2,3
 1188 1354 1188 1354 1272 1286 c 0,4,5
 1343 1229 1343 1229 1343 1109 c 0,6,7
 1343 1086 1343 1086 1340 1061 c 0,8,9
 1330 963 1330 963 1287 902.5 c 128,-1,10
 1244 842 1244 842 1158 804 c 1,11,-1
 1291 312 l 1,12,-1
 1028 312 l 1,13,-1
 927 754 l 1,14,-1
 856 754 l 1,15,-1
 809 312 l 1,16,-1
 558 312 l 1,0,-1
869 883 m 1,17,-1
 910 883 l 2,18,19
 1006 883 1006 883 1047.5 922.5 c 128,-1,20
 1089 962 1089 962 1098 1050 c 0,21,22
 1100 1066 1100 1066 1100 1080 c 0,23,24
 1100 1202 1100 1202 975 1202 c 2,25,-1
 902 1202 l 1,26,-1
 869 883 l 1,17,-1
871 81 m 0,27,28
 1010 81 1010 81 1130 123 c 128,-1,29
 1250 165 1250 165 1336.5 236 c 128,-1,30
 1423 307 1423 307 1487.5 403 c 128,-1,31
 1552 499 1552 499 1588.5 606 c 128,-1,32
 1625 713 1625 713 1637 827 c 0,33,34
 1643 880 1643 880 1643 931 c 0,35,36
 1643 990 1643 990 1635 1048 c 0,37,38
 1621 1154 1621 1154 1576.5 1250 c 128,-1,39
 1532 1346 1532 1346 1460 1417 c 128,-1,40
 1388 1488 1388 1488 1277 1529.5 c 128,-1,41
 1166 1571 1166 1571 1027 1571 c 0,42,43
 887 1571 887 1571 766.5 1529.5 c 128,-1,44
 646 1488 646 1488 559 1417 c 128,-1,45
 472 1346 472 1346 407 1250.5 c 128,-1,46
 342 1155 342 1155 306 1048.5 c 128,-1,47
 270 942 270 942 258 827 c 0,48,49
 252 774 252 774 252 723 c 0,50,51
 252 662 252 662 260 606 c 0,52,53
 274 500 274 500 318.5 403.5 c 128,-1,54
 363 307 363 307 435 236 c 128,-1,55
 507 165 507 165 619 123 c 128,-1,56
 731 81 731 81 871 81 c 0,27,28
860 -28 m 0,57,58
 692 -28 692 -28 558.5 22 c 128,-1,59
 425 72 425 72 341 155 c 128,-1,60
 257 238 257 238 205 349.5 c 0,61,62
 154 461 154 461 138 581 c 0,63,64
 130 646 130 646 129 714 c 0,65,66
 129 770 129 770 135 828 c 0,67,68
 148 956 148 956 189 1076 c 128,-1,69
 230 1196 230 1196 305.5 1307.5 c 128,-1,70
 381 1419 381 1419 482.5 1502 c 128,-1,71
 584 1585 584 1585 728 1634.5 c 128,-1,72
 872 1684 872 1684 1040 1684 c 0,73,74
 1146 1684 1146 1684 1238.5 1664 c 128,-1,75
 1331 1644 1331 1644 1402.5 1608 c 128,-1,76
 1474 1572 1474 1572 1534 1522 c 128,-1,77
 1594 1472 1594 1472 1634.5 1411 c 128,-1,78
 1675 1350 1675 1350 1705.5 1280.5 c 128,-1,79
 1736 1211 1736 1211 1749.5 1136 c 128,-1,80
 1763 1061 1763 1061 1768 983 c 0,81,82
 1770 957 1770 957 1770 931 c 0,83,84
 1770 879 1770 879 1763 828 c 1,85,86
 1752 722 1752 722 1721 621 c 128,-1,87
 1690 520 1690 520 1639 423 c 128,-1,88
 1588 326 1588 326 1512.5 245 c 128,-1,89
 1437 164 1437 164 1343 102.5 c 128,-1,90
 1249 41 1249 41 1125 6.5 c 128,-1,91
 1001 -28 1001 -28 860 -28 c 0,57,58
EndSplineSet
EndChar

StartChar: macron
Encoding: 175 175 113
Width: 435
GlyphClass: 2
Flags: W
LayerCount: 2
UndoRedoHistory
Layer: 1
Undoes
EndUndoes
Redoes
EndRedoes
EndUndoRedoHistory
Fore
SplineSet
96 1506 m 1,0,-1
 112 1658 l 1,1,-1
 594 1658 l 1,2,-1
 578 1506 l 1,3,-1
 96 1506 l 1,0,-1
EndSplineSet
EndChar

StartChar: degree
Encoding: 176 176 114
Width: 1057
GlyphClass: 2
Flags: W
LayerCount: 2
UndoRedoHistory
Layer: 1
Undoes
EndUndoes
Redoes
EndRedoes
EndUndoRedoHistory
Fore
SplineSet
591 1072 m 0,0,1
 683 1072 683 1072 740.5 1132 c 128,-1,2
 798 1192 798 1192 808 1289 c 0,3,4
 810 1306 810 1306 810 1323 c 0,5,6
 810 1396 810 1396 773 1444 c 0,7,8
 728 1503 728 1503 636 1503 c 128,-1,9
 544 1503 544 1503 487 1444.5 c 128,-1,10
 430 1386 430 1386 420 1289 c 0,11,12
 418 1271 418 1271 418 1255 c 0,13,14
 418 1181 418 1181 455 1132 c 0,15,16
 500 1072 500 1072 591 1072 c 0,0,1
572 898 m 0,17,18
 392 898 392 898 296 1004 c 0,19,20
 216 1093 216 1093 216 1232 c 0,21,22
 216 1260 216 1260 219 1289 c 0,23,24
 238 1467 238 1467 356 1573 c 128,-1,25
 474 1679 474 1679 654 1679 c 0,26,27
 835 1679 835 1679 932 1573 c 0,28,29
 1013 1484 1013 1484 1013 1345 c 0,30,31
 1013 1318 1013 1318 1010 1289 c 0,32,33
 991 1111 991 1111 872 1004.5 c 128,-1,34
 753 898 753 898 572 898 c 0,17,18
EndSplineSet
EndChar

StartChar: plusminus
Encoding: 177 177 115
Width: 919
GlyphClass: 2
Flags: W
LayerCount: 2
UndoRedoHistory
Layer: 1
Undoes
EndUndoes
Redoes
EndRedoes
EndUndoRedoHistory
Fore
SplineSet
349 371 m 1,0,-1
 374 608 l 1,1,-1
 142 608 l 1,2,-1
 162 799 l 1,3,-1
 394 799 l 1,4,-1
 418 1036 l 1,5,-1
 618 1036 l 1,6,-1
 594 799 l 1,7,-1
 825 799 l 1,8,-1
 805 608 l 1,9,-1
 574 608 l 1,10,-1
 549 371 l 1,11,-1
 349 371 l 1,0,-1
78 0 m 1,12,-1
 99 196 l 1,13,-1
 761 196 l 1,14,-1
 741 0 l 1,15,-1
 78 0 l 1,12,-1
EndSplineSet
EndChar

StartChar: twosuperior
Encoding: 178 178 116
Width: 856
GlyphClass: 2
Flags: W
LayerCount: 2
UndoRedoHistory
Layer: 1
Undoes
EndUndoes
Redoes
EndRedoes
EndUndoRedoHistory
Fore
SplineSet
160 658 m 1,0,-1
 178 836 l 1,1,-1
 497 1253 l 2,2,3
 507 1267 507 1267 534 1300.5 c 128,-1,4
 561 1334 561 1334 575 1353.5 c 128,-1,5
 589 1373 589 1373 607.5 1403 c 128,-1,6
 626 1433 626 1433 636 1461.5 c 128,-1,7
 646 1490 646 1490 649 1519 c 0,8,9
 651 1532 651 1532 651 1543 c 0,10,11
 651 1582 651 1582 631 1604 c 0,12,13
 611 1626 611 1626 577 1626 c 0,14,15
 568 1626 568 1626 559 1625 c 0,16,17
 509 1618 509 1618 486 1573.5 c 128,-1,18
 463 1529 463 1529 451 1413 c 1,19,-1
 234 1413 l 1,20,-1
 240 1469 l 2,21,22
 257 1630 257 1630 344 1724 c 128,-1,23
 431 1818 431 1818 589 1818 c 0,24,25
 734 1818 734 1818 809 1739 c 0,26,27
 872 1673 872 1673 872 1564 c 0,28,29
 872 1542 872 1542 869 1518 c 0,30,31
 865 1484 865 1484 853.5 1447.5 c 128,-1,32
 842 1411 842 1411 832.5 1387.5 c 128,-1,33
 823 1364 823 1364 795.5 1322 c 128,-1,34
 768 1280 768 1280 759 1267 c 128,-1,35
 750 1254 750 1254 712.5 1204 c 128,-1,36
 675 1154 675 1154 670 1147 c 2,37,-1
 435 836 l 1,38,-1
 763 836 l 1,39,-1
 745 658 l 1,40,-1
 160 658 l 1,0,-1
EndSplineSet
EndChar

StartChar: threesuperior
Encoding: 179 179 117
Width: 857
GlyphClass: 2
Flags: W
LayerCount: 2
UndoRedoHistory
Layer: 1
Undoes
EndUndoes
Redoes
EndRedoes
EndUndoRedoHistory
Fore
SplineSet
453 638 m 0,0,1
 284 638 284 638 224 730 c 0,2,3
 178 800 178 800 178 915 c 0,4,5
 178 951 178 951 183 991 c 1,6,-1
 186 1027 l 1,7,-1
 409 1027 l 1,8,-1
 405 986 l 2,9,10
 402 955 402 955 402 931 c 0,11,12
 402 886 402 886 412 863 c 0,13,14
 428 827 428 827 478 827 c 0,15,16
 524 827 524 827 548 863 c 128,-1,17
 572 899 572 899 581 984 c 0,18,19
 584 1012 584 1012 584 1035 c 0,20,21
 584 1092 584 1092 568 1123 c 0,22,23
 546 1167 546 1167 478 1167 c 2,24,-1
 420 1167 l 1,25,-1
 435 1311 l 1,26,-1
 490 1311 l 2,27,28
 561 1311 561 1311 591.5 1353.5 c 128,-1,29
 622 1396 622 1396 633 1497 c 0,30,31
 636 1520 636 1520 636 1539 c 0,32,33
 636 1580 636 1580 624 1604 c 0,34,35
 607 1639 607 1639 561 1639 c 0,36,37
 514 1639 514 1639 491 1604.5 c 128,-1,38
 468 1570 468 1570 461 1501 c 1,39,-1
 454 1441 l 1,40,-1
 231 1441 l 1,41,-1
 238 1506 l 2,42,43
 254 1656 254 1656 343 1737 c 128,-1,44
 432 1818 432 1818 579 1818 c 0,45,46
 726 1818 726 1818 798 1738 c 0,47,48
 858 1672 858 1672 858 1560 c 0,49,50
 858 1537 858 1537 855 1512 c 1,51,52
 843 1408 843 1408 796.5 1337.5 c 128,-1,53
 750 1267 750 1267 693 1253 c 1,54,55
 804 1210 804 1210 804 1050 c 0,56,57
 804 1022 804 1022 801 991 c 0,58,59
 784 828 784 828 698.5 733 c 128,-1,60
 613 638 613 638 453 638 c 0,0,1
EndSplineSet
EndChar

StartChar: acute
Encoding: 180 180 118
Width: 621
GlyphClass: 2
Flags: W
LayerCount: 2
UndoRedoHistory
Layer: 1
Undoes
EndUndoes
Redoes
EndRedoes
EndUndoRedoHistory
Fore
SplineSet
195 1248 m 1,0,-1
 361 1658 l 1,1,-1
 670 1658 l 1,2,-1
 376 1248 l 1,3,-1
 195 1248 l 1,0,-1
EndSplineSet
EndChar

StartChar: mu
Encoding: 181 181 119
Width: 979
GlyphClass: 2
Flags: W
LayerCount: 2
UndoRedoHistory
Layer: 1
Undoes
EndUndoes
Redoes
EndRedoes
EndUndoRedoHistory
Fore
SplineSet
3 -376 m 1,0,-1
 165 1184 l 1,1,-1
 469 1184 l 1,2,-1
 376 302 l 2,3,4
 375 288 375 288 375 276 c 0,5,6
 375 245 375 245 384 227 c 0,7,8
 397 202 397 202 439 203 c 0,9,10
 485 204 485 204 552 247 c 1,11,-1
 650 1184 l 1,12,-1
 954 1184 l 1,13,-1
 830 0 l 1,14,-1
 526 0 l 1,15,-1
 537 101 l 1,16,17
 453 30 453 30 373 4 c 0,18,19
 370 3 370 3 364.5 1 c 128,-1,20
 359 -1 359 -1 354.5 -2.5 c 128,-1,21
 350 -4 350 -4 346 -5 c 1,22,-1
 307 -376 l 1,23,-1
 3 -376 l 1,0,-1
EndSplineSet
EndChar

StartChar: paragraph
Encoding: 182 182 120
Width: 1050
GlyphClass: 2
Flags: W
LayerCount: 2
UndoRedoHistory
Layer: 1
Undoes
EndUndoes
Redoes
EndRedoes
EndUndoRedoHistory
Fore
SplineSet
321 -196 m 1,0,-1
 449 1018 l 1,1,2
 304 1020 304 1020 225 1104 c 0,3,4
 159 1174 159 1174 159 1290 c 0,5,6
 159 1312 159 1312 161 1336 c 0,7,8
 170 1424 170 1424 207 1487.5 c 128,-1,9
 244 1551 244 1551 303 1587.5 c 128,-1,10
 362 1624 362 1624 432 1641 c 128,-1,11
 502 1658 502 1658 587 1658 c 2,12,-1
 1039 1658 l 1,13,-1
 844 -196 l 1,14,-1
 666 -196 l 1,15,-1
 844 1494 l 1,16,-1
 686 1494 l 1,17,-1
 508 -196 l 1,18,-1
 321 -196 l 1,0,-1
EndSplineSet
EndChar

StartChar: periodcentered
Encoding: 183 183 121
Width: 426
GlyphClass: 2
Flags: W
LayerCount: 2
UndoRedoHistory
Layer: 1
Undoes
EndUndoes
Redoes
EndRedoes
EndUndoRedoHistory
Fore
SplineSet
84 627 m 1,0,-1
 114 914 l 1,1,-1
 405 914 l 1,2,-1
 375 627 l 1,3,-1
 84 627 l 1,0,-1
EndSplineSet
EndChar

StartChar: cedilla
Encoding: 184 184 122
Width: 556
GlyphClass: 4
Flags: W
AnchorPoint: "Anchor-1" 120 0 mark 0
LayerCount: 2
UndoRedoHistory
Layer: 1
Undoes
EndUndoes
Redoes
EndRedoes
EndUndoRedoHistory
Fore
SplineSet
-12 -522 m 1,0,-1
 3 -386 l 1,1,2
 34 -395 34 -395 74 -399 c 0,3,4
 97 -401 97 -401 119 -401 c 0,5,6
 136 -401 136 -401 153 -400 c 0,7,8
 192 -397 192 -397 219.5 -381.5 c 128,-1,9
 247 -366 247 -366 250 -339 c 0,10,11
 253 -315 253 -315 243.5 -296 c 128,-1,12
 234 -277 234 -277 217.5 -264.5 c 128,-1,13
 201 -252 201 -252 176 -242.5 c 128,-1,14
 151 -233 151 -233 128.5 -228 c 128,-1,15
 106 -223 106 -223 78 -219 c 1,16,-1
 101 0 l 1,17,-1
 223 0 l 1,18,-1
 210 -130 l 1,19,20
 320 -137 320 -137 392 -190 c 0,21,22
 457 -238 457 -238 457 -313 c 0,23,24
 457 -320 457 -320 456 -328 c 0,25,26
 450 -402 450 -402 404 -453.5 c 128,-1,27
 358 -505 358 -505 290 -526 c 0,28,29
 224 -547 224 -547 146 -547 c 0,30,31
 144 -546 144 -546 142 -546 c 0,32,33
 62 -546 62 -546 -12 -522 c 1,0,-1
EndSplineSet
EndChar

StartChar: onesuperior
Encoding: 185 185 123
Width: 852
GlyphClass: 2
Flags: W
LayerCount: 2
UndoRedoHistory
Layer: 1
Undoes
EndUndoes
Redoes
EndRedoes
EndUndoRedoHistory
Fore
SplineSet
382 658 m 1,0,-1
 477 1565 l 1,1,2
 468 1554 468 1554 383.5 1527 c 128,-1,3
 299 1500 299 1500 277 1496 c 1,4,-1
 295 1665 l 1,5,6
 297 1666 297 1666 332 1679.5 c 128,-1,7
 367 1693 367 1693 389.5 1703 c 128,-1,8
 412 1713 412 1713 446 1730 c 128,-1,9
 480 1747 480 1747 505.5 1765 c 128,-1,10
 531 1783 531 1783 547 1802 c 1,11,-1
 728 1802 l 1,12,-1
 609 658 l 1,13,-1
 382 658 l 1,0,-1
EndSplineSet
EndChar

StartChar: ordmasculine
Encoding: 186 186 124
Width: 970
GlyphClass: 2
Flags: W
LayerCount: 2
UndoRedoHistory
Layer: 1
Undoes
EndUndoes
Redoes
EndRedoes
EndUndoRedoHistory
Fore
SplineSet
520 836 m 0,0,1
 576 836 576 836 599 877 c 128,-1,2
 622 918 622 918 631 999 c 2,3,-1
 666 1326 l 2,4,5
 669 1354 669 1354 669 1378 c 0,6,7
 669 1422 669 1422 659 1448 c 0,8,9
 644 1489 644 1489 589 1489 c 0,10,11
 535 1489 535 1489 510.5 1447 c 128,-1,12
 486 1405 486 1405 478 1326 c 2,13,-1
 444 999 l 2,14,15
 441 968 441 968 441 941 c 0,16,17
 441 928 441 928 442 916 c 0,18,19
 444 880 444 880 463.5 858 c 128,-1,20
 483 836 483 836 520 836 c 0,0,1
502 641 m 0,21,22
 335 640 335 640 256 730 c 0,23,24
 191 804 191 804 191 931 c 0,25,26
 191 958 191 958 194 988 c 2,27,-1
 231 1337 l 2,28,29
 248 1505 248 1505 346 1594.5 c 128,-1,30
 444 1684 444 1684 611 1684 c 0,31,32
 774 1684 774 1684 856 1592 c 0,33,34
 924 1516 924 1516 924 1391 c 0,35,36
 924 1365 924 1365 921 1337 c 2,37,-1
 884 988 l 2,38,39
 867 824 867 824 766 732.5 c 128,-1,40
 665 641 665 641 502 641 c 0,21,22
EndSplineSet
EndChar

StartChar: guillemotright
Encoding: 187 187 125
Width: 1013
GlyphClass: 2
Flags: W
LayerCount: 2
UndoRedoHistory
Layer: 1
Undoes
EndUndoes
Redoes
EndRedoes
EndUndoRedoHistory
Fore
SplineSet
58 67 m 1,0,-1
 91 382 l 1,1,-1
 314 605 l 1,2,-1
 138 826 l 1,3,-1
 171 1142 l 1,4,-1
 511 663 l 1,5,-1
 499 546 l 1,6,-1
 58 67 l 1,0,-1
494 67 m 1,7,-1
 527 382 l 1,8,-1
 750 605 l 1,9,-1
 574 826 l 1,10,-1
 607 1142 l 1,11,-1
 946 663 l 1,12,-1
 934 546 l 1,13,-1
 494 67 l 1,7,-1
EndSplineSet
EndChar

StartChar: onequarter
Encoding: 188 188 126
Width: 1486
GlyphClass: 2
Flags: W
LayerCount: 2
UndoRedoHistory
Layer: 1
Undoes
EndUndoes
Redoes
EndRedoes
EndUndoRedoHistory
Fore
SplineSet
1048 1 m 1,0,-1
 1072 232 l 1,1,-1
 792 232 l 1,2,-1
 807 369 l 1,3,-1
 1156 868 l 1,4,-1
 1311 868 l 1,5,-1
 1259 374 l 1,6,-1
 1370 374 l 1,7,-1
 1355 232 l 1,8,-1
 1244 232 l 1,9,-1
 1220 1 l 1,10,-1
 1048 1 l 1,0,-1
267 829 m 1,11,-1
 326 1384 l 1,12,-1
 201 1345 l 1,13,-1
 216 1488 l 1,14,15
 364 1560 364 1560 452 1658 c 1,16,-1
 546 1658 l 1,17,-1
 459 829 l 1,18,-1
 267 829 l 1,11,-1
226 0 m 1,19,-1
 1094 1658 l 1,20,-1
 1271 1658 l 1,21,-1
 402 0 l 1,22,-1
 226 0 l 1,19,-1
936 374 m 1,23,-1
 1087 374 l 1,24,-1
 1116 644 l 1,25,-1
 936 374 l 1,23,-1
EndSplineSet
EndChar

StartChar: onehalf
Encoding: 189 189 127
Width: 1486
GlyphClass: 2
Flags: W
LayerCount: 2
UndoRedoHistory
Layer: 1
Undoes
EndUndoes
Redoes
EndRedoes
EndUndoRedoHistory
Fore
SplineSet
852 2 m 1,0,-1
 867 141 l 1,1,-1
 1082 403 l 2,2,3
 1086 408 1086 408 1109 436 c 128,-1,4
 1132 464 1132 464 1139.5 473.5 c 128,-1,5
 1147 483 1147 483 1164.5 508 c 128,-1,6
 1182 533 1182 533 1189 548 c 128,-1,7
 1196 563 1196 563 1204 585 c 128,-1,8
 1212 607 1212 607 1214 627 c 0,9,10
 1215 639 1215 639 1215 649 c 0,11,12
 1215 721 1215 721 1160 721 c 0,13,14
 1120 721 1120 721 1100 680 c 0,15,16
 1081 641 1081 641 1081 585 c 0,17,18
 1081 582 1081 582 1081 579 c 1,19,-1
 903 579 l 1,20,21
 904 625 904 625 905 631 c 0,22,23
 918 737 918 737 987.5 799 c 128,-1,24
 1057 861 1057 861 1171 861 c 0,25,26
 1288 860 1288 860 1346 800 c 0,27,28
 1395 749 1395 749 1396 663 c 0,29,30
 1396 647 1396 647 1394 629 c 1,31,32
 1385 549 1385 549 1340 478 c 128,-1,33
 1295 407 1295 407 1207 306 c 1,34,35
 1183 281 1183 281 1063 141 c 1,36,-1
 1332 141 l 1,37,-1
 1317 2 l 1,38,-1
 852 2 l 1,0,-1
231 829 m 1,39,-1
 290 1384 l 1,40,-1
 164 1345 l 1,41,-1
 180 1488 l 1,42,43
 329 1562 329 1562 416 1658 c 1,44,-1
 510 1658 l 1,45,-1
 423 829 l 1,46,-1
 231 829 l 1,39,-1
197 0 m 1,47,-1
 1065 1658 l 1,48,-1
 1242 1658 l 1,49,-1
 373 0 l 1,50,-1
 197 0 l 1,47,-1
EndSplineSet
EndChar

StartChar: threequarters
Encoding: 190 190 128
Width: 1486
GlyphClass: 2
Flags: W
LayerCount: 2
UndoRedoHistory
Layer: 1
Undoes
EndUndoes
Redoes
EndRedoes
EndUndoRedoHistory
Fore
SplineSet
368 877 m 0,0,1
 260 877 260 877 207 939 c 0,2,3
 163 990 163 990 163 1073 c 0,4,5
 163 1090 163 1090 165 1108 c 1,6,-1
 324 1108 l 1,7,8
 323 1094 323 1094 323 1083 c 0,9,10
 323 1009 323 1009 377 1009 c 0,11,12
 411 1009 411 1009 425 1034.5 c 128,-1,13
 439 1060 439 1060 444 1108 c 0,14,15
 445 1120 445 1120 445 1130 c 0,16,17
 446 1173 446 1173 426 1190 c 0,18,19
 402 1211 402 1211 331 1211 c 1,20,-1
 344 1331 l 1,21,22
 414 1331 414 1331 443.5 1352.5 c 128,-1,23
 473 1374 473 1374 479 1433 c 0,24,25
 481 1453 481 1453 481 1469 c 0,26,27
 481 1494 481 1494 476 1510 c 0,28,29
 467 1536 467 1536 432 1536 c 0,30,31
 394 1536 394 1536 378.5 1510.5 c 128,-1,32
 363 1485 363 1485 358 1437 c 1,33,-1
 200 1437 l 1,34,35
 212 1551 212 1551 278 1609.5 c 128,-1,36
 344 1668 344 1668 454 1668 c 0,37,38
 560 1668 560 1668 607 1610 c 0,39,40
 645 1563 645 1563 645 1483 c 0,41,42
 645 1464 645 1464 643 1444 c 0,43,44
 636 1372 636 1372 590.5 1327.5 c 128,-1,45
 545 1283 545 1283 483 1278 c 1,46,47
 613 1261 613 1261 613 1138 c 0,48,49
 613 1124 613 1124 611 1109 c 0,50,51
 600 998 600 998 537.5 937.5 c 128,-1,52
 475 877 475 877 368 877 c 0,0,1
1082 1 m 1,53,-1
 1107 232 l 1,54,-1
 827 232 l 1,55,-1
 841 369 l 1,56,-1
 1191 868 l 1,57,-1
 1345 868 l 1,58,-1
 1294 374 l 1,59,-1
 1404 374 l 1,60,-1
 1389 232 l 1,61,-1
 1279 232 l 1,62,-1
 1254 1 l 1,63,-1
 1082 1 l 1,53,-1
262 0 m 1,64,-1
 1130 1658 l 1,65,-1
 1307 1658 l 1,66,-1
 438 0 l 1,67,-1
 262 0 l 1,64,-1
971 374 m 1,68,-1
 1122 374 l 1,69,-1
 1150 644 l 1,70,-1
 971 374 l 1,68,-1
EndSplineSet
EndChar

StartChar: questiondown
Encoding: 191 191 129
Width: 1067
GlyphClass: 2
Flags: W
LayerCount: 2
UndoRedoHistory
Layer: 1
Undoes
EndUndoes
Redoes
EndRedoes
EndUndoRedoHistory
Fore
SplineSet
473 -374 m 0,0,1
 259 -374 259 -374 156 -263 c 0,2,3
 70 -171 70 -171 70 -17 c 0,4,5
 70 14 70 14 74 48 c 0,6,7
 93 227 93 227 211.5 389.5 c 128,-1,8
 330 552 330 552 504 682 c 1,9,-1
 525 880 l 1,10,-1
 801 880 l 1,11,-1
 773 619 l 1,12,13
 391 316 391 316 374 37 c 0,14,15
 373 28 373 28 373 19 c 0,16,17
 373 -40 373 -40 403 -73 c 0,18,19
 437 -111 437 -111 496 -111 c 0,20,21
 554 -111 554 -111 589.5 -73 c 128,-1,22
 625 -35 625 -35 626 28 c 1,23,24
 627 39 627 39 627 50 c 0,25,26
 627 84 627 84 618 124 c 1,27,-1
 901 184 l 1,28,29
 913 105 913 105 913 62 c 0,30,31
 913 51 913 51 912 42 c 1,32,33
 912 -144 912 -144 798.5 -259 c 128,-1,34
 685 -374 685 -374 473 -374 c 0,0,1
526 1017 m 1,35,-1
 557 1310 l 1,36,-1
 855 1310 l 1,37,-1
 825 1017 l 1,38,-1
 526 1017 l 1,35,-1
EndSplineSet
EndChar

StartChar: AE
Encoding: 198 198 136
Width: 1414
GlyphClass: 2
Flags: W
LayerCount: 2
UndoRedoHistory
Layer: 1
Undoes
EndUndoes
Redoes
EndRedoes
EndUndoRedoHistory
Fore
SplineSet
-101 0 m 1,0,-1
 790 1642 l 1,1,-1
 1486 1642 l 1,2,-1
 1463 1415 l 1,3,-1
 1094 1415 l 1,4,-1
 1047 973 l 1,5,-1
 1309 973 l 1,6,-1
 1285 741 l 1,7,-1
 1023 741 l 1,8,-1
 969 227 l 1,9,-1
 1338 227 l 1,10,-1
 1314 0 l 1,11,-1
 653 0 l 1,12,-1
 692 368 l 1,13,-1
 417 368 l 1,14,-1
 226 0 l 1,15,-1
 -101 0 l 1,0,-1
513 582 m 1,16,-1
 714 582 l 1,17,-1
 771 1122 l 1,18,-1
 513 582 l 1,16,-1
EndSplineSet
EndChar

StartChar: Eth
Encoding: 208 208 146
Width: 1158
GlyphClass: 2
Flags: W
LayerCount: 2
UndoRedoHistory
Layer: 1
Undoes
EndUndoes
Redoes
EndRedoes
EndUndoRedoHistory
Fore
SplineSet
427 231 m 1,0,-1
 499 231 l 2,1,2
 540 231 540 231 571.5 237.5 c 128,-1,3
 603 244 603 244 625 253.5 c 128,-1,4
 647 263 647 263 663.5 284 c 128,-1,5
 680 305 680 305 690 323.5 c 128,-1,6
 700 342 700 342 707.5 377.5 c 128,-1,7
 715 413 715 413 719 440 c 128,-1,8
 723 467 723 467 728 517 c 2,9,-1
 797 1171 l 2,10,11
 803 1226 803 1226 803 1268 c 0,12,13
 802 1296 802 1296 800 1318 c 0,14,15
 794 1374 794 1374 753.5 1399 c 128,-1,16
 713 1424 713 1424 622 1424 c 2,17,-1
 552 1424 l 1,18,-1
 501 938 l 1,19,-1
 593 938 l 1,20,-1
 575 767 l 1,21,-1
 483 767 l 1,22,-1
 427 231 l 1,0,-1
71 0 m 1,23,-1
 152 767 l 1,24,-1
 60 767 l 1,25,-1
 78 938 l 1,26,-1
 170 938 l 1,27,-1
 245 1658 l 1,28,-1
 645 1658 l 2,29,30
 801 1658 801 1658 902 1628.5 c 128,-1,31
 1003 1599 1003 1599 1058.5 1533.5 c 128,-1,32
 1114 1468 1114 1468 1130 1374 c 0,33,34
 1138 1325 1138 1325 1138 1264 c 0,35,36
 1138 1207 1138 1207 1131 1138 c 2,37,-1
 1068 540 l 2,38,39
 1048 348 1048 348 988 233 c 128,-1,40
 928 118 928 118 804.5 59 c 128,-1,41
 681 0 681 0 480 0 c 2,42,-1
 71 0 l 1,23,-1
EndSplineSet
EndChar

StartChar: multiply
Encoding: 215 215 153
Width: 934
GlyphClass: 2
Flags: W
LayerCount: 2
UndoRedoHistory
Layer: 1
Undoes
EndUndoes
Redoes
EndRedoes
EndUndoRedoHistory
Fore
SplineSet
252 483 m 1,0,-1
 125 624 l 1,1,-1
 364 841 l 1,2,-1
 170 1057 l 1,3,-1
 327 1199 l 1,4,-1
 520 983 l 1,5,-1
 760 1199 l 1,6,-1
 886 1058 l 1,7,-1
 647 841 l 1,8,-1
 841 624 l 1,9,-1
 686 483 l 1,10,-1
 491 699 l 1,11,-1
 252 483 l 1,0,-1
EndSplineSet
EndChar

StartChar: Oslash
Encoding: 216 216 154
Width: 1152
GlyphClass: 2
Flags: W
LayerCount: 2
UndoRedoHistory
Layer: 1
Undoes
EndUndoes
Redoes
EndRedoes
EndUndoRedoHistory
Fore
SplineSet
558 218 m 0,0,1
 606 218 606 218 639.5 235.5 c 128,-1,2
 673 253 673 253 691.5 287.5 c 128,-1,3
 710 322 710 322 718.5 358 c 128,-1,4
 727 394 727 394 733 446 c 2,5,-1
 808 1164 l 1,6,-1
 432 315 l 1,7,8
 438 276 438 276 464 250 c 0,9,10
 496 218 496 218 558 218 c 0,0,1
533 -22 m 0,11,12
 399 -22 399 -22 308 14 c 0,13,14
 304 16 304 16 300 18 c 1,15,-1
 216 -171 l 1,16,-1
 138 -140 l 1,17,-1
 227 60 l 1,18,19
 192 88 192 88 168 124 c 0,20,21
 119 196 119 196 104 294 c 0,22,23
 96 345 96 345 96 405 c 0,24,25
 96 461 96 461 103 525 c 2,26,-1
 168 1138 l 2,27,28
 196 1407 196 1407 323 1543 c 128,-1,29
 450 1679 450 1679 712 1679 c 0,30,31
 841 1679 841 1679 930 1646 c 1,32,-1
 1001 1806 l 1,33,-1
 1081 1778 l 1,34,-1
 1005 1607 l 1,35,36
 1048 1578 1048 1578 1078 1536 c 0,37,38
 1128 1464 1128 1464 1142 1366 c 0,39,40
 1150 1315 1150 1315 1151 1255 c 0,41,42
 1151 1200 1151 1200 1144 1138 c 2,43,-1
 1079 525 l 2,44,45
 1051 257 1051 257 922.5 117.5 c 128,-1,46
 794 -22 794 -22 533 -22 c 0,11,12
808 1371 m 1,47,48
 799 1394 799 1394 782 1410 c 0,49,50
 750 1440 750 1440 687 1440 c 0,51,52
 639 1440 639 1440 606 1423.5 c 128,-1,53
 573 1407 573 1407 555 1373 c 128,-1,54
 537 1339 537 1339 528.5 1304 c 128,-1,55
 520 1269 520 1269 514 1217 c 2,56,-1
 444 550 l 1,57,-1
 808 1371 l 1,47,48
EndSplineSet
EndChar

StartChar: Thorn
Encoding: 222 222 160
Width: 1122
GlyphClass: 2
Flags: W
LayerCount: 2
UndoRedoHistory
Layer: 1
Undoes
EndUndoes
Redoes
EndRedoes
EndUndoRedoHistory
Fore
SplineSet
73 0 m 1,0,-1
 247 1658 l 1,1,-1
 578 1658 l 1,2,-1
 555 1438 l 1,3,-1
 735 1438 l 2,4,5
 968 1438 968 1438 1068 1324 c 0,6,7
 1148 1233 1148 1233 1149 1060 c 0,8,9
 1149 1017 1149 1017 1144 969 c 0,10,11
 1129 830 1129 830 1090 735 c 128,-1,12
 1051 640 1051 640 983 583 c 128,-1,13
 915 526 915 526 824.5 501.5 c 128,-1,14
 734 477 734 477 607 476 c 1,15,-1
 454 476 l 1,16,-1
 404 0 l 1,17,-1
 73 0 l 1,0,-1
480 719 m 1,18,-1
 595 719 l 2,19,20
 713 719 713 719 768 771.5 c 128,-1,21
 823 824 823 824 837 958 c 0,22,23
 840 989 840 989 840 1016 c 0,24,25
 840 1096 840 1096 811 1137 c 0,26,27
 772 1191 772 1191 662 1191 c 2,28,-1
 530 1191 l 1,29,-1
 480 719 l 1,18,-1
EndSplineSet
EndChar

StartChar: germandbls
Encoding: 223 223 161
Width: 1092
GlyphClass: 2
Flags: W
LayerCount: 2
UndoRedoHistory
Layer: 1
Undoes
EndUndoes
Redoes
EndRedoes
EndUndoRedoHistory
Fore
SplineSet
458 -26 m 1,0,-1
 484 211 l 1,1,2
 602 211 602 211 660 276.5 c 128,-1,3
 718 342 718 342 727 494 c 0,4,5
 728 507 728 507 728 520 c 0,6,7
 728 608 728 608 686 664 c 0,8,9
 638 728 638 728 549 728 c 1,10,-1
 573 967 l 1,11,12
 653 967 653 967 699.5 1038 c 128,-1,13
 746 1109 746 1109 760 1234 c 1,14,15
 763 1266 763 1266 763 1293 c 0,16,17
 763 1459 763 1459 642 1459 c 0,18,19
 604 1459 604 1459 576 1443 c 128,-1,20
 548 1427 548 1427 530.5 1396 c 128,-1,21
 513 1365 513 1365 503.5 1326.5 c 128,-1,22
 494 1288 494 1288 490 1237 c 1,23,-1
 360 0 l 1,24,-1
 56 0 l 1,25,-1
 186 1235 l 2,26,27
 190 1279 190 1279 200 1321 c 128,-1,28
 210 1363 210 1363 225 1403 c 128,-1,29
 240 1443 240 1443 261.5 1478.5 c 128,-1,30
 283 1514 283 1514 310 1545 c 128,-1,31
 337 1576 337 1576 371.5 1600.5 c 128,-1,32
 406 1625 406 1625 445.5 1643 c 128,-1,33
 485 1661 485 1661 533 1670.5 c 128,-1,34
 581 1680 581 1680 635 1680 c 0,35,36
 858 1680 858 1680 954 1566 c 0,37,38
 1032 1474 1032 1474 1032 1317 c 0,39,40
 1032 1280 1032 1280 1028 1238 c 0,41,42
 1014 1108 1014 1108 949.5 1018.5 c 128,-1,43
 885 929 885 929 761 876 c 1,44,45
 854 849 854 849 917.5 790.5 c 128,-1,46
 981 732 981 732 1009 648 c 0,47,48
 1030 586 1030 586 1030 517 c 0,49,50
 1030 492 1030 492 1027 466 c 0,51,52
 1000 213 1000 213 856 93.5 c 128,-1,53
 712 -26 712 -26 458 -26 c 1,0,-1
EndSplineSet
EndChar

StartChar: ae
Encoding: 230 230 168
Width: 1292
GlyphClass: 2
Flags: W
LayerCount: 2
UndoRedoHistory
Layer: 1
Undoes
EndUndoes
Redoes
EndRedoes
EndUndoRedoHistory
Fore
SplineSet
307 -22 m 1,0,1
 187 -18 187 -18 114 63 c 0,2,3
 53 131 53 131 53 232 c 0,4,5
 53 251 53 251 55 272 c 0,6,7
 62 343 62 343 85.5 401 c 128,-1,8
 109 459 109 459 142 499 c 128,-1,9
 175 539 175 539 221 569.5 c 128,-1,10
 267 600 267 600 313 618 c 128,-1,11
 359 636 359 636 415 650 c 0,12,13
 512 674 512 674 574 685 c 1,14,-1
 590 837 l 2,15,16
 592 857 592 857 592 874 c 0,17,18
 592 914 592 914 580 938 c 0,19,20
 564 972 564 972 517 972 c 128,-1,21
 470 972 470 972 444.5 933 c 128,-1,22
 419 894 419 894 410 808 c 1,23,-1
 113 808 l 1,24,25
 133 1004 133 1004 239 1113.5 c 128,-1,26
 345 1223 345 1223 527 1223 c 0,27,28
 619 1223 619 1223 680 1181.5 c 128,-1,29
 741 1140 741 1140 753 1072 c 1,30,31
 789 1138 789 1138 862.5 1180.5 c 128,-1,32
 936 1223 936 1223 1024 1223 c 0,33,34
 1109 1223 1109 1223 1173 1196 c 128,-1,35
 1237 1169 1237 1169 1274 1122.5 c 0,36,37
 1310 1076 1310 1076 1326 1016 c 0,38,39
 1337 975 1337 975 1337 930 c 0,40,41
 1337 910 1337 910 1335 889 c 0,42,43
 1329 835 1329 835 1305 791 c 128,-1,44
 1281 747 1281 747 1248.5 719 c 128,-1,45
 1216 691 1216 691 1167.5 668.5 c 128,-1,46
 1119 646 1119 646 1076 634 c 128,-1,47
 1033 622 1033 622 976 610 c 0,48,49
 947 603 947 603 856 588 c 1,50,-1
 841 440 l 2,51,52
 840 433 840 433 839 420 c 0,53,54
 837 399 837 399 836 388.5 c 128,-1,55
 835 378 835 378 833.5 358 c 128,-1,56
 832 338 832 338 831.5 327 c 128,-1,57
 831 316 831 316 831.5 299 c 128,-1,58
 832 282 832 282 834 272 c 128,-1,59
 836 262 836 262 839 249 c 128,-1,60
 842 236 842 236 847.5 229 c 128,-1,61
 853 222 853 222 859.5 215 c 128,-1,62
 866 208 866 208 876 205 c 128,-1,63
 886 202 886 202 898 202 c 0,64,65
 918 202 918 202 933.5 211 c 128,-1,66
 949 220 949 220 957.5 232 c 128,-1,67
 966 244 966 244 972.5 267 c 128,-1,68
 979 290 979 290 982 308.5 c 128,-1,69
 985 327 985 327 988 357 c 2,70,-1
 994 414 l 1,71,-1
 1281 414 l 1,72,-1
 1272 335 l 1,73,74
 1254 164 1254 164 1157 71 c 128,-1,75
 1060 -22 1060 -22 891 -22 c 0,76,77
 829 -22 829 -22 775 1.5 c 128,-1,78
 721 25 721 25 684 72 c 128,-1,79
 647 119 647 119 642 180 c 1,80,81
 590 85 590 85 500 29 c 0,82,83
 417 -22 417 -22 324 -22 c 0,84,85
 315 -22 315 -22 307 -22 c 1,0,1
413 193 m 0,86,87
 436 193 436 193 456.5 203.5 c 128,-1,88
 477 214 477 214 495 235 c 128,-1,89
 513 256 513 256 525.5 291.5 c 128,-1,90
 538 327 538 327 543 374 c 2,91,-1
 559 542 l 1,92,93
 517 530 517 530 486 514 c 0,94,95
 421 481 421 481 381.5 426.5 c 128,-1,96
 342 372 342 372 336 317 c 0,97,98
 335 307 335 307 335 298 c 0,99,100
 335 260 335 260 351 230 c 0,101,102
 371 192 371 192 413 193 c 0,86,87
871 732 m 1,103,104
 883 734 883 734 903.5 738.5 c 128,-1,105
 924 743 924 743 945.5 749.5 c 128,-1,106
 967 756 967 756 973 762 c 1,107,108
 1020 778 1020 778 1044 804.5 c 128,-1,109
 1068 831 1068 831 1074 886 c 0,110,111
 1075 900 1075 900 1075 913 c 0,112,113
 1076 952 1076 952 1062 978 c 0,114,115
 1044 1012 1044 1012 999 1012 c 0,116,117
 967 1012 967 1012 942.5 992 c 128,-1,118
 918 972 918 972 904 938.5 c 128,-1,119
 890 905 890 905 885 860 c 2,120,-1
 871 732 l 1,103,104
EndSplineSet
EndChar

StartChar: eth
Encoding: 240 240 178
Width: 1038
GlyphClass: 2
Flags: W
LayerCount: 2
UndoRedoHistory
Layer: 1
Undoes
EndUndoes
Redoes
EndRedoes
EndUndoRedoHistory
Fore
SplineSet
458 -26 m 0,0,1
 256 -26 256 -26 168 89 c 0,2,3
 99 179 99 179 98 343 c 0,4,5
 98 389 98 389 104 442 c 2,6,-1
 133 718 l 2,7,8
 155 923 155 923 260 1049 c 128,-1,9
 365 1175 365 1175 530 1175 c 0,10,11
 626 1175 626 1175 695 1124 c 1,12,13
 697 1159 697 1159 697 1190 c 0,14,15
 697 1310 697 1310 663 1364 c 1,16,-1
 453 1275 l 1,17,-1
 437 1371 l 1,18,-1
 616 1447 l 1,19,20
 558 1518 558 1518 348 1518 c 1,21,-1
 382 1710 l 1,22,23
 734 1710 734 1710 850 1558 c 1,24,-1
 1062 1648 l 1,25,-1
 1077 1550 l 1,26,-1
 902 1477 l 1,27,28
 946 1384 946 1384 970 1224 c 0,29,30
 983 1136 983 1136 983 1038 c 0,31,32
 983 958 983 958 974 871 c 2,33,-1
 930 455 l 2,34,35
 880 -26 880 -26 458 -26 c 0,0,1
483 187 m 0,36,37
 551 187 551 187 579.5 234.5 c 128,-1,38
 608 282 608 282 618 376 c 2,39,-1
 675 925 l 1,40,41
 674 926 674 926 667.5 931.5 c 128,-1,42
 661 937 661 937 656.5 940 c 128,-1,43
 652 943 652 943 643.5 948.5 c 128,-1,44
 635 954 635 954 627 956.5 c 128,-1,45
 619 959 619 959 607.5 961.5 c 128,-1,46
 596 964 596 964 583 964 c 0,47,48
 509 964 509 964 475.5 885 c 128,-1,49
 442 806 442 806 420 593 c 0,50,51
 416 557 416 557 408 491 c 1,52,53
 392 396 392 396 392 328 c 0,54,55
 392 294 392 294 396 268 c 0,56,57
 408 188 408 188 483 187 c 0,36,37
EndSplineSet
EndChar

StartChar: divide
Encoding: 247 247 185
Width: 863
GlyphClass: 2
Flags: W
LayerCount: 2
UndoRedoHistory
Layer: 1
Undoes
EndUndoes
Redoes
EndRedoes
EndUndoRedoHistory
Fore
SplineSet
325 353 m 1,0,-1
 351 603 l 1,1,-1
 552 603 l 1,2,-1
 525 353 l 1,3,-1
 325 353 l 1,0,-1
89 763 m 1,4,-1
 108 940 l 1,5,-1
 853 940 l 1,6,-1
 834 763 l 1,7,-1
 89 763 l 1,4,-1
402 1083 m 1,8,-1
 428 1333 l 1,9,-1
 628 1333 l 1,10,-1
 602 1083 l 1,11,-1
 402 1083 l 1,8,-1
EndSplineSet
EndChar

StartChar: oslash
Encoding: 248 248 186
Width: 948
GlyphClass: 2
Flags: W
LayerCount: 2
UndoRedoHistory
Layer: 1
Undoes
EndUndoes
Redoes
EndRedoes
EndUndoRedoHistory
Fore
SplineSet
447 190 m 0,0,1
 504 190 504 190 527.5 234 c 128,-1,2
 551 278 551 278 560 363 c 2,3,-1
 599 734 l 1,4,-1
 369 269 l 1,5,6
 372 236 372 236 390 214 c 0,7,8
 410 190 410 190 447 190 c 0,0,1
142 -191 m 1,9,-1
 72 -162 l 1,10,-1
 177 52 l 1,11,12
 159 66 159 66 143 84 c 0,13,14
 70 169 70 169 70 313 c 0,15,16
 70 347 70 347 74 384 c 2,17,-1
 117 800 l 2,18,19
 137 994 137 994 249 1098.5 c 128,-1,20
 361 1203 361 1203 553 1203 c 0,21,22
 654 1203 654 1203 726 1175 c 1,23,-1
 827 1380 l 1,24,-1
 903 1350 l 1,25,-1
 797 1136 l 1,26,27
 819 1120 819 1120 837 1099 c 0,28,29
 911 1015 911 1015 911 870 c 0,30,31
 911 837 911 837 907 800 c 2,32,-1
 864 384 l 2,33,34
 843 189 843 189 730 84.5 c 128,-1,35
 617 -20 617 -20 425 -20 c 0,36,37
 318 -20 318 -20 243 13 c 1,38,-1
 142 -191 l 1,9,-1
607 931 m 1,39,40
 604 940 604 940 602 950 c 0,41,42
 588 994 588 994 532 994.5 c 128,-1,43
 476 995 476 995 452.5 950 c 128,-1,44
 429 905 429 905 420 821 c 2,45,-1
 384 475 l 1,46,-1
 607 931 l 1,39,40
EndSplineSet
EndChar

StartChar: thorn
Encoding: 254 254 192
Width: 988
GlyphClass: 2
Flags: W
LayerCount: 2
UndoRedoHistory
Layer: 1
Undoes
EndUndoes
Redoes
EndRedoes
EndUndoRedoHistory
Fore
SplineSet
9 -390 m 1,0,-1
 224 1658 l 1,1,-1
 528 1658 l 1,2,-1
 470 1095 l 1,3,4
 594 1203 594 1203 719 1203 c 0,5,6
 722 1203 722 1203 726 1203 c 0,7,8
 775 1202 775 1202 813.5 1185.5 c 128,-1,9
 852 1169 852 1169 876 1140.5 c 128,-1,10
 900 1112 900 1112 917.5 1075 c 128,-1,11
 935 1038 935 1038 940.5 996 c 128,-1,12
 946 954 946 954 948 910 c 0,13,14
 949 897 949 897 949 885 c 0,15,16
 949 855 949 855 945 826 c 1,17,-1
 898 385 l 2,18,19
 886 268 886 268 849.5 179.5 c 128,-1,20
 813 91 813 91 745 35.5 c 128,-1,21
 677 -20 677 -20 585 -20 c 0,22,23
 470 -20 470 -20 363 89 c 1,24,-1
 313 -390 l 1,25,-1
 9 -390 l 1,0,-1
482 189 m 1,26,27
 483 189 483 189 484 189 c 0,28,29
 534 190 534 190 558 238 c 0,30,31
 582 288 582 288 592 372 c 2,32,-1
 642 843 l 2,33,34
 645 869 645 869 645 891 c 0,35,36
 645 1005 645 1005 569 1005 c 0,37,38
 566 1005 566 1005 563 1005 c 1,39,40
 516 1004 516 1004 455 962 c 1,41,-1
 377 223 l 1,42,43
 428 189 428 189 482 189 c 1,26,27
EndSplineSet
EndChar

StartChar: Dcroat
Encoding: 272 272 202
Width: 1169
GlyphClass: 2
Flags: W
LayerCount: 2
UndoRedoHistory
Layer: 1
Undoes
EndUndoes
Redoes
EndRedoes
EndUndoRedoHistory
Fore
SplineSet
431 231 m 1,0,-1
 514 231 l 2,1,2
 555 231 555 231 586.5 237.5 c 128,-1,3
 618 244 618 244 640 253.5 c 128,-1,4
 662 263 662 263 678.5 284 c 128,-1,5
 695 305 695 305 705 323.5 c 128,-1,6
 715 342 715 342 722.5 377.5 c 128,-1,7
 730 413 730 413 734 440 c 128,-1,8
 738 467 738 467 743 517 c 2,9,-1
 812 1171 l 2,10,11
 818 1226 818 1226 818 1268 c 0,12,13
 818 1296 818 1296 816 1318 c 0,14,15
 810 1374 810 1374 769 1399 c 128,-1,16
 728 1424 728 1424 637 1424 c 2,17,-1
 556 1424 l 1,18,-1
 504 933 l 1,19,-1
 607 933 l 1,20,-1
 590 772 l 1,21,-1
 487 772 l 1,22,-1
 431 231 l 1,0,-1
81 0 m 1,23,-1
 162 772 l 1,24,-1
 61 772 l 1,25,-1
 78 933 l 1,26,-1
 179 933 l 1,27,-1
 255 1658 l 1,28,-1
 655 1658 l 2,29,30
 811 1658 811 1658 912 1628.5 c 128,-1,31
 1013 1599 1013 1599 1068.5 1533.5 c 128,-1,32
 1124 1468 1124 1468 1140 1374 c 0,33,34
 1148 1325 1148 1325 1148 1264 c 0,35,36
 1148 1207 1148 1207 1141 1138 c 2,37,-1
 1078 540 l 2,38,39
 1058 348 1058 348 998 233 c 128,-1,40
 938 118 938 118 814.5 59 c 128,-1,41
 691 0 691 0 490 0 c 2,42,-1
 81 0 l 1,23,-1
EndSplineSet
EndChar

StartChar: Eng
Encoding: 330 330 207
Width: 1128
GlyphClass: 2
Flags: W
LayerCount: 2
UndoRedoHistory
Layer: 1
Undoes
EndUndoes
Redoes
EndRedoes
EndUndoRedoHistory
Fore
SplineSet
415 -417 m 1,0,-1
 436 -213 l 1,1,2
 439 -213 439 -213 442 -213 c 0,3,4
 578 -213 578 -213 630 -171 c 0,5,6
 683 -128 683 -128 695 -11 c 2,7,-1
 711 139 l 1,8,-1
 447 929 l 1,9,-1
 349 0 l 1,10,-1
 73 0 l 1,11,-1
 247 1658 l 1,12,-1
 478 1658 l 1,13,-1
 769 783 l 1,14,-1
 861 1658 l 1,15,-1
 1129 1658 l 1,16,-1
 955 0 l 2,17,18
 944 -108 944 -108 920 -181 c 128,-1,19
 896 -254 896 -254 850 -309.5 c 128,-1,20
 804 -365 804 -365 728.5 -391 c 128,-1,21
 653 -417 653 -417 544 -417 c 2,22,-1
 415 -417 l 1,0,-1
EndSplineSet
EndChar

StartChar: Euro
Encoding: 8364 8364 209
Width: 1107
GlyphClass: 2
Flags: W
LayerCount: 2
UndoRedoHistory
Layer: 1
Undoes
EndUndoes
Redoes
EndRedoes
EndUndoRedoHistory
Fore
SplineSet
542 -22 m 0,0,1
 433 -22 433 -22 352 4 c 128,-1,2
 271 30 271 30 222 78.5 c 128,-1,3
 173 127 173 127 145 196 c 128,-1,4
 117 265 117 265 113 350 c 0,5,6
 112 376 112 376 112 404 c 0,7,8
 112 466 112 466 118 535 c 2,9,-1
 128 636 l 1,10,-1
 21 636 l 1,11,-1
 33 757 l 1,12,-1
 141 757 l 1,13,-1
 156 899 l 1,14,-1
 48 899 l 1,15,-1
 61 1021 l 1,16,-1
 169 1021 l 1,17,-1
 179 1119 l 2,18,19
 193 1254 193 1254 227 1353.5 c 128,-1,20
 261 1453 261 1453 323.5 1528 c 128,-1,21
 386 1603 386 1603 485.5 1641 c 128,-1,22
 585 1679 585 1679 721 1679 c 0,23,24
 850 1679 850 1679 937.5 1645.5 c 128,-1,25
 1025 1612 1025 1612 1070.5 1547 c 128,-1,26
 1116 1482 1116 1482 1130 1398 c 0,27,28
 1138 1352 1138 1352 1138 1296 c 0,29,30
 1138 1251 1138 1251 1133 1200 c 2,31,-1
 1122 1103 l 1,32,-1
 801 1103 l 1,33,-1
 812 1209 l 2,34,35
 815 1240 815 1240 816 1249.5 c 128,-1,36
 817 1259 817 1259 818.5 1286 c 128,-1,37
 820 1313 820 1313 819 1323 c 128,-1,38
 818 1333 818 1333 815.5 1354.5 c 128,-1,39
 813 1376 813 1376 807 1384.5 c 128,-1,40
 801 1393 801 1393 792 1406.5 c 128,-1,41
 783 1420 783 1420 770 1425.5 c 128,-1,42
 757 1431 757 1431 738.5 1435.5 c 128,-1,43
 720 1440 720 1440 697 1440 c 0,44,45
 663 1440 663 1440 637 1431.5 c 128,-1,46
 611 1423 611 1423 593 1405 c 128,-1,47
 575 1387 575 1387 563 1367.5 c 128,-1,48
 551 1348 551 1348 543 1316 c 128,-1,49
 535 1284 535 1284 530.5 1258 c 128,-1,50
 526 1232 526 1232 522 1193 c 2,51,-1
 505 1021 l 1,52,-1
 708 1021 l 1,53,-1
 695 899 l 1,54,-1
 492 899 l 1,55,-1
 477 757 l 1,56,-1
 680 757 l 1,57,-1
 668 636 l 1,58,-1
 464 636 l 1,59,-1
 446 460 l 1,60,61
 441 416 441 416 441 380 c 0,62,63
 441 314 441 314 458 276 c 0,64,65
 484 218 484 218 569 218 c 0,66,67
 602 218 602 218 627 226 c 128,-1,68
 652 234 652 234 669 253 c 128,-1,69
 686 272 686 272 696.5 290 c 128,-1,70
 707 308 707 308 714.5 341 c 128,-1,71
 722 374 722 374 725.5 396.5 c 128,-1,72
 729 419 729 419 733 460 c 2,73,-1
 742 542 l 1,74,-1
 1063 542 l 1,75,-1
 1057 480 l 2,76,77
 1045 365 1045 365 1013.5 278 c 128,-1,78
 982 191 982 191 923.5 121 c 128,-1,79
 865 51 865 51 769 14.5 c 128,-1,80
 673 -22 673 -22 542 -22 c 0,0,1
EndSplineSet
EndChar

StartChar: Hbar
Encoding: 294 294 214
Width: 1123
GlyphClass: 2
Flags: W
LayerCount: 2
UndoRedoHistory
Layer: 1
Undoes
EndUndoes
Redoes
EndRedoes
EndUndoRedoHistory
Fore
SplineSet
43 0 m 1,0,-1
 175 1259 l 1,1,-1
 73 1259 l 1,2,-1
 85 1379 l 1,3,-1
 188 1379 l 1,4,-1
 217 1658 l 1,5,-1
 548 1658 l 1,6,-1
 519 1379 l 1,7,-1
 810 1379 l 1,8,-1
 839 1658 l 1,9,-1
 1170 1658 l 1,10,-1
 1141 1379 l 1,11,-1
 1228 1379 l 1,12,-1
 1215 1259 l 1,13,-1
 1128 1259 l 1,14,-1
 996 0 l 1,15,-1
 665 0 l 1,16,-1
 743 739 l 1,17,-1
 452 739 l 1,18,-1
 374 0 l 1,19,-1
 43 0 l 1,0,-1
477 976 m 1,20,-1
 768 976 l 1,21,-1
 797 1259 l 1,22,-1
 506 1259 l 1,23,-1
 477 976 l 1,20,-1
EndSplineSet
EndChar

StartChar: Lslash
Encoding: 321 321 227
Width: 891
GlyphClass: 2
Flags: W
LayerCount: 2
UndoRedoHistory
Layer: 1
Undoes
EndUndoes
Redoes
EndRedoes
EndUndoRedoHistory
Fore
SplineSet
84 0 m 1,0,-1
 162 742 l 1,1,-1
 27 676 l 1,2,-1
 48 876 l 1,3,-1
 183 942 l 1,4,-1
 258 1658 l 1,5,-1
 589 1658 l 1,6,-1
 531 1104 l 1,7,-1
 746 1208 l 1,8,-1
 725 1008 l 1,9,-1
 510 905 l 1,10,-1
 439 227 l 1,11,-1
 828 227 l 1,12,-1
 804 0 l 1,13,-1
 84 0 l 1,0,-1
EndSplineSet
EndChar

StartChar: OE
Encoding: 338 338 231
Width: 1456
GlyphClass: 2
Flags: W
LayerCount: 2
UndoRedoHistory
Layer: 1
Undoes
EndUndoes
Redoes
EndRedoes
EndUndoRedoHistory
Fore
SplineSet
553 0 m 2,0,1
 413 0 413 0 318.5 36.5 c 128,-1,2
 224 73 224 73 173.5 145.5 c 0,3,4
 124 218 124 218 108 317 c 0,5,6
 100 369 100 369 99 431 c 0,7,8
 99 487 99 487 106 551 c 2,9,-1
 162 1078 l 2,10,11
 176 1212 176 1212 212.5 1314.5 c 128,-1,12
 249 1417 249 1417 313.5 1495 c 128,-1,13
 378 1573 378 1573 479.5 1613.5 c 128,-1,14
 581 1654 581 1654 717 1654 c 2,15,-1
 1524 1654 l 1,16,-1
 1500 1425 l 1,17,-1
 1137 1425 l 1,18,-1
 1089 972 l 1,19,-1
 1367 972 l 1,20,-1
 1343 740 l 1,21,-1
 1065 740 l 1,22,-1
 1011 227 l 1,23,-1
 1377 227 l 1,24,-1
 1353 0 l 1,25,-1
 553 0 l 2,0,1
579 232 m 2,26,-1
 680 232 l 1,27,-1
 806 1420 l 1,28,-1
 702 1420 l 2,29,30
 666 1420 666 1420 638 1411 c 128,-1,31
 610 1402 610 1402 590 1388.5 c 128,-1,32
 570 1375 570 1375 555 1349.5 c 128,-1,33
 540 1324 540 1324 531 1302.5 c 128,-1,34
 522 1281 522 1281 515 1242.5 c 128,-1,35
 508 1204 508 1204 504.5 1177.5 c 128,-1,36
 501 1151 501 1151 496 1105 c 2,37,-1
 434 514 l 1,38,39
 427 459 427 459 427 412 c 0,40,41
 427 406 427 406 427 400 c 0,42,43
 428 348 428 348 439 311 c 128,-1,44
 450 274 450 274 485 253 c 128,-1,45
 520 232 520 232 579 232 c 2,26,-1
EndSplineSet
EndChar

StartChar: Pi
Encoding: 928 928 235
Width: 1215
GlyphClass: 2
Flags: W
LayerCount: 2
UndoRedoHistory
Layer: 1
Undoes
EndUndoes
Redoes
EndRedoes
EndUndoRedoHistory
Fore
SplineSet
62 0 m 1,0,-1
 236 1658 l 1,1,-1
 1227 1658 l 1,2,-1
 1053 0 l 1,3,-1
 755 0 l 1,4,-1
 904 1421 l 1,5,-1
 510 1421 l 1,6,-1
 360 0 l 1,7,-1
 62 0 l 1,0,-1
EndSplineSet
EndChar

StartChar: Tbar
Encoding: 358 358 244
Width: 887
GlyphClass: 2
Flags: W
LayerCount: 2
UndoRedoHistory
Layer: 1
Undoes
EndUndoes
Redoes
EndRedoes
EndUndoRedoHistory
Fore
SplineSet
118 767 m 1,0,-1
 135 933 l 1,1,-1
 329 933 l 1,2,-1
 380 1414 l 1,3,-1
 112 1414 l 1,4,-1
 138 1658 l 1,5,-1
 998 1658 l 1,6,-1
 973 1414 l 1,7,-1
 711 1414 l 1,8,-1
 660 933 l 1,9,-1
 847 933 l 1,10,-1
 830 767 l 1,11,-1
 643 767 l 1,12,-1
 562 0 l 1,13,-1
 231 0 l 1,14,-1
 312 767 l 1,15,-1
 118 767 l 1,0,-1
EndSplineSet
EndChar

StartChar: acutecomb
Encoding: 769 769 264
Width: 325
GlyphClass: 2
Flags: W
LayerCount: 2
UndoRedoHistory
Layer: 1
Undoes
EndUndoes
Redoes
EndRedoes
EndUndoRedoHistory
Fore
SplineSet
106 1248 m 1,0,-1
 272 1658 l 1,1,-1
 582 1658 l 1,2,-1
 287 1248 l 1,3,-1
 106 1248 l 1,0,-1
EndSplineSet
EndChar

StartChar: afii10018
Encoding: 1041 1041 266
Width: 1098
GlyphClass: 2
Flags: W
LayerCount: 2
UndoRedoHistory
Layer: 1
Undoes
EndUndoes
Redoes
EndRedoes
EndUndoRedoHistory
Fore
SplineSet
78 0 m 1,0,-1
 252 1658 l 1,1,-1
 1044 1658 l 1,2,-1
 1018 1410 l 1,3,-1
 557 1410 l 1,4,-1
 510 962 l 1,5,-1
 570 962 l 2,6,7
 828 962 828 962 942 851 c 0,8,9
 1035 761 1035 761 1035 576 c 0,10,11
 1035 532 1035 532 1030 483 c 0,12,13
 1018 369 1018 369 984 284 c 128,-1,14
 950 199 950 199 900 145 c 128,-1,15
 850 91 850 91 778.5 58.5 c 128,-1,16
 707 26 707 26 629 13 c 128,-1,17
 551 0 551 0 451 0 c 2,18,-1
 78 0 l 1,0,-1
433 223 m 1,19,-1
 476 223 l 2,20,21
 597 223 597 223 653.5 281 c 128,-1,22
 710 339 710 339 723 489 c 0,23,24
 725 515 725 515 725 537 c 0,25,26
 725 624 725 624 692 672 c 0,27,28
 650 732 650 732 525 731 c 2,29,-1
 486 731 l 1,30,-1
 433 223 l 1,19,-1
EndSplineSet
EndChar

StartChar: afii10019
Encoding: 1042 1042 267
Width: 1169
GlyphClass: 2
Flags: W
LayerCount: 2
UndoRedoHistory
Layer: 1
Undoes
EndUndoes
Redoes
EndRedoes
EndUndoRedoHistory
Fore
SplineSet
78 0 m 1,0,-1
 252 1658 l 1,1,-1
 670 1658 l 2,2,3
 762 1658 762 1658 833.5 1647 c 128,-1,4
 905 1636 905 1636 968 1607 c 128,-1,5
 1031 1578 1031 1578 1069.5 1530.5 c 128,-1,6
 1108 1483 1108 1483 1125 1407 c 0,7,8
 1135 1362 1135 1362 1135 1309 c 0,9,10
 1135 1271 1135 1271 1130 1230 c 0,11,12
 1095 930 1095 930 851 892 c 1,13,14
 1106 849 1106 849 1106 559 c 0,15,16
 1106 524 1106 524 1102 486 c 0,17,18
 1078 243 1078 243 941.5 121.5 c 128,-1,19
 805 0 805 0 570 0 c 2,20,-1
 78 0 l 1,0,-1
434 233 m 1,21,-1
 529 233 l 2,22,23
 658 233 658 233 714 293.5 c 128,-1,24
 770 354 770 354 784 490 c 0,25,26
 788 525 788 525 788 555 c 0,27,28
 788 651 788 651 752 699 c 0,29,30
 704 762 704 762 574 762 c 2,31,-1
 489 762 l 1,32,-1
 434 233 l 1,21,-1
513 988 m 1,33,-1
 596 988 l 2,34,35
 723 988 723 988 775.5 1043.5 c 128,-1,36
 828 1099 828 1099 841 1225 c 0,37,38
 843 1246 843 1246 843 1265 c 0,39,40
 844 1351 844 1351 798 1387 c 0,41,42
 742 1431 742 1431 609 1431 c 2,43,-1
 560 1431 l 1,44,-1
 513 988 l 1,33,-1
EndSplineSet
EndChar

StartChar: afii10020
Encoding: 1043 1043 268
Width: 899
GlyphClass: 2
Flags: W
LayerCount: 2
UndoRedoHistory
Layer: 1
Undoes
EndUndoes
Redoes
EndRedoes
EndUndoRedoHistory
Fore
SplineSet
78 0 m 1,0,-1
 252 1658 l 1,1,-1
 978 1658 l 1,2,-1
 953 1414 l 1,3,-1
 558 1414 l 1,4,-1
 409 0 l 1,5,-1
 78 0 l 1,0,-1
EndSplineSet
EndChar

StartChar: afii10021
Encoding: 1044 1044 269
Width: 1385
GlyphClass: 2
Flags: W
LayerCount: 2
UndoRedoHistory
Layer: 1
Undoes
EndUndoes
Redoes
EndRedoes
EndUndoRedoHistory
Fore
SplineSet
-55 -342 m 1,0,-1
 7 236 l 1,1,-1
 65 236 l 1,2,3
 124 263 124 263 172.5 316 c 128,-1,4
 221 369 221 369 269.5 467.5 c 128,-1,5
 318 566 318 566 361 727.5 c 128,-1,6
 404 889 404 889 441 1114 c 1,7,-1
 535 1658 l 1,8,-1
 1289 1658 l 1,9,-1
 1140 236 l 1,10,-1
 1322 236 l 1,11,-1
 1261 -342 l 1,12,-1
 1033 -342 l 1,13,-1
 1049 0 l 1,14,-1
 238 0 l 1,15,-1
 182 -342 l 1,16,-1
 -55 -342 l 1,0,-1
374 236 m 1,17,-1
 826 236 l 1,18,-1
 951 1422 l 1,19,-1
 768 1422 l 1,20,-1
 714 1069 l 2,21,22
 696 954 696 954 677 858 c 128,-1,23
 658 762 658 762 636.5 688 c 128,-1,24
 615 614 615 614 596.5 557.5 c 128,-1,25
 578 501 578 501 552.5 455 c 128,-1,26
 527 409 527 409 510 380 c 128,-1,27
 493 351 493 351 464 320.5 c 128,-1,28
 435 290 435 290 420 276 c 128,-1,29
 405 262 405 262 374 236 c 1,17,-1
EndSplineSet
EndChar

StartChar: afii10024
Encoding: 1046 1046 272
Width: 1558
GlyphClass: 2
Flags: W
LayerCount: 2
UndoRedoHistory
Layer: 1
Undoes
EndUndoes
Redoes
EndRedoes
EndUndoRedoHistory
Fore
SplineSet
-43 0 m 1,0,-1
 404 837 l 1,1,-1
 151 1658 l 1,2,-1
 462 1658 l 1,3,-1
 672 874 l 1,4,-1
 688 874 l 1,5,-1
 770 1658 l 1,6,-1
 1036 1658 l 1,7,-1
 954 874 l 1,8,-1
 970 874 l 1,9,-1
 1344 1658 l 1,10,-1
 1655 1658 l 1,11,-1
 1230 837 l 1,12,-1
 1500 0 l 1,13,-1
 1197 0 l 1,14,-1
 964 813 l 1,15,-1
 947 813 l 1,16,-1
 862 0 l 1,17,-1
 596 0 l 1,18,-1
 682 813 l 1,19,-1
 665 813 l 1,20,-1
 261 0 l 1,21,-1
 -43 0 l 1,0,-1
EndSplineSet
EndChar

StartChar: afii10025
Encoding: 1047 1047 273
Width: 1049
GlyphClass: 2
Flags: W
LayerCount: 2
UndoRedoHistory
Layer: 1
Undoes
EndUndoes
Redoes
EndRedoes
EndUndoRedoHistory
Fore
SplineSet
476 -26 m 0,0,1
 77 -26 77 -26 77 367 c 0,2,3
 77 414 77 414 83 466 c 1,4,-1
 89 525 l 1,5,-1
 400 525 l 1,6,7
 399 519 399 519 393 461 c 1,8,9
 390 425 390 425 390 395 c 0,10,11
 390 326 390 326 406 288 c 0,12,13
 430 234 430 234 506 234 c 0,14,15
 586 234 586 234 618 291.5 c 128,-1,16
 650 349 650 349 663 476 c 0,17,18
 667 511 667 511 667 541 c 0,19,20
 668 626 668 626 638 674 c 0,21,22
 598 740 598 740 474 745 c 0,23,24
 466 746 466 746 396 746 c 1,25,-1
 419 962 l 1,26,-1
 492 962 l 1,27,28
 579 965 579 965 632 996.5 c 128,-1,29
 685 1028 685 1028 708.5 1081 c 128,-1,30
 732 1134 732 1134 741 1221 c 0,31,32
 744 1250 744 1250 744 1275 c 0,33,34
 744 1340 744 1340 724 1378 c 0,35,36
 696 1431 696 1431 617 1431 c 0,37,38
 479 1431 479 1431 448 1220 c 0,39,40
 448 1216 448 1216 444 1180.5 c 128,-1,41
 440 1145 440 1145 439 1140 c 1,42,-1
 128 1140 l 1,43,-1
 138 1227 l 1,44,45
 160 1442 160 1442 294.5 1561.5 c 128,-1,46
 429 1681 429 1681 641 1681 c 0,47,48
 856 1682 856 1682 964 1566 c 0,49,50
 1054 1470 1054 1470 1054 1305 c 0,51,52
 1054 1272 1054 1272 1050 1236 c 0,53,54
 1035 1094 1035 1094 965.5 996.5 c 128,-1,55
 896 899 896 899 798 872 c 1,56,57
 976 806 976 806 976 565 c 0,58,59
 976 526 976 526 971 483 c 0,60,61
 959 367 959 367 925 275.5 c 128,-1,62
 891 184 891 184 832 115.5 c 128,-1,63
 773 47 773 47 683 10.5 c 128,-1,64
 593 -26 593 -26 476 -26 c 0,0,1
EndSplineSet
EndChar

StartChar: afii10026
Encoding: 1048 1048 274
Width: 1182
GlyphClass: 2
Flags: W
LayerCount: 2
UndoRedoHistory
Layer: 1
Undoes
EndUndoes
Redoes
EndRedoes
EndUndoRedoHistory
Fore
SplineSet
78 0 m 1,0,-1
 252 1658 l 1,1,-1
 521 1658 l 1,2,-1
 416 663 l 1,3,-1
 958 1658 l 1,4,-1
 1178 1658 l 1,5,-1
 1004 0 l 1,6,-1
 732 0 l 1,7,-1
 839 1015 l 1,8,-1
 289 0 l 1,9,-1
 78 0 l 1,0,-1
EndSplineSet
EndChar

StartChar: afii10028
Encoding: 1050 1050 276
Width: 1136
GlyphClass: 2
Flags: W
LayerCount: 2
UndoRedoHistory
Layer: 1
Undoes
EndUndoes
Redoes
EndRedoes
EndUndoRedoHistory
Fore
SplineSet
78 0 m 1,0,-1
 252 1658 l 1,1,-1
 583 1658 l 1,2,-1
 512 978 l 1,3,-1
 561 978 l 1,4,-1
 889 1658 l 1,5,-1
 1217 1658 l 1,6,-1
 829 878 l 1,7,-1
 1062 0 l 1,8,-1
 725 0 l 1,9,-1
 537 751 l 1,10,-1
 488 751 l 1,11,-1
 409 0 l 1,12,-1
 78 0 l 1,0,-1
EndSplineSet
EndChar

StartChar: afii10029
Encoding: 1051 1051 277
Width: 1296
GlyphClass: 2
Flags: W
LayerCount: 2
UndoRedoHistory
Layer: 1
Undoes
EndUndoes
Redoes
EndRedoes
EndUndoRedoHistory
Fore
SplineSet
-42 0 m 1,0,-1
 -17 236 l 1,1,2
 -3 236 -3 236 9 236 c 0,3,4
 33 236 33 236 50 237 c 0,5,6
 76 239 76 239 103.5 250 c 128,-1,7
 131 261 131 261 147.5 276.5 c 128,-1,8
 164 292 164 292 183.5 326.5 c 128,-1,9
 203 361 203 361 216 401.5 c 128,-1,10
 229 442 229 442 246 512 c 128,-1,11
 263 582 263 582 277.5 659 c 128,-1,12
 292 736 292 736 313 852 c 2,13,-1
 452 1658 l 1,14,-1
 1292 1658 l 1,15,-1
 1118 0 l 1,16,-1
 787 0 l 1,17,-1
 935 1408 l 1,18,-1
 721 1408 l 1,19,-1
 622 805 l 2,20,21
 597 653 597 653 579.5 566.5 c 128,-1,22
 562 480 562 480 534.5 377.5 c 128,-1,23
 507 275 507 275 476.5 223 c 128,-1,24
 446 171 446 171 399.5 115.5 c 128,-1,25
 353 60 353 60 292 38 c 0,26,27
 230 16 230 16 148 4 c 0,28,29
 97 -3 97 -3 36 -3 c 0,30,31
 -1 -3 -1 -3 -42 0 c 1,0,-1
EndSplineSet
EndChar

StartChar: afii10030
Encoding: 1052 1052 278
Width: 1417
GlyphClass: 2
Flags: W
LayerCount: 2
UndoRedoHistory
Layer: 1
Undoes
EndUndoes
Redoes
EndRedoes
EndUndoRedoHistory
Fore
SplineSet
69 0 m 1,0,-1
 271 1658 l 1,1,-1
 608 1658 l 1,2,-1
 723 618 l 1,3,-1
 1067 1658 l 1,4,-1
 1394 1658 l 1,5,-1
 1248 0 l 1,6,-1
 1007 0 l 1,7,-1
 1100 1075 l 1,8,-1
 747 0 l 1,9,-1
 577 0 l 1,10,-1
 444 1080 l 1,11,-1
 313 0 l 1,12,-1
 69 0 l 1,0,-1
EndSplineSet
EndChar

StartChar: afii10033
Encoding: 1055 1055 281
Width: 1221
GlyphClass: 2
Flags: W
LayerCount: 2
UndoRedoHistory
Layer: 1
Undoes
EndUndoes
Redoes
EndRedoes
EndUndoRedoHistory
Fore
SplineSet
73 0 m 1,0,-1
 247 1658 l 1,1,-1
 1222 1658 l 1,2,-1
 1048 0 l 1,3,-1
 721 0 l 1,4,-1
 870 1422 l 1,5,-1
 550 1422 l 1,6,-1
 400 0 l 1,7,-1
 73 0 l 1,0,-1
EndSplineSet
EndChar

StartChar: afii10034
Encoding: 1056 1056 282
Width: 1104
GlyphClass: 2
Flags: W
LayerCount: 2
UndoRedoHistory
Layer: 1
Undoes
EndUndoes
Redoes
EndRedoes
EndUndoRedoHistory
Fore
SplineSet
73 0 m 1,0,-1
 247 1658 l 1,1,-1
 758 1658 l 2,2,3
 1144 1658 1144 1658 1144 1277 c 0,4,5
 1144 1233 1144 1233 1139 1183 c 0,6,7
 1125 1056 1125 1056 1082.5 965.5 c 128,-1,8
 1040 875 1040 875 971.5 823.5 c 128,-1,9
 903 772 903 772 819.5 749 c 128,-1,10
 736 726 736 726 631 726 c 2,11,-1
 481 726 l 1,12,-1
 404 0 l 1,13,-1
 73 0 l 1,0,-1
505 957 m 1,14,-1
 611 957 l 2,15,16
 726 957 726 957 770.5 1007.5 c 128,-1,17
 815 1058 815 1058 828 1187 c 0,18,19
 833 1236 833 1236 833 1274 c 0,20,21
 833 1298 833 1298 831 1319 c 0,22,23
 826 1372 826 1372 786 1398.5 c 128,-1,24
 746 1425 746 1425 660 1425 c 2,25,-1
 554 1425 l 1,26,-1
 505 957 l 1,14,-1
EndSplineSet
EndChar

StartChar: afii10037
Encoding: 1059 1059 285
Width: 1065
GlyphClass: 2
Flags: W
LayerCount: 2
UndoRedoHistory
Layer: 1
Undoes
EndUndoes
Redoes
EndRedoes
EndUndoRedoHistory
Fore
SplineSet
26 -307 m 1,0,-1
 50 -80 l 1,1,2
 82 -82 82 -82 111 -82 c 0,3,4
 250 -82 250 -82 310 -34 c 0,5,6
 367 12 367 12 367 113 c 0,7,8
 367 140 367 140 363 171 c 2,9,-1
 166 1658 l 1,10,-1
 473 1658 l 1,11,-1
 541 974 l 1,12,-1
 560 504 l 1,13,-1
 665 973 l 1,14,-1
 855 1658 l 1,15,-1
 1168 1658 l 1,16,-1
 681 134 l 2,17,18
 650 35 650 35 624 -27 c 128,-1,19
 598 -89 598 -89 561 -144.5 c 128,-1,20
 524 -200 524 -200 481.5 -229 c 128,-1,21
 439 -258 439 -258 373 -279 c 128,-1,22
 307 -300 307 -300 225 -306 c 0,23,24
 178 -309 178 -309 118 -309 c 0,25,26
 75 -309 75 -309 26 -307 c 1,0,-1
EndSplineSet
EndChar

StartChar: afii10038
Encoding: 1060 1060 286
Width: 1500
GlyphClass: 2
Flags: W
LayerCount: 2
UndoRedoHistory
Layer: 1
Undoes
EndUndoes
Redoes
EndRedoes
EndUndoRedoHistory
Fore
SplineSet
550 -61 m 1,0,-1
 577 193 l 1,1,-1
 532 192 l 1,2,3
 502 190 502 190 474 190 c 0,4,5
 300 190 300 190 202 286 c 0,6,7
 106 380 106 380 106 543 c 0,8,9
 106 574 106 574 110 608 c 2,10,-1
 159 1075 l 2,11,12
 181 1282 181 1282 317 1394 c 0,13,14
 437 1492 437 1492 612 1493 c 0,15,16
 636 1493 636 1493 660 1491 c 1,17,-1
 713 1489 l 1,18,-1
 743 1773 l 1,19,-1
 1026 1773 l 1,20,-1
 996 1490 l 1,21,-1
 1045 1491 l 1,22,23
 1071 1493 1071 1493 1095 1493 c 0,24,25
 1276 1493 1276 1493 1376 1395 c 0,26,27
 1471 1302 1471 1302 1471 1140 c 0,28,29
 1471 1109 1471 1109 1467 1074 c 2,30,-1
 1418 608 l 2,31,32
 1396 398 1396 398 1260 286 c 0,33,34
 1143 190 1143 190 975 189 c 0,35,36
 947 189 947 189 917 192 c 1,37,-1
 860 194 l 1,38,-1
 833 -61 l 1,39,-1
 550 -61 l 1,0,-1
569 394 m 0,40,41
 588 394 588 394 598 396 c 1,42,-1
 693 1294 l 1,43,44
 682 1296 682 1296 673 1296 c 0,45,46
 667 1296 667 1296 662 1295 c 1,47,48
 656 1295 656 1295 650 1295 c 0,49,50
 552 1295 552 1295 510 1246 c 0,51,52
 466 1194 466 1194 452 1078 c 2,53,-1
 403 605 l 2,54,55
 400 575 400 575 400 549 c 0,56,57
 400 477 400 477 424 440 c 0,58,59
 455 394 455 394 553 394 c 0,60,61
 561 394 561 394 569 394 c 0,40,41
915 395 m 0,62,63
 923 395 923 395 931 395 c 0,64,65
 1026 395 1026 395 1068 440 c 0,66,67
 1112 489 1112 489 1124 605 c 2,68,-1
 1174 1077 l 2,69,70
 1177 1107 1177 1107 1177 1133 c 0,71,72
 1177 1206 1177 1206 1152 1245 c 0,73,74
 1119 1295 1119 1295 1016 1295 c 0,75,76
 1012 1295 1012 1295 1008 1295 c 1,77,-1
 975 1295 l 1,78,-1
 881 396 l 1,79,80
 884 396 884 396 898.5 395.5 c 128,-1,81
 913 395 913 395 915 395 c 0,62,63
EndSplineSet
EndChar

StartChar: afii10040
Encoding: 1062 1062 288
Width: 1371
GlyphClass: 2
Flags: W
LayerCount: 2
UndoRedoHistory
Layer: 1
Undoes
EndUndoes
Redoes
EndRedoes
EndUndoRedoHistory
Fore
SplineSet
998 -342 m 1,0,-1
 995 0 l 1,1,-1
 78 0 l 1,2,-1
 252 1658 l 1,3,-1
 583 1658 l 1,4,-1
 433 227 l 1,5,-1
 766 227 l 1,6,-1
 916 1658 l 1,7,-1
 1247 1658 l 1,8,-1
 1097 227 l 1,9,-1
 1304 227 l 1,10,-1
 1244 -342 l 1,11,-1
 998 -342 l 1,0,-1
EndSplineSet
EndChar

StartChar: afii10041
Encoding: 1063 1063 289
Width: 1201
GlyphClass: 2
Flags: W
LayerCount: 2
UndoRedoHistory
Layer: 1
Undoes
EndUndoes
Redoes
EndRedoes
EndUndoRedoHistory
Fore
SplineSet
692 0 m 1,0,-1
 766 709 l 1,1,2
 648 690 648 690 556 690 c 0,3,4
 358 690 358 690 247 794 c 0,5,6
 153 882 153 882 153 1031 c 0,7,8
 153 1058 153 1058 156 1087 c 2,9,-1
 216 1658 l 1,10,-1
 535 1658 l 1,11,-1
 475 1088 l 1,12,13
 472 1063 472 1063 472 1041 c 0,14,15
 472 1024 472 1024 474 1009 c 0,16,17
 478 974 478 974 495 948.5 c 128,-1,18
 512 923 512 923 552 909.5 c 128,-1,19
 592 896 592 896 657 896 c 0,20,21
 715 896 715 896 787 909 c 1,22,-1
 866 1658 l 1,23,-1
 1197 1658 l 1,24,-1
 1023 0 l 1,25,-1
 692 0 l 1,0,-1
EndSplineSet
EndChar

StartChar: afii10042
Encoding: 1064 1064 290
Width: 1648
GlyphClass: 2
Flags: W
LayerCount: 2
UndoRedoHistory
Layer: 1
Undoes
EndUndoes
Redoes
EndRedoes
EndUndoRedoHistory
Fore
SplineSet
78 0 m 1,0,-1
 252 1658 l 1,1,-1
 569 1658 l 1,2,-1
 420 237 l 1,3,-1
 645 237 l 1,4,-1
 794 1658 l 1,5,-1
 1111 1658 l 1,6,-1
 962 237 l 1,7,-1
 1178 237 l 1,8,-1
 1327 1658 l 1,9,-1
 1644 1658 l 1,10,-1
 1470 0 l 1,11,-1
 78 0 l 1,0,-1
EndSplineSet
EndChar

StartChar: afii10043
Encoding: 1065 1065 291
Width: 1804
GlyphClass: 2
Flags: W
LayerCount: 2
UndoRedoHistory
Layer: 1
Undoes
EndUndoes
Redoes
EndRedoes
EndUndoRedoHistory
Fore
SplineSet
1396 -342 m 1,0,-1
 1397 0 l 1,1,-1
 78 0 l 1,2,-1
 252 1658 l 1,3,-1
 569 1658 l 1,4,-1
 419 227 l 1,5,-1
 644 227 l 1,6,-1
 794 1658 l 1,7,-1
 1111 1658 l 1,8,-1
 961 227 l 1,9,-1
 1178 227 l 1,10,-1
 1328 1658 l 1,11,-1
 1645 1658 l 1,12,-1
 1495 227 l 1,13,-1
 1702 227 l 1,14,-1
 1642 -342 l 1,15,-1
 1396 -342 l 1,0,-1
EndSplineSet
EndChar

StartChar: afii10044
Encoding: 1066 1066 292
Width: 1255
GlyphClass: 2
Flags: W
LayerCount: 2
UndoRedoHistory
Layer: 1
Undoes
EndUndoes
Redoes
EndRedoes
EndUndoRedoHistory
Fore
SplineSet
223 0 m 1,0,-1
 373 1426 l 1,1,-1
 86 1426 l 1,2,-1
 111 1658 l 1,3,-1
 728 1658 l 1,4,-1
 655 962 l 1,5,-1
 731 962 l 2,6,7
 990 962 990 962 1104 851 c 0,8,9
 1197 761 1197 761 1196 576 c 0,10,11
 1196 532 1196 532 1191 483 c 0,12,13
 1179 369 1179 369 1145 284 c 128,-1,14
 1111 199 1111 199 1061 145 c 128,-1,15
 1011 91 1011 91 939.5 58.5 c 128,-1,16
 868 26 868 26 790 13 c 128,-1,17
 712 0 712 0 612 0 c 2,18,-1
 223 0 l 1,0,-1
578 223 m 1,19,-1
 637 223 l 2,20,21
 758 223 758 223 814.5 281 c 128,-1,22
 871 339 871 339 884 489 c 0,23,24
 886 515 886 515 886 537 c 0,25,26
 886 624 886 624 853 672 c 0,27,28
 811 732 811 732 686 731 c 2,29,-1
 631 731 l 1,30,-1
 578 223 l 1,19,-1
EndSplineSet
EndChar

StartChar: afii10045
Encoding: 1067 1067 293
Width: 1641
GlyphClass: 2
Flags: W
LayerCount: 2
UndoRedoHistory
Layer: 1
Undoes
EndUndoes
Redoes
EndRedoes
EndUndoRedoHistory
Fore
SplineSet
78 0 m 1,0,-1
 252 1658 l 1,1,-1
 583 1658 l 1,2,-1
 510 962 l 1,3,-1
 577 962 l 2,4,5
 836 962 836 962 950 851 c 0,6,7
 1043 761 1043 761 1042 576 c 0,8,9
 1042 532 1042 532 1037 483 c 0,10,11
 1022 341 1022 341 975 244.5 c 128,-1,12
 928 148 928 148 849.5 95.5 c 128,-1,13
 771 43 771 43 677.5 21.5 c 128,-1,14
 584 0 584 0 458 0 c 2,15,-1
 78 0 l 1,0,-1
433 223 m 1,16,-1
 483 223 l 2,17,18
 604 223 604 223 660.5 281 c 128,-1,19
 717 339 717 339 731 489 c 0,20,21
 733 514 733 514 733 537 c 0,22,23
 734 624 734 624 700 672 c 0,24,25
 658 732 658 732 532 731 c 2,26,-1
 486 731 l 1,27,-1
 433 223 l 1,16,-1
1132 0 m 1,28,-1
 1306 1658 l 1,29,-1
 1637 1658 l 1,30,-1
 1463 0 l 1,31,-1
 1132 0 l 1,28,-1
EndSplineSet
EndChar

StartChar: afii10046
Encoding: 1068 1068 294
Width: 1102
GlyphClass: 2
Flags: W
LayerCount: 2
UndoRedoHistory
Layer: 1
Undoes
EndUndoes
Redoes
EndRedoes
EndUndoRedoHistory
Fore
SplineSet
78 0 m 1,0,-1
 252 1658 l 1,1,-1
 583 1658 l 1,2,-1
 510 962 l 1,3,-1
 576 962 l 2,4,5
 834 962 834 962 948 851 c 0,6,7
 1041 761 1041 761 1041 576 c 0,8,9
 1041 532 1041 532 1036 483 c 0,10,11
 1024 369 1024 369 990 284 c 128,-1,12
 956 199 956 199 906 145 c 128,-1,13
 856 91 856 91 784.5 58.5 c 128,-1,14
 713 26 713 26 635 13 c 128,-1,15
 557 0 557 0 457 0 c 2,16,-1
 78 0 l 1,0,-1
433 223 m 1,17,-1
 482 223 l 2,18,19
 603 223 603 223 659.5 281 c 128,-1,20
 716 339 716 339 729 489 c 0,21,22
 731 515 731 515 731 537 c 0,23,24
 731 624 731 624 698 672 c 0,25,26
 656 732 656 732 531 731 c 2,27,-1
 486 731 l 1,28,-1
 433 223 l 1,17,-1
EndSplineSet
EndChar

StartChar: afii10047
Encoding: 1069 1069 295
Width: 1143
GlyphClass: 2
Flags: W
LayerCount: 2
UndoRedoHistory
Layer: 1
Undoes
EndUndoes
Redoes
EndRedoes
EndUndoRedoHistory
Fore
SplineSet
511 -10 m 0,0,1
 408 -10 408 -10 330.5 12 c 128,-1,2
 253 34 253 34 205.5 75.5 c 128,-1,3
 158 117 158 117 130 176 c 128,-1,4
 102 235 102 235 97 309 c 0,5,6
 95 337 95 337 95 368 c 0,7,8
 95 417 95 417 100 470 c 1,9,-1
 109 556 l 1,10,-1
 430 556 l 1,11,-1
 420 461 l 2,12,13
 417 430 417 430 416 420.5 c 128,-1,14
 415 411 415 411 413.5 384 c 128,-1,15
 412 357 412 357 413 347 c 128,-1,16
 414 337 414 337 416.5 315.5 c 128,-1,17
 419 294 419 294 425 285.5 c 128,-1,18
 431 277 431 277 440 263.5 c 128,-1,19
 449 250 449 250 462 244.5 c 128,-1,20
 475 239 475 239 493.5 234.5 c 128,-1,21
 512 230 512 230 535 230 c 0,22,23
 575 230 575 230 605 243.5 c 128,-1,24
 635 257 635 257 652.5 277.5 c 128,-1,25
 670 298 670 298 682 333 c 128,-1,26
 694 368 694 368 699 399 c 128,-1,27
 704 430 704 430 709 477 c 2,28,-1
 739 753 l 1,29,-1
 466 753 l 1,30,-1
 484 932 l 1,31,-1
 757 932 l 1,32,-1
 786 1210 l 2,33,34
 791 1254 791 1254 791 1290 c 0,35,36
 791 1356 791 1356 774 1394 c 0,37,38
 748 1452 748 1452 663 1452 c 0,39,40
 624 1452 624 1452 595 1438 c 128,-1,41
 566 1424 566 1424 550 1405 c 128,-1,42
 534 1386 534 1386 523 1349.5 c 128,-1,43
 512 1313 512 1313 508 1285.5 c 128,-1,44
 504 1258 504 1258 499 1210 c 2,45,-1
 489 1112 l 1,46,-1
 167 1112 l 1,47,-1
 176 1190 l 1,48,49
 188 1305 188 1305 219 1392 c 128,-1,50
 250 1479 250 1479 308.5 1548.5 c 128,-1,51
 367 1618 367 1618 463 1654.5 c 128,-1,52
 559 1691 559 1691 690 1691 c 0,53,54
 826 1691 826 1691 918 1650.5 c 128,-1,55
 1010 1610 1010 1610 1054.5 1537 c 128,-1,56
 1099 1464 1099 1464 1115 1362 c 0,57,58
 1123 1311 1123 1311 1123 1254 c 128,-1,59
 1123 1197 1123 1197 1115 1135 c 1,60,-1
 1053 551 l 2,61,62
 1039 416 1039 416 1005 316.5 c 128,-1,63
 971 217 971 217 908.5 141.5 c 128,-1,64
 846 66 846 66 746.5 28 c 128,-1,65
 647 -10 647 -10 511 -10 c 0,0,1
EndSplineSet
EndChar

StartChar: afii10048
Encoding: 1070 1070 296
Width: 1627
GlyphClass: 2
Flags: W
LayerCount: 2
UndoRedoHistory
Layer: 1
Undoes
EndUndoes
Redoes
EndRedoes
EndUndoRedoHistory
Fore
SplineSet
1028 -22 m 128,-1,1
 903 -22 903 -22 818.5 18 c 128,-1,2
 734 58 734 58 692.5 131.5 c 0,3,4
 652 205 652 205 638 309 c 0,5,6
 632 357 632 357 631 409 c 0,7,8
 631 471 631 471 640 541 c 1,9,-1
 659 720 l 1,10,-1
 476 720 l 1,11,-1
 401 0 l 1,12,-1
 78 0 l 1,13,-1
 252 1658 l 1,14,-1
 575 1658 l 1,15,-1
 502 965 l 1,16,-1
 685 965 l 1,17,-1
 701 1122 l 2,18,19
 715 1256 715 1256 747.5 1354.5 c 128,-1,20
 780 1453 780 1453 838.5 1528 c 128,-1,21
 897 1603 897 1603 989 1641 c 128,-1,22
 1081 1679 1081 1679 1207 1679 c 128,-1,23
 1333 1679 1333 1679 1417.5 1640 c 128,-1,24
 1502 1601 1502 1601 1543.5 1528 c 0,25,26
 1585 1454 1585 1454 1599 1352 c 0,27,28
 1606 1304 1606 1304 1606 1251 c 0,29,30
 1606 1190 1606 1190 1597 1122 c 1,31,-1
 1536 541 l 2,32,33
 1522 408 1522 408 1489 308.5 c 128,-1,34
 1456 209 1456 209 1397.5 133 c 128,-1,35
 1339 57 1339 57 1246 17.5 c 128,-1,0
 1153 -22 1153 -22 1028 -22 c 128,-1,1
1054 218 m 0,36,37
 1099 218 1099 218 1130.5 235.5 c 128,-1,38
 1162 253 1162 253 1179.5 287.5 c 128,-1,39
 1197 322 1197 322 1205 357.5 c 128,-1,40
 1213 393 1213 393 1219 446 c 2,41,-1
 1300 1217 l 1,42,43
 1304 1265 1304 1265 1304 1305 c 0,44,45
 1304 1317 1304 1317 1304 1329 c 0,46,47
 1302 1379 1302 1379 1272 1409.5 c 128,-1,48
 1242 1440 1242 1440 1182 1440 c 0,49,50
 1145 1440 1145 1440 1117.5 1428 c 128,-1,51
 1090 1416 1090 1416 1073 1397 c 128,-1,52
 1056 1378 1056 1378 1044.5 1347.5 c 128,-1,53
 1033 1317 1033 1317 1027 1287.5 c 128,-1,54
 1021 1258 1021 1258 1017 1217 c 2,55,-1
 936 446 l 1,56,57
 932 398 932 398 932 356 c 0,58,59
 932 344 932 344 932 332 c 0,60,61
 934 282 934 282 964 250 c 128,-1,62
 994 218 994 218 1054 218 c 0,36,37
EndSplineSet
EndChar

StartChar: afii10049
Encoding: 1071 1071 297
Width: 1203
GlyphClass: 2
Flags: W
LayerCount: 2
UndoRedoHistory
Layer: 1
Undoes
EndUndoes
Redoes
EndRedoes
EndUndoRedoHistory
Fore
SplineSet
-30 0 m 1,0,-1
 375 740 l 1,1,2
 279 796 279 796 231 908 c 0,3,4
 195 992 195 992 195 1101 c 0,5,6
 195 1137 195 1137 199 1175 c 0,7,8
 225 1430 225 1430 373 1544 c 128,-1,9
 521 1658 521 1658 803 1658 c 2,10,-1
 1199 1658 l 1,11,-1
 1025 0 l 1,12,-1
 694 0 l 1,13,-1
 764 664 l 1,14,-1
 687 664 l 1,15,-1
 657 664 l 1,16,-1
 331 0 l 1,17,-1
 -30 0 l 1,0,-1
737 899 m 2,18,-1
 789 899 l 1,19,-1
 845 1429 l 1,20,-1
 788 1429 l 2,21,22
 533 1429 533 1429 507 1173 c 0,23,24
 504 1145 504 1145 504 1119 c 0,25,26
 504 1024 504 1024 545 969 c 0,27,28
 597 899 597 899 737 899 c 2,18,-1
EndSplineSet
EndChar

StartChar: afii10051
Encoding: 1026 1026 298
Width: 1243
GlyphClass: 2
Flags: W
LayerCount: 2
UndoRedoHistory
Layer: 1
Undoes
EndUndoes
Redoes
EndRedoes
EndUndoRedoHistory
Fore
SplineSet
184 0 m 1,0,-1
 333 1424 l 1,1,-1
 102 1424 l 1,2,-1
 126 1658 l 1,3,-1
 959 1658 l 1,4,-1
 935 1424 l 1,5,-1
 659 1424 l 1,6,-1
 605 909 l 1,7,8
 721 992 721 992 866 992 c 0,9,10
 933 992 933 992 993 971.5 c 128,-1,11
 1053 951 1053 951 1098 913 c 0,12,13
 1142 875 1142 875 1166 815 c 0,14,15
 1184 770 1184 770 1184 718 c 0,16,17
 1184 700 1184 700 1182 681 c 2,18,-1
 1154 420 l 1,19,20
 1131 194 1131 194 1022.5 97 c 128,-1,21
 914 0 914 0 687 0 c 2,22,-1
 621 0 l 1,23,-1
 642 201 l 1,24,25
 742 201 742 201 790.5 256.5 c 128,-1,26
 839 312 839 312 851 421 c 2,27,-1
 875 654 l 2,28,29
 876 662 876 662 876 669 c 0,30,31
 876 715 876 715 850 752 c 0,32,33
 820 795 820 795 751.5 795 c 128,-1,34
 683 795 683 795 587 741 c 1,35,-1
 509 0 l 1,36,-1
 184 0 l 1,0,-1
EndSplineSet
EndChar

StartChar: afii10053
Encoding: 1028 1028 300
Width: 1104
GlyphClass: 2
Flags: W
LayerCount: 2
UndoRedoHistory
Layer: 1
Undoes
EndUndoes
Redoes
EndRedoes
EndUndoRedoHistory
Fore
SplineSet
529 -22 m 0,0,1
 420 -22 420 -22 339 4 c 128,-1,2
 258 30 258 30 209 78.5 c 128,-1,3
 160 127 160 127 132 196 c 128,-1,4
 104 265 104 265 100 350 c 0,5,6
 99 376 99 376 99 404 c 0,7,8
 99 466 99 466 105 535 c 1,9,-1
 166 1119 l 2,10,11
 180 1254 180 1254 214 1353.5 c 128,-1,12
 248 1453 248 1453 310.5 1528 c 128,-1,13
 373 1603 373 1603 472.5 1641 c 128,-1,14
 572 1679 572 1679 708 1679 c 0,15,16
 837 1679 837 1679 924.5 1645.5 c 128,-1,17
 1012 1612 1012 1612 1057.5 1547 c 0,18,19
 1104 1482 1104 1482 1118 1398 c 0,20,21
 1126 1352 1126 1352 1125 1296 c 0,22,23
 1125 1251 1125 1251 1120 1200 c 1,24,-1
 1110 1114 l 1,25,-1
 789 1114 l 1,26,-1
 799 1209 l 2,27,28
 802 1240 802 1240 803 1249.5 c 128,-1,29
 804 1259 804 1259 805.5 1286 c 128,-1,30
 807 1313 807 1313 806 1323 c 128,-1,31
 805 1333 805 1333 802.5 1354.5 c 128,-1,32
 800 1376 800 1376 794 1384.5 c 128,-1,33
 788 1393 788 1393 779 1406.5 c 128,-1,34
 770 1420 770 1420 757 1425.5 c 128,-1,35
 744 1431 744 1431 725.5 1435.5 c 128,-1,36
 707 1440 707 1440 684 1440 c 0,37,38
 650 1440 650 1440 624 1431.5 c 128,-1,39
 598 1423 598 1423 580 1405 c 128,-1,40
 562 1387 562 1387 550 1367.5 c 128,-1,41
 538 1348 538 1348 530 1316 c 128,-1,42
 522 1284 522 1284 517.5 1258 c 128,-1,43
 513 1232 513 1232 509 1193 c 2,44,-1
 483 939 l 1,45,-1
 793 939 l 1,46,-1
 773 747 l 1,47,-1
 463 747 l 1,48,-1
 433 460 l 2,49,50
 428 416 428 416 428 380 c 0,51,52
 428 314 428 314 445 276 c 0,53,54
 471 218 471 218 556 218 c 0,55,56
 589 218 589 218 614 226 c 128,-1,57
 639 234 639 234 656 253 c 128,-1,58
 673 272 673 272 683.5 290 c 128,-1,59
 694 308 694 308 701.5 341 c 128,-1,60
 709 374 709 374 712.5 396.5 c 128,-1,61
 716 419 716 419 720 460 c 2,62,-1
 730 557 l 1,63,-1
 1052 557 l 1,64,-1
 1044 480 l 2,65,66
 1032 365 1032 365 1000.5 278 c 128,-1,67
 969 191 969 191 910.5 121 c 128,-1,68
 852 51 852 51 756 14.5 c 128,-1,69
 660 -22 660 -22 529 -22 c 0,0,1
EndSplineSet
EndChar

StartChar: afii10055
Encoding: 1030 1030 302
Width: 554
GlyphClass: 2
Flags: W
LayerCount: 2
UndoRedoHistory
Layer: 1
Undoes
EndUndoes
Redoes
EndRedoes
EndUndoRedoHistory
Fore
SplineSet
69 0 m 1,0,-1
 243 1658 l 1,1,-1
 571 1658 l 1,2,-1
 397 0 l 1,3,-1
 69 0 l 1,0,-1
EndSplineSet
EndChar

StartChar: afii10057
Encoding: 1032 1032 304
Width: 655
GlyphClass: 2
Flags: W
LayerCount: 2
UndoRedoHistory
Layer: 1
Undoes
EndUndoes
Redoes
EndRedoes
EndUndoRedoHistory
Fore
SplineSet
-44 -38 m 1,0,-1
 -20 195 l 1,1,2
 -14 195 -14 195 -8 195 c 0,3,4
 106 194 106 194 152 230 c 0,5,6
 200 268 200 268 212 385 c 2,7,-1
 346 1658 l 1,8,-1
 677 1658 l 1,9,-1
 542 374 l 1,10,11
 529 266 529 266 503 192.5 c 128,-1,12
 477 119 477 119 428.5 65.5 c 128,-1,13
 380 12 380 12 303 -13 c 128,-1,14
 226 -38 226 -38 116 -38 c 2,15,-1
 -44 -38 l 1,0,-1
EndSplineSet
EndChar

StartChar: afii10058
Encoding: 1033 1033 305
Width: 1788
GlyphClass: 2
Flags: W
LayerCount: 2
UndoRedoHistory
Layer: 1
Undoes
EndUndoes
Redoes
EndRedoes
EndUndoRedoHistory
Fore
SplineSet
-28 0 m 1,0,-1
 -3 236 l 1,1,2
 9 235 9 235 20 235 c 0,3,4
 72 235 72 235 106 247 c 0,5,6
 148 261 148 261 183.5 305.5 c 128,-1,7
 219 350 219 350 243.5 429.5 c 128,-1,8
 268 509 268 509 290 640 c 2,9,-1
 464 1658 l 1,10,-1
 1305 1658 l 1,11,-1
 1232 962 l 1,12,-1
 1277 962 l 2,13,14
 1536 962 1536 962 1650 851 c 0,15,16
 1743 761 1743 761 1742 576 c 0,17,18
 1742 532 1742 532 1737 483 c 0,19,20
 1725 369 1725 369 1691 284 c 128,-1,21
 1657 199 1657 199 1607 145 c 128,-1,22
 1557 91 1557 91 1485.5 58.5 c 128,-1,23
 1414 26 1414 26 1336 13 c 128,-1,24
 1258 0 1258 0 1158 0 c 2,25,-1
 800 0 l 1,26,-1
 948 1408 l 1,27,-1
 734 1408 l 1,28,-1
 606 635 l 2,29,30
 576 455 576 455 534.5 335 c 128,-1,31
 493 215 493 215 429.5 138 c 128,-1,32
 366 61 366 61 281 29 c 0,33,34
 201 -1 201 -1 91 -1 c 0,35,36
 84 -1 84 -1 77 -1 c 2,37,-1
 -28 0 l 1,0,-1
1155 223 m 1,38,-1
 1183 223 l 2,39,40
 1304 223 1304 223 1360.5 281 c 128,-1,41
 1417 339 1417 339 1430 489 c 0,42,43
 1432 515 1432 515 1432 537 c 0,44,45
 1432 624 1432 624 1399 672 c 0,46,47
 1357 732 1357 732 1232 731 c 2,48,-1
 1208 731 l 1,49,-1
 1155 223 l 1,38,-1
EndSplineSet
EndChar

StartChar: afii10059
Encoding: 1034 1034 306
Width: 1679
GlyphClass: 2
Flags: W
LayerCount: 2
UndoRedoHistory
Layer: 1
Undoes
EndUndoes
Redoes
EndRedoes
EndUndoRedoHistory
Fore
SplineSet
1040 0 m 2,0,-1
 685 1 l 1,1,-1
 762 729 l 1,2,-1
 486 729 l 1,3,-1
 409 1 l 1,4,-1
 78 1 l 1,5,-1
 252 1660 l 1,6,-1
 583 1660 l 1,7,-1
 512 977 l 1,8,-1
 788 977 l 1,9,-1
 859 1660 l 1,10,-1
 1190 1660 l 1,11,-1
 1117 962 l 1,12,-1
 1159 962 l 2,13,14
 1418 962 1418 962 1532 851 c 0,15,16
 1625 761 1625 761 1624 576 c 0,17,18
 1624 532 1624 532 1619 483 c 0,19,20
 1607 369 1607 369 1573 284 c 128,-1,21
 1539 199 1539 199 1489 145 c 128,-1,22
 1439 91 1439 91 1367.5 58.5 c 128,-1,23
 1296 26 1296 26 1218 13 c 128,-1,24
 1140 0 1140 0 1040 0 c 2,0,-1
1040 223 m 1,25,-1
 1065 223 l 2,26,27
 1186 223 1186 223 1242.5 281 c 128,-1,28
 1299 339 1299 339 1312 489 c 0,29,30
 1314 515 1314 515 1314 537 c 0,31,32
 1314 624 1314 624 1281 672 c 0,33,34
 1239 732 1239 732 1114 731 c 2,35,-1
 1093 731 l 1,36,-1
 1040 223 l 1,25,-1
EndSplineSet
EndChar

StartChar: afii10060
Encoding: 1035 1035 307
Width: 1159
GlyphClass: 2
Flags: W
LayerCount: 2
UndoRedoHistory
Layer: 1
Undoes
EndUndoes
Redoes
EndRedoes
EndUndoRedoHistory
Fore
SplineSet
185 0 m 1,0,-1
 333 1414 l 1,1,-1
 110 1414 l 1,2,-1
 135 1658 l 1,3,-1
 927 1658 l 1,4,-1
 901 1414 l 1,5,-1
 661 1414 l 1,6,-1
 610 919 l 1,7,8
 623 925 623 925 645 934.5 c 128,-1,9
 667 944 667 944 731.5 960 c 128,-1,10
 796 976 796 976 855 976 c 0,11,12
 970 976 970 976 1032 917 c 0,13,14
 1084 867 1084 867 1085 790 c 0,15,16
 1085 776 1085 776 1083 761 c 2,17,-1
 1003 0 l 1,18,-1
 699 0 l 1,19,-1
 775 715 l 2,20,21
 779 756 779 756 765.5 776 c 128,-1,22
 752 796 752 796 710 796 c 1,23,24
 670 795 670 795 592 758 c 1,25,-1
 513 0 l 1,26,-1
 185 0 l 1,0,-1
EndSplineSet
EndChar

StartChar: afii10066
Encoding: 1073 1073 311
Width: 959
GlyphClass: 2
Flags: W
LayerCount: 2
UndoRedoHistory
Layer: 1
Undoes
EndUndoes
Redoes
EndRedoes
EndUndoRedoHistory
Fore
SplineSet
421 -19 m 0,0,1
 313 -18 313 -18 242 12.5 c 128,-1,2
 171 43 171 43 135.5 101 c 128,-1,3
 100 159 100 159 90 243 c 0,4,5
 85 281 85 281 85 323 c 0,6,7
 85 375 85 375 92 435 c 1,8,-1
 157 1059 l 2,9,10
 170 1183 170 1183 192 1274.5 c 128,-1,11
 214 1366 214 1366 241.5 1425.5 c 128,-1,12
 269 1485 269 1485 310.5 1526.5 c 128,-1,13
 352 1568 352 1568 393.5 1590 c 128,-1,14
 435 1612 435 1612 496 1630 c 128,-1,15
 557 1648 557 1648 613.5 1659.5 c 128,-1,16
 670 1671 670 1671 752 1694 c 128,-1,17
 834 1717 834 1717 906 1745 c 1,18,-1
 911 1510 l 1,19,20
 837 1477 837 1477 764.5 1458.5 c 128,-1,21
 692 1440 692 1440 651.5 1435 c 128,-1,22
 611 1430 611 1430 573 1419 c 128,-1,23
 535 1408 535 1408 515 1384.5 c 128,-1,24
 495 1361 495 1361 479.5 1311.5 c 128,-1,25
 464 1262 464 1262 454 1174 c 2,26,-1
 443 1078 l 1,27,28
 549 1132 549 1132 651 1132 c 0,29,30
 798 1132 798 1132 860 1032 c 0,31,32
 904 960 904 960 904 821 c 0,33,34
 904 765 904 765 897 698 c 2,35,-1
 869 427 l 2,36,37
 855 294 855 294 817 203.5 c 128,-1,38
 779 113 779 113 718 65.5 c 0,39,40
 656 18 656 18 586 -1 c 0,41,42
 519 -19 519 -19 430 -19 c 0,43,44
 426 -19 426 -19 421 -19 c 0,0,1
460 184 m 0,45,46
 516 184 516 184 539 232 c 128,-1,47
 562 280 562 280 577 425 c 2,48,-1
 614 771 l 2,49,50
 618 813 618 813 618 844 c 0,51,52
 618 886 618 886 610 908 c 0,53,54
 596 947 596 947 550 947 c 0,55,56
 515 947 515 947 487 922 c 128,-1,57
 459 897 459 897 431 837 c 1,58,-1
 389 440 l 1,59,60
 378 356 378 356 378 303 c 0,61,62
 378 294 378 294 378 284 c 0,63,64
 380 228 380 228 398.5 206 c 128,-1,65
 417 184 417 184 460 184 c 0,45,46
EndSplineSet
EndChar

StartChar: afii10067
Encoding: 1074 1074 312
Width: 980
GlyphClass: 2
Flags: W
LayerCount: 2
UndoRedoHistory
Layer: 1
Undoes
EndUndoes
Redoes
EndRedoes
EndUndoRedoHistory
Fore
SplineSet
56 0 m 1,0,-1
 181 1184 l 1,1,-1
 576 1184 l 2,2,3
 670 1184 670 1184 738 1169.5 c 128,-1,4
 806 1155 806 1155 846 1130 c 128,-1,5
 886 1105 886 1105 908 1066.5 c 128,-1,6
 930 1028 930 1028 935 987 c 0,7,8
 937 967 937 967 937.5 943.5 c 128,-1,9
 938 920 938 920 935 893 c 0,10,11
 925 787 925 787 876 728 c 128,-1,12
 827 669 827 669 735 645 c 1,13,14
 793 631 793 631 831.5 602.5 c 128,-1,15
 870 574 870 574 887 535.5 c 128,-1,16
 904 497 904 497 909 448 c 0,17,18
 911 428 911 428 911 406 c 0,19,20
 911 376 911 376 907 344 c 1,21,22
 889 168 889 168 783.5 84 c 128,-1,23
 678 0 678 0 444 0 c 2,24,-1
 56 0 l 1,0,-1
377 185 m 1,25,-1
 433 185 l 2,26,27
 464 185 464 185 484 187 c 128,-1,28
 504 189 504 189 528 198.5 c 128,-1,29
 552 208 552 208 566.5 225 c 128,-1,30
 581 242 581 242 593.5 274.5 c 128,-1,31
 606 307 606 307 611 353 c 0,32,33
 614 383 614 383 614 407.5 c 128,-1,34
 614 432 614 432 612 450 c 128,-1,35
 610 468 610 468 604 482 c 128,-1,36
 598 496 598 496 592.5 505 c 128,-1,37
 587 514 587 514 575.5 520.5 c 128,-1,38
 564 527 564 527 555 530.5 c 128,-1,39
 546 534 546 534 530.5 535.5 c 128,-1,40
 515 537 515 537 504.5 537.5 c 128,-1,41
 494 538 494 538 475 538 c 2,42,-1
 414 538 l 1,43,-1
 377 185 l 1,25,-1
433 717 m 1,44,-1
 518 717 l 2,45,46
 578 717 578 717 609 752.5 c 128,-1,47
 640 788 640 788 648 864 c 0,48,49
 649 879 649 879 649 893 c 0,50,51
 649 946 649 946 628 974 c 0,52,53
 601 1010 601 1010 527 1010 c 2,54,-1
 464 1010 l 1,55,-1
 433 717 l 1,44,-1
EndSplineSet
EndChar

StartChar: afii10068
Encoding: 1075 1075 313
Width: 681
GlyphClass: 2
Flags: W
LayerCount: 2
UndoRedoHistory
Layer: 1
Undoes
EndUndoes
Redoes
EndRedoes
EndUndoRedoHistory
Fore
SplineSet
56 0 m 1,0,-1
 180 1184 l 1,1,-1
 737 1184 l 1,2,-1
 716 977 l 1,3,-1
 463 977 l 1,4,-1
 360 0 l 1,5,-1
 56 0 l 1,0,-1
EndSplineSet
EndChar

StartChar: afii10069
Encoding: 1076 1076 314
Width: 1175
GlyphClass: 2
Flags: W
LayerCount: 2
UndoRedoHistory
Layer: 1
Undoes
EndUndoes
Redoes
EndRedoes
EndUndoRedoHistory
Fore
SplineSet
-39 -317 m 1,0,-1
 14 190 l 1,1,2
 160 269 160 269 248.5 431 c 128,-1,3
 337 593 337 593 377 888 c 1,4,-1
 431 1184 l 1,5,-1
 1050 1184 l 1,6,-1
 946 195 l 1,7,-1
 1111 195 l 1,8,-1
 1058 -317 l 1,9,-1
 839 -317 l 1,10,-1
 851 0 l 1,11,-1
 235 0 l 1,12,-1
 182 -317 l 1,13,-1
 -39 -317 l 1,0,-1
335 195 m 1,14,-1
 665 195 l 1,15,-1
 749 992 l 1,16,-1
 639 992 l 1,17,-1
 605 820 l 1,18,19
 581 631 581 631 536.5 499.5 c 128,-1,20
 492 368 492 368 445.5 305 c 128,-1,21
 399 242 399 242 335 195 c 1,14,-1
EndSplineSet
EndChar

StartChar: afii10072
Encoding: 1078 1078 317
Width: 1309
GlyphClass: 2
Flags: W
LayerCount: 2
UndoRedoHistory
Layer: 1
Undoes
EndUndoes
Redoes
EndRedoes
EndUndoRedoHistory
Fore
SplineSet
-38 0 m 1,0,-1
 276 598 l 1,1,-1
 101 1184 l 1,2,-1
 374 1184 l 1,3,-1
 518 619 l 1,4,-1
 539 619 l 1,5,-1
 598 1184 l 1,6,-1
 851 1184 l 1,7,-1
 792 619 l 1,8,-1
 812 619 l 1,9,-1
 1083 1184 l 1,10,-1
 1355 1184 l 1,11,-1
 1049 598 l 1,12,-1
 1247 0 l 1,13,-1
 986 0 l 1,14,-1
 808 574 l 1,15,-1
 787 574 l 1,16,-1
 727 0 l 1,17,-1
 474 0 l 1,18,-1
 534 574 l 1,19,-1
 513 574 l 1,20,-1
 223 0 l 1,21,-1
 -38 0 l 1,0,-1
EndSplineSet
EndChar

StartChar: afii10073
Encoding: 1079 1079 318
Width: 874
GlyphClass: 2
Flags: W
LayerCount: 2
UndoRedoHistory
Layer: 1
Undoes
EndUndoes
Redoes
EndRedoes
EndUndoRedoHistory
Fore
SplineSet
384 -21 m 0,0,1
 298 -21 298 -21 236 -1 c 128,-1,2
 174 19 174 19 138.5 55 c 128,-1,3
 103 91 103 91 83 141.5 c 0,4,5
 64 192 64 192 62 254 c 0,6,7
 62 266 62 266 61 279 c 0,8,9
 61 330 61 330 66 387 c 1,10,-1
 313 387 l 1,11,12
 310 355 310 355 310 328 c 0,13,14
 310 268 310 268 326 236 c 0,15,16
 350 188 350 188 413 189 c 0,17,18
 447 189 447 189 471 201.5 c 128,-1,19
 495 214 495 214 509 240 c 128,-1,20
 523 266 523 266 530 294.5 c 128,-1,21
 537 323 537 323 542 365 c 0,22,23
 544 382 544 382 544 398 c 0,24,25
 544 466 544 466 508 493 c 0,26,27
 464 526 464 526 332 526 c 1,28,-1
 350 698 l 1,29,30
 477 698 477 698 523.5 732 c 128,-1,31
 570 766 570 766 579 854 c 0,32,33
 581 870 581 870 581 884 c 0,34,35
 581 990 581 990 483 990 c 0,36,37
 421 990 421 990 389.5 953 c 128,-1,38
 358 916 358 916 349 820 c 1,39,-1
 104 820 l 1,40,41
 123 1006 123 1006 221 1104.5 c 128,-1,42
 319 1203 319 1203 520 1203 c 0,43,44
 614 1203 614 1203 683.5 1177 c 128,-1,45
 753 1151 753 1151 791.5 1105.5 c 128,-1,46
 830 1060 830 1060 845 1002 c 0,47,48
 855 963 855 963 855 919 c 0,49,50
 855 898 855 898 853 877 c 0,51,52
 840 756 840 756 782 694.5 c 128,-1,53
 724 633 724 633 644 615 c 1,54,55
 664 608 664 608 678 602 c 128,-1,56
 692 596 692 596 710 586.5 c 128,-1,57
 728 577 728 577 739.5 566 c 128,-1,58
 751 555 751 555 764.5 538.5 c 128,-1,59
 778 522 778 522 784 502.5 c 128,-1,60
 790 483 790 483 797 456 c 128,-1,61
 804 429 804 429 802.5 397.5 c 128,-1,62
 801 366 801 366 799 325 c 1,63,64
 783 163 783 163 679.5 71 c 128,-1,65
 576 -21 576 -21 384 -21 c 0,0,1
EndSplineSet
EndChar

StartChar: afii10074
Encoding: 1080 1080 319
Width: 1014
GlyphClass: 2
Flags: W
LayerCount: 2
UndoRedoHistory
Layer: 1
Undoes
EndUndoes
Redoes
EndRedoes
EndUndoRedoHistory
Fore
SplineSet
56 0 m 1,0,-1
 180 1184 l 1,1,-1
 425 1184 l 1,2,-1
 354 511 l 1,3,-1
 746 1184 l 1,4,-1
 983 1184 l 1,5,-1
 858 0 l 1,6,-1
 612 0 l 1,7,-1
 683 672 l 1,8,-1
 297 0 l 1,9,-1
 56 0 l 1,0,-1
EndSplineSet
EndChar

StartChar: afii10076
Encoding: 1082 1082 321
Width: 991
GlyphClass: 2
Flags: W
LayerCount: 2
UndoRedoHistory
Layer: 1
Undoes
EndUndoes
Redoes
EndRedoes
EndUndoRedoHistory
Fore
SplineSet
56 0 m 1,0,-1
 180 1184 l 1,1,-1
 484 1184 l 1,2,-1
 435 710 l 1,3,-1
 487 710 l 1,4,-1
 723 1184 l 1,5,-1
 1048 1184 l 1,6,-1
 753 621 l 1,7,-1
 928 0 l 1,8,-1
 607 0 l 1,9,-1
 467 533 l 1,10,-1
 416 533 l 1,11,-1
 360 0 l 1,12,-1
 56 0 l 1,0,-1
EndSplineSet
EndChar

StartChar: afii10077
Encoding: 1083 1083 322
Width: 1112
GlyphClass: 2
Flags: W
LayerCount: 2
UndoRedoHistory
Layer: 1
Undoes
EndUndoes
Redoes
EndRedoes
EndUndoRedoHistory
Fore
SplineSet
-20 -5 m 1,0,-1
 3 207 l 1,1,2
 19 206 19 206 33 206 c 0,3,4
 136 206 136 206 174 274 c 0,5,6
 218 352 218 352 261 603 c 1,7,-1
 363 1184 l 1,8,-1
 1080 1184 l 1,9,-1
 956 0 l 1,10,-1
 652 0 l 1,11,-1
 755 971 l 1,12,-1
 601 971 l 1,13,-1
 532 580 l 2,14,15
 511 457 511 457 490 368.5 c 128,-1,16
 469 280 469 280 441 212.5 c 128,-1,17
 413 145 413 145 381 103 c 128,-1,18
 349 61 349 61 305 34.5 c 128,-1,19
 261 8 261 8 210 -2 c 128,-1,20
 159 -12 159 -12 90 -12 c 0,21,22
 33 -12 33 -12 -20 -5 c 1,0,-1
EndSplineSet
EndChar

StartChar: afii10078
Encoding: 1084 1084 323
Width: 1164
GlyphClass: 2
Flags: W
LayerCount: 2
UndoRedoHistory
Layer: 1
Undoes
EndUndoes
Redoes
EndRedoes
EndUndoRedoHistory
Fore
SplineSet
53 0 m 1,0,-1
 184 1184 l 1,1,-1
 408 1184 l 1,2,-1
 593 576 l 1,3,-1
 904 1184 l 1,4,-1
 1128 1184 l 1,5,-1
 1011 0 l 1,6,-1
 769 0 l 1,7,-1
 836 636 l 1,8,-1
 594 162 l 1,9,-1
 504 162 l 1,10,-1
 362 636 l 1,11,-1
 295 0 l 1,12,-1
 53 0 l 1,0,-1
EndSplineSet
EndChar

StartChar: afii10079
Encoding: 1085 1085 324
Width: 1036
GlyphClass: 2
Flags: W
LayerCount: 2
UndoRedoHistory
Layer: 1
Undoes
EndUndoes
Redoes
EndRedoes
EndUndoRedoHistory
Fore
SplineSet
56 0 m 1,0,-1
 180 1184 l 1,1,-1
 484 1184 l 1,2,-1
 436 716 l 1,3,-1
 652 716 l 1,4,-1
 700 1184 l 1,5,-1
 1004 1184 l 1,6,-1
 880 0 l 1,7,-1
 576 0 l 1,8,-1
 629 503 l 1,9,-1
 413 503 l 1,10,-1
 360 0 l 1,11,-1
 56 0 l 1,0,-1
EndSplineSet
EndChar

StartChar: afii10081
Encoding: 1087 1087 326
Width: 1008
GlyphClass: 2
Flags: W
LayerCount: 2
UndoRedoHistory
Layer: 1
Undoes
EndUndoes
Redoes
EndRedoes
EndUndoRedoHistory
Fore
SplineSet
56 0 m 1,0,-1
 180 1184 l 1,1,-1
 976 1184 l 1,2,-1
 852 0 l 1,3,-1
 548 0 l 1,4,-1
 650 971 l 1,5,-1
 462 971 l 1,6,-1
 360 0 l 1,7,-1
 56 0 l 1,0,-1
EndSplineSet
EndChar

StartChar: afii10084
Encoding: 1090 1090 329
Width: 792
GlyphClass: 2
Flags: W
LayerCount: 2
UndoRedoHistory
Layer: 1
Undoes
EndUndoes
Redoes
EndRedoes
EndUndoRedoHistory
Fore
SplineSet
193 0 m 1,0,-1
 295 973 l 1,1,-1
 83 973 l 1,2,-1
 105 1184 l 1,3,-1
 836 1184 l 1,4,-1
 814 973 l 1,5,-1
 599 973 l 1,6,-1
 497 0 l 1,7,-1
 193 0 l 1,0,-1
EndSplineSet
EndChar

StartChar: afii10085
Encoding: 1091 1091 330
Width: 917
GlyphClass: 2
Flags: W
LayerCount: 2
UndoRedoHistory
Layer: 1
Undoes
EndUndoes
Redoes
EndRedoes
EndUndoRedoHistory
Fore
SplineSet
31 -354 m 1,0,-1
 38 -129 l 1,1,2
 94 -129 94 -129 130 -126 c 128,-1,3
 166 -123 166 -123 194.5 -114 c 128,-1,4
 223 -105 223 -105 236.5 -92 c 128,-1,5
 250 -79 250 -79 257.5 -54.5 c 128,-1,6
 265 -30 265 -30 264.5 -0.5 c 128,-1,7
 264 29 264 29 258 76 c 2,8,-1
 99 1184 l 1,9,-1
 365 1184 l 1,10,-1
 415 694 l 1,11,-1
 448 328 l 1,12,-1
 550 693 l 1,13,-1
 689 1184 l 1,14,-1
 965 1184 l 1,15,-1
 551 -13 l 2,16,17
 526 -87 526 -87 502 -137.5 c 128,-1,18
 478 -188 478 -188 446 -228 c 128,-1,19
 414 -268 414 -268 379 -291 c 128,-1,20
 344 -314 344 -314 291.5 -329 c 128,-1,21
 239 -344 239 -344 178.5 -349 c 128,-1,22
 118 -354 118 -354 31 -354 c 1,0,-1
EndSplineSet
EndChar

StartChar: afii10086
Encoding: 1092 1092 331
Width: 1377
GlyphClass: 2
Flags: W
LayerCount: 2
UndoRedoHistory
Layer: 1
Undoes
EndUndoes
Redoes
EndRedoes
EndUndoRedoHistory
Fore
SplineSet
464 -365 m 1,0,-1
 506 31 l 1,1,-1
 479 31 l 2,2,3
 422 31 422 31 367 42 c 128,-1,4
 312 53 312 53 255 84 c 128,-1,5
 198 115 198 115 157.5 161.5 c 128,-1,6
 117 208 117 208 96 286 c 0,7,8
 82 339 82 339 82 403 c 0,9,10
 82 433 82 433 85 465 c 2,11,-1
 116 760 l 2,12,13
 127 865 127 865 173.5 946.5 c 128,-1,14
 220 1028 220 1028 288.5 1076.5 c 128,-1,15
 357 1125 357 1125 436 1150 c 128,-1,16
 515 1175 515 1175 598 1175 c 2,17,-1
 626 1175 l 1,18,-1
 677 1658 l 1,19,-1
 945 1658 l 1,20,-1
 894 1175 l 1,21,-1
 930 1175 l 2,22,23
 1014 1175 1014 1175 1087 1150.5 c 128,-1,24
 1160 1126 1160 1126 1217.5 1077 c 0,25,26
 1276 1028 1276 1028 1304 946 c 0,27,28
 1325 887 1325 887 1324 817 c 0,29,30
 1324 790 1324 790 1321 760 c 2,31,-1
 1290 465 l 2,32,33
 1279 365 1279 365 1241.5 286.5 c 128,-1,34
 1204 208 1204 208 1154.5 161.5 c 128,-1,35
 1105 115 1105 115 1041.5 84 c 128,-1,36
 978 53 978 53 921.5 42 c 128,-1,37
 865 31 865 31 809 31 c 2,38,-1
 774 31 l 1,39,-1
 732 -365 l 1,40,-1
 464 -365 l 1,0,-1
507 221 m 2,41,-1
 526 221 l 1,42,-1
 608 999 l 1,43,-1
 587 999 l 2,44,45
 511 999 511 999 461.5 947.5 c 128,-1,46
 412 896 412 896 400 790 c 1,47,-1
 365 450 l 2,48,49
 362 421 362 421 362 396 c 0,50,51
 362 221 362 221 507 221 c 2,41,-1
794 221 m 1,52,-1
 811 221 l 2,53,54
 890 221 890 221 942.5 278 c 128,-1,55
 995 335 995 335 1007 450 c 2,56,-1
 1043 790 l 2,57,58
 1045 812 1045 812 1045 832 c 0,59,60
 1045 906 1045 906 1013 948 c 0,61,62
 972 1000 972 1000 895 999 c 2,63,-1
 876 999 l 1,64,-1
 794 221 l 1,52,-1
EndSplineSet
EndChar

StartChar: afii10088
Encoding: 1094 1094 333
Width: 1119
GlyphClass: 2
Flags: W
LayerCount: 2
UndoRedoHistory
Layer: 1
Undoes
EndUndoes
Redoes
EndRedoes
EndUndoRedoHistory
Fore
SplineSet
784 -317 m 1,0,-1
 796 0 l 1,1,-1
 56 0 l 1,2,-1
 180 1184 l 1,3,-1
 484 1184 l 1,4,-1
 380 195 l 1,5,-1
 587 195 l 1,6,-1
 691 1184 l 1,7,-1
 995 1184 l 1,8,-1
 891 195 l 1,9,-1
 1056 195 l 1,10,-1
 1003 -317 l 1,11,-1
 784 -317 l 1,0,-1
EndSplineSet
EndChar

StartChar: afii10089
Encoding: 1095 1095 334
Width: 982
GlyphClass: 2
Flags: W
LayerCount: 2
UndoRedoHistory
Layer: 1
Undoes
EndUndoes
Redoes
EndRedoes
EndUndoRedoHistory
Fore
SplineSet
522 0 m 1,0,-1
 572 473 l 1,1,2
 503 465 503 465 448 465 c 0,3,4
 252 465 252 465 172 537 c 0,5,6
 105 597 105 597 105 715 c 0,7,8
 105 739 105 739 108 764 c 2,9,-1
 152 1184 l 1,10,-1
 456 1184 l 1,11,-1
 414 776 l 2,12,13
 412 761 412 761 412 747 c 0,14,15
 412 703 412 703 430 680 c 0,16,17
 453 650 453 650 532 649 c 0,18,19
 562 649 562 649 590 652 c 1,20,-1
 646 1184 l 1,21,-1
 950 1184 l 1,22,-1
 826 0 l 1,23,-1
 522 0 l 1,0,-1
EndSplineSet
EndChar

StartChar: afii10090
Encoding: 1096 1096 335
Width: 1410
GlyphClass: 2
Flags: W
LayerCount: 2
UndoRedoHistory
Layer: 1
Undoes
EndUndoes
Redoes
EndRedoes
EndUndoRedoHistory
Fore
SplineSet
56 0 m 1,0,-1
 180 1184 l 1,1,-1
 467 1184 l 1,2,-1
 365 208 l 1,3,-1
 531 208 l 1,4,-1
 633 1184 l 1,5,-1
 920 1184 l 1,6,-1
 818 208 l 1,7,-1
 990 208 l 1,8,-1
 1092 1184 l 1,9,-1
 1379 1184 l 1,10,-1
 1255 0 l 1,11,-1
 56 0 l 1,0,-1
EndSplineSet
EndChar

StartChar: afii10091
Encoding: 1097 1097 336
Width: 1535
GlyphClass: 2
Flags: W
LayerCount: 2
UndoRedoHistory
Layer: 1
Undoes
EndUndoes
Redoes
EndRedoes
EndUndoRedoHistory
Fore
SplineSet
1169 -317 m 1,0,-1
 1180 0 l 1,1,-1
 56 0 l 1,2,-1
 180 1184 l 1,3,-1
 469 1184 l 1,4,-1
 365 195 l 1,5,-1
 529 195 l 1,6,-1
 632 1184 l 1,7,-1
 921 1184 l 1,8,-1
 817 195 l 1,9,-1
 987 195 l 1,10,-1
 1091 1184 l 1,11,-1
 1379 1184 l 1,12,-1
 1276 195 l 1,13,-1
 1441 195 l 1,14,-1
 1387 -317 l 1,15,-1
 1169 -317 l 1,0,-1
EndSplineSet
EndChar

StartChar: afii10092
Encoding: 1098 1098 337
Width: 1096
GlyphClass: 2
Flags: W
LayerCount: 2
UndoRedoHistory
Layer: 1
Undoes
EndUndoes
Redoes
EndRedoes
EndUndoRedoHistory
Fore
SplineSet
186 0 m 1,0,-1
 288 974 l 1,1,-1
 58 974 l 1,2,-1
 79 1184 l 1,3,-1
 614 1184 l 1,4,-1
 564 703 l 1,5,-1
 579 703 l 1,6,7
 708 702 708 702 792.5 686.5 c 128,-1,8
 877 671 877 671 937 632 c 0,9,10
 997 594 997 594 1019 524 c 0,11,12
 1034 478 1034 478 1034 415 c 0,13,14
 1034 384 1034 384 1030 348 c 0,15,16
 1010 156 1010 156 888 78 c 128,-1,17
 766 0 766 0 497 0 c 2,18,-1
 186 0 l 1,0,-1
508 175 m 1,19,-1
 513 175 l 1,20,21
 640 176 640 176 692 210.5 c 128,-1,22
 744 245 744 245 755 347 c 1,23,24
 757 366 757 366 757 383 c 0,25,26
 757 456 757 456 722 486 c 0,27,28
 679 522 679 522 555 524 c 1,29,-1
 545 524 l 1,30,-1
 508 175 l 1,19,-1
EndSplineSet
EndChar

StartChar: afii10093
Encoding: 1099 1099 338
Width: 1452
GlyphClass: 2
Flags: W
LayerCount: 2
UndoRedoHistory
Layer: 1
Undoes
EndUndoes
Redoes
EndRedoes
EndUndoRedoHistory
Fore
SplineSet
56 0 m 1,0,-1
 180 1184 l 1,1,-1
 484 1184 l 1,2,-1
 434 703 l 1,3,-1
 449 703 l 1,4,5
 578 702 578 702 662.5 686.5 c 128,-1,6
 747 671 747 671 807 632 c 0,7,8
 867 594 867 594 889 524 c 0,9,10
 904 478 904 478 904 415 c 0,11,12
 904 384 904 384 900 348 c 0,13,14
 880 156 880 156 758 78 c 128,-1,15
 636 0 636 0 368 0 c 2,16,-1
 56 0 l 1,0,-1
379 175 m 1,17,-1
 384 175 l 1,18,19
 511 176 511 176 563 211 c 128,-1,20
 615 246 615 246 625 347 c 0,21,22
 627 368 627 368 627 386 c 0,23,24
 627 458 627 458 593 486 c 0,25,26
 550 522 550 522 425 524 c 1,27,-1
 415 524 l 1,28,-1
 379 175 l 1,17,-1
992 0 m 1,29,-1
 1116 1184 l 1,30,-1
 1420 1184 l 1,31,-1
 1296 0 l 1,32,-1
 992 0 l 1,29,-1
EndSplineSet
EndChar

StartChar: afii10094
Encoding: 1100 1100 339
Width: 961
GlyphClass: 2
Flags: W
LayerCount: 2
UndoRedoHistory
Layer: 1
Undoes
EndUndoes
Redoes
EndRedoes
EndUndoRedoHistory
Fore
SplineSet
56 0 m 1,0,-1
 180 1184 l 1,1,-1
 484 1184 l 1,2,-1
 434 703 l 1,3,-1
 449 703 l 1,4,5
 578 702 578 702 662.5 686.5 c 128,-1,6
 747 671 747 671 807 632 c 0,7,8
 867 594 867 594 889 524 c 0,9,10
 904 478 904 478 904 415 c 0,11,12
 904 384 904 384 900 348 c 0,13,14
 880 156 880 156 758 78 c 128,-1,15
 636 0 636 0 368 0 c 2,16,-1
 56 0 l 1,0,-1
379 175 m 1,17,-1
 384 175 l 1,18,19
 511 176 511 176 563 211 c 128,-1,20
 615 246 615 246 625 347 c 0,21,22
 627 368 627 368 627 386 c 0,23,24
 627 458 627 458 593 486 c 0,25,26
 550 522 550 522 425 524 c 1,27,-1
 415 524 l 1,28,-1
 379 175 l 1,17,-1
EndSplineSet
EndChar

StartChar: afii10095
Encoding: 1101 1101 340
Width: 937
GlyphClass: 2
Flags: W
LayerCount: 2
UndoRedoHistory
Layer: 1
Undoes
EndUndoes
Redoes
EndRedoes
EndUndoRedoHistory
Fore
SplineSet
410 -20 m 0,0,1
 220 -20 220 -20 136 70 c 0,2,3
 68 143 68 143 67 276 c 0,4,5
 67 307 67 307 71 342 c 1,6,-1
 76 394 l 1,7,-1
 365 394 l 1,8,-1
 359 340 l 2,9,10
 356 313 356 313 356 291 c 0,11,12
 356 249 356 249 368 229 c 0,13,14
 386 198 386 198 431 198 c 0,15,16
 481 198 481 198 504 235.5 c 128,-1,17
 527 273 527 273 537 370 c 2,18,-1
 553 517 l 1,19,-1
 281 517 l 1,20,-1
 296 656 l 1,21,-1
 568 656 l 1,22,-1
 585 818 l 2,23,24
 589 854 589 854 589 881 c 0,25,26
 589 928 589 928 578 950 c 0,27,28
 561 984 561 984 513 984 c 128,-1,29
 465 984 465 984 442.5 951 c 128,-1,30
 420 918 420 918 412 847 c 2,31,-1
 404 769 l 1,32,-1
 116 769 l 1,33,-1
 123 838 l 2,34,35
 142 1018 142 1018 246.5 1110.5 c 128,-1,36
 351 1203 351 1203 539 1203 c 0,37,38
 736 1204 736 1204 822 1094 c 0,39,40
 890 1007 890 1007 891 861 c 0,41,42
 891 824 891 824 886 782 c 2,43,-1
 846 401 l 2,44,45
 824 199 824 199 716 89.5 c 128,-1,46
 608 -20 608 -20 410 -20 c 0,0,1
EndSplineSet
EndChar

StartChar: afii10096
Encoding: 1102 1102 341
Width: 1359
GlyphClass: 2
Flags: W
LayerCount: 2
UndoRedoHistory
Layer: 1
Undoes
EndUndoes
Redoes
EndRedoes
EndUndoRedoHistory
Fore
SplineSet
856 -20 m 0,0,1
 678 -20 678 -20 596 84 c 0,2,3
 531 167 531 167 532 308 c 0,4,5
 532 344 532 344 536 384 c 2,6,-1
 547 489 l 1,7,-1
 397 490 l 1,8,-1
 346 0 l 1,9,-1
 56 0 l 1,10,-1
 180 1184 l 1,11,-1
 470 1184 l 1,12,-1
 419 700 l 1,13,-1
 569 700 l 1,14,-1
 579 800 l 1,15,16
 600 995 600 995 703.5 1099 c 128,-1,17
 807 1203 807 1203 985 1203 c 0,18,19
 1164 1203 1164 1203 1246 1099 c 0,20,21
 1312 1015 1312 1015 1313 873 c 0,22,23
 1313 838 1313 838 1309 800 c 2,24,-1
 1265 384 l 2,25,26
 1245 189 1245 189 1140 84.5 c 128,-1,27
 1035 -20 1035 -20 856 -20 c 0,0,1
880 200 m 0,28,29
 932 200 932 200 953.5 243.5 c 128,-1,30
 975 287 975 287 984 373 c 2,31,-1
 1030 811 l 1,32,33
 1034 855 1034 855 1034 891 c 0,34,35
 1034 896 1034 896 1034 900 c 0,36,37
 1034 938 1034 938 1016.5 961.5 c 128,-1,38
 999 985 999 985 963 985 c 128,-1,39
 927 985 927 985 905 960 c 128,-1,40
 883 935 883 935 874 900.5 c 128,-1,41
 865 866 865 866 860 811 c 2,42,-1
 813 373 l 1,43,44
 809 329 809 329 809 294 c 0,45,46
 810 290 810 290 810 286 c 0,47,48
 810 248 810 248 827.5 224 c 128,-1,49
 845 200 845 200 880 200 c 0,28,29
EndSplineSet
EndChar

StartChar: afii10097
Encoding: 1103 1103 342
Width: 1008
GlyphClass: 2
Flags: W
LayerCount: 2
UndoRedoHistory
Layer: 1
Undoes
EndUndoes
Redoes
EndRedoes
EndUndoRedoHistory
Fore
SplineSet
-22 0 m 1,0,-1
 226 493 l 1,1,2
 154 528 154 528 126 612 c 0,3,4
 106 670 106 670 107 745 c 0,5,6
 107 779 107 779 111 817 c 0,7,8
 130 999 130 999 246.5 1091.5 c 128,-1,9
 363 1184 363 1184 601 1184 c 2,10,-1
 976 1184 l 1,11,-1
 852 0 l 1,12,-1
 548 0 l 1,13,-1
 594 436 l 1,14,15
 557 436 557 436 499 438 c 1,16,-1
 303 0 l 1,17,-1
 -22 0 l 1,0,-1
600 613 m 1,18,-1
 612 613 l 1,19,-1
 654 1012 l 1,20,-1
 643 1012 l 1,21,22
 520 1011 520 1011 458 965 c 128,-1,23
 396 919 396 919 386 818 c 0,24,25
 384 800 384 800 384 783 c 0,26,27
 384 706 384 706 426 664 c 0,28,29
 478 614 478 614 600 613 c 1,18,-1
EndSplineSet
EndChar

StartChar: afii10098
Encoding: 1169 1169 343
Width: 719
GlyphClass: 2
Flags: W
LayerCount: 2
UndoRedoHistory
Layer: 1
Undoes
EndUndoes
Redoes
EndRedoes
EndUndoRedoHistory
Fore
SplineSet
63 0 m 1,0,-1
 187 1184 l 1,1,-1
 613 1184 l 1,2,-1
 638 1419 l 1,3,-1
 791 1419 l 1,4,-1
 745 985 l 1,5,-1
 462 985 l 1,6,-1
 358 0 l 1,7,-1
 63 0 l 1,0,-1
EndSplineSet
EndChar

StartChar: afii10099
Encoding: 1106 1106 344
Width: 1018
GlyphClass: 2
Flags: W
LayerCount: 2
UndoRedoHistory
Layer: 1
Undoes
EndUndoes
Redoes
EndRedoes
EndUndoRedoHistory
Fore
SplineSet
308 -325 m 1,0,-1
 326 -160 l 1,1,-1
 358 -160 l 2,2,3
 412 -160 412 -160 448.5 -148 c 128,-1,4
 485 -136 485 -136 510 -113.5 c 128,-1,5
 535 -91 535 -91 551 -47 c 128,-1,6
 567 -3 567 -3 576.5 49 c 128,-1,7
 586 101 586 101 595 185 c 2,8,-1
 646 675 l 2,9,10
 648 695 648 695 648 712 c 0,11,12
 648 744 648 744 639 764 c 0,13,14
 625 794 625 794 578 794 c 0,15,16
 534 794 534 794 453 758 c 1,17,-1
 374 0 l 1,18,-1
 70 0 l 1,19,-1
 199 1229 l 1,20,-1
 61 1229 l 1,21,-1
 77 1387 l 1,22,-1
 215 1387 l 1,23,-1
 244 1658 l 1,24,-1
 548 1658 l 1,25,-1
 519 1387 l 1,26,-1
 791 1387 l 1,27,-1
 775 1229 l 1,28,-1
 503 1229 l 1,29,-1
 471 928 l 1,30,31
 473 929 473 929 516.5 946 c 128,-1,32
 560 963 560 963 583.5 970.5 c 128,-1,33
 607 978 607 978 650.5 987 c 128,-1,34
 694 996 694 996 731 996 c 0,35,36
 955 996 955 996 955 751 c 0,37,38
 955 721 955 721 952 687 c 1,39,-1
 901 210 l 2,40,41
 889 97 889 97 872 16.5 c 128,-1,42
 855 -64 855 -64 825 -125.5 c 128,-1,43
 795 -187 795 -187 757.5 -224 c 128,-1,44
 720 -261 720 -261 661 -284.5 c 128,-1,45
 602 -308 602 -308 532.5 -316.5 c 128,-1,46
 463 -325 463 -325 365 -325 c 2,47,-1
 308 -325 l 1,0,-1
EndSplineSet
EndChar

StartChar: afii10101
Encoding: 1108 1108 346
Width: 905
GlyphClass: 2
Flags: W
LayerCount: 2
UndoRedoHistory
Layer: 1
Undoes
EndUndoes
Redoes
EndRedoes
EndUndoRedoHistory
Fore
SplineSet
424 -20 m 0,0,1
 225 -20 225 -20 140 90 c 0,2,3
 72 177 72 177 72 323 c 0,4,5
 72 361 72 361 77 402 c 2,6,-1
 117 783 l 2,7,8
 138 985 138 985 246 1094 c 128,-1,9
 354 1203 354 1203 552 1203 c 0,10,11
 742 1204 742 1204 826 1114 c 0,12,13
 895 1041 895 1041 895 906 c 0,14,15
 895 876 895 876 892 842 c 2,16,-1
 885 775 l 1,17,-1
 596 775 l 1,18,-1
 603 844 l 2,19,20
 606 872 606 872 606 894 c 0,21,22
 606 935 606 935 595 955 c 0,23,24
 578 986 578 986 531 986 c 0,25,26
 481 986 481 986 458 948.5 c 128,-1,27
 435 911 435 911 425 814 c 2,28,-1
 410 678 l 1,29,-1
 688 678 l 1,30,-1
 672 527 l 1,31,-1
 395 527 l 1,32,-1
 378 366 l 2,33,34
 374 330 374 330 374 303 c 0,35,36
 374 257 374 257 385 235 c 0,37,38
 402 200 402 200 449 200 c 0,39,40
 497 200 497 200 519.5 233 c 128,-1,41
 542 266 542 266 550 337 c 2,42,-1
 560 428 l 1,43,-1
 848 428 l 1,44,-1
 840 346 l 1,45,46
 820 165 820 165 715.5 72.5 c 128,-1,47
 611 -20 611 -20 424 -20 c 0,0,1
EndSplineSet
EndChar

StartChar: afii10103
Encoding: 1110 1110 348
Width: 504
GlyphClass: 2
Flags: W
LayerCount: 2
UndoRedoHistory
Layer: 1
Undoes
EndUndoes
Redoes
EndRedoes
EndUndoRedoHistory
Fore
SplineSet
53 0 m 1,0,-1
 177 1184 l 1,1,-1
 481 1184 l 1,2,-1
 357 0 l 1,3,-1
 53 0 l 1,0,-1
196 1365 m 1,4,-1
 221 1600 l 1,5,-1
 526 1600 l 1,6,-1
 501 1365 l 1,7,-1
 196 1365 l 1,4,-1
EndSplineSet
EndChar

StartChar: afii10105
Encoding: 1112 1112 350
Width: 509
GlyphClass: 2
Flags: W
LayerCount: 2
UndoRedoHistory
Layer: 1
Undoes
EndUndoes
Redoes
EndRedoes
EndUndoRedoHistory
Fore
SplineSet
-112 -322 m 1,0,-1
 -89 -104 l 1,1,2
 -49 -111 -49 -111 -31 -111 c 0,3,4
 68 -111 68 -111 80 0 c 2,5,-1
 204 1184 l 1,6,-1
 508 1184 l 1,7,-1
 380 -36 l 2,8,9
 366 -178 366 -178 278 -261.5 c 128,-1,10
 190 -345 190 -345 46 -345 c 0,11,12
 -38 -345 -38 -345 -112 -322 c 1,0,-1
224 1377 m 1,13,-1
 249 1612 l 1,14,-1
 555 1612 l 1,15,-1
 530 1377 l 1,16,-1
 224 1377 l 1,13,-1
EndSplineSet
EndChar

StartChar: afii10106
Encoding: 1113 1113 351
Width: 1566
GlyphClass: 2
Flags: W
LayerCount: 2
UndoRedoHistory
Layer: 1
Undoes
EndUndoes
Redoes
EndRedoes
EndUndoRedoHistory
Fore
SplineSet
1 -5 m 1,0,-1
 24 207 l 1,1,2
 58 205 58 205 83.5 207 c 128,-1,3
 109 209 109 209 131.5 219.5 c 128,-1,4
 154 230 154 230 169.5 244 c 128,-1,5
 185 258 185 258 200.5 287 c 128,-1,6
 216 316 216 316 226.5 346.5 c 128,-1,7
 237 377 237 377 249.5 430.5 c 128,-1,8
 262 484 262 484 272 537.5 c 128,-1,9
 282 591 282 591 296 673 c 2,10,-1
 383 1184 l 1,11,-1
 1101 1184 l 1,12,-1
 1051 702 l 1,13,-1
 1068 702 l 2,14,15
 1190 702 1190 702 1271.5 686 c 128,-1,16
 1353 670 1353 670 1410 630.5 c 0,17,18
 1467 592 1467 592 1488 522 c 0,19,20
 1502 476 1502 476 1502 415 c 0,21,22
 1502 383 1502 383 1498 348 c 0,23,24
 1479 159 1479 159 1361 80.5 c 128,-1,25
 1243 2 1243 2 985 0 c 1,26,-1
 673 0 l 1,27,-1
 776 971 l 1,28,-1
 622 971 l 1,29,-1
 560 613 l 1,30,31
 537 474 537 474 513.5 377 c 128,-1,32
 490 280 490 280 459.5 207.5 c 128,-1,33
 429 135 429 135 395 92.5 c 128,-1,34
 361 50 361 50 311 24.5 c 128,-1,35
 261 -1 261 -1 206 -8 c 0,36,37
 168 -13 168 -13 117 -13 c 0,38,39
 95 -13 95 -13 72 -12 c 0,40,41
 67 -11 67 -11 40 -9 c 128,-1,42
 13 -7 13 -7 1 -5 c 1,0,-1
996 175 m 1,43,-1
 1003 175 l 1,44,45
 1116 176 1116 176 1164.5 212.5 c 128,-1,46
 1213 249 1213 249 1223 347 c 0,47,48
 1225 368 1225 368 1225 387 c 0,49,50
 1225 456 1225 456 1193 485 c 0,51,52
 1152 523 1152 523 1038 523 c 2,53,-1
 1032 523 l 1,54,-1
 996 175 l 1,43,-1
EndSplineSet
EndChar

StartChar: afii10107
Encoding: 1114 1114 352
Width: 1430
GlyphClass: 2
Flags: W
LayerCount: 2
UndoRedoHistory
Layer: 1
Undoes
EndUndoes
Redoes
EndRedoes
EndUndoRedoHistory
Fore
SplineSet
56 0 m 1,0,-1
 180 1184 l 1,1,-1
 484 1184 l 1,2,-1
 435 709 l 1,3,-1
 624 709 l 1,4,-1
 674 1185 l 1,5,-1
 978 1185 l 1,6,-1
 927 704 l 1,7,8
 945 704 945 704 948 703 c 0,9,10
 1068 701 1068 701 1147 684 c 128,-1,11
 1226 667 1226 667 1282 627.5 c 128,-1,12
 1338 588 1338 588 1358 520 c 0,13,14
 1371 476 1371 476 1372 417 c 0,15,16
 1372 385 1372 385 1368 349 c 0,17,18
 1348 160 1348 160 1230 81.5 c 128,-1,19
 1112 3 1112 3 853 1 c 1,20,-1
 549 1 l 1,21,-1
 599 471 l 1,22,-1
 410 471 l 1,23,-1
 360 0 l 1,24,-1
 56 0 l 1,0,-1
872 176 m 1,25,26
 878 176 878 176 881 177 c 0,27,28
 990 180 990 180 1036.5 216 c 128,-1,29
 1083 252 1083 252 1093 348 c 0,30,31
 1095 368 1095 368 1095 386 c 0,32,33
 1095 452 1095 452 1065 482 c 0,34,35
 1027 520 1027 520 919 524 c 0,36,37
 912 524 912 524 908 525 c 1,38,-1
 872 176 l 1,25,26
EndSplineSet
EndChar

StartChar: afii10108
Encoding: 1115 1115 353
Width: 1028
GlyphClass: 2
Flags: W
LayerCount: 2
UndoRedoHistory
Layer: 1
Undoes
EndUndoes
Redoes
EndRedoes
EndUndoRedoHistory
Fore
SplineSet
70 0 m 1,0,-1
 199 1229 l 1,1,-1
 61 1229 l 1,2,-1
 77 1387 l 1,3,-1
 215 1387 l 1,4,-1
 244 1658 l 1,5,-1
 548 1658 l 1,6,-1
 519 1387 l 1,7,-1
 791 1387 l 1,8,-1
 775 1229 l 1,9,-1
 503 1229 l 1,10,-1
 471 928 l 1,11,12
 473 929 473 929 516.5 946 c 128,-1,13
 560 963 560 963 583.5 970.5 c 128,-1,14
 607 978 607 978 650.5 987 c 128,-1,15
 694 996 694 996 731 996 c 0,16,17
 955 996 955 996 955 751 c 0,18,19
 955 721 955 721 952 687 c 1,20,-1
 879 0 l 1,21,-1
 575 0 l 1,22,-1
 646 675 l 2,23,24
 648 695 648 695 648 712 c 0,25,26
 648 744 648 744 639 764 c 0,27,28
 625 794 625 794 578 794 c 0,29,30
 534 794 534 794 453 758 c 1,31,-1
 374 0 l 1,32,-1
 70 0 l 1,0,-1
EndSplineSet
EndChar

StartChar: afii10145
Encoding: 1039 1039 356
Width: 1197
GlyphClass: 2
Flags: W
LayerCount: 2
UndoRedoHistory
Layer: 1
Undoes
EndUndoes
Redoes
EndRedoes
EndUndoRedoHistory
Fore
SplineSet
396 -342 m 1,0,-1
 418 0 l 1,1,-1
 73 0 l 1,2,-1
 247 1658 l 1,3,-1
 578 1658 l 1,4,-1
 430 247 l 1,5,-1
 719 247 l 1,6,-1
 867 1658 l 1,7,-1
 1198 1658 l 1,8,-1
 1024 0 l 1,9,-1
 687 0 l 1,10,-1
 637 -342 l 1,11,-1
 396 -342 l 1,0,-1
EndSplineSet
EndChar

StartChar: afii10193
Encoding: 1119 1119 357
Width: 1019
GlyphClass: 2
Flags: W
LayerCount: 2
UndoRedoHistory
Layer: 1
Undoes
EndUndoes
Redoes
EndRedoes
EndUndoRedoHistory
Fore
SplineSet
329 -318 m 1,0,-1
 341 0 l 1,1,-1
 56 0 l 1,2,-1
 180 1184 l 1,3,-1
 484 1184 l 1,4,-1
 381 194 l 1,5,-1
 579 194 l 1,6,-1
 683 1184 l 1,7,-1
 987 1184 l 1,8,-1
 863 0 l 1,9,-1
 591 0 l 1,10,-1
 541 -318 l 1,11,-1
 329 -318 l 1,0,-1
EndSplineSet
EndChar

StartChar: afii61289
Encoding: 8467 8467 358
Width: 1182
GlyphClass: 2
Flags: W
LayerCount: 2
UndoRedoHistory
Layer: 1
Undoes
EndUndoes
Redoes
EndRedoes
EndUndoRedoHistory
Fore
SplineSet
910 148 m 1,0,1
 847 84 847 84 774 41 c 0,2,3
 700 -2 700 -2 634 -16 c 0,4,5
 598 -24 598 -24 565 -24 c 0,6,7
 536 -24 536 -24 509 -18 c 0,8,9
 450 -6 450 -6 414.5 39.5 c 0,10,11
 379 84 379 84 368 160 c 0,12,13
 365 180 365 180 365 204 c 0,14,15
 365 267 365 267 387 349 c 1,16,-1
 425 499 l 1,17,-1
 241 297 l 1,18,-1
 158 400 l 1,19,-1
 497 783 l 1,20,-1
 710 1623 l 2,21,22
 749 1778 749 1778 877 1864 c 0,23,24
 968 1925 968 1925 1062 1925 c 0,25,26
 1079 1925 1079 1925 1096 1923 c 0,27,28
 1205 1910 1205 1910 1249 1819 c 0,29,30
 1273 1770 1273 1770 1273 1708 c 0,31,32
 1273 1593 1273 1593 1191 1431 c 0,33,34
 1082 1214 1082 1214 837 946 c 2,35,-1
 678 772 l 1,36,-1
 565 345 l 1,37,38
 549 278 549 278 549 232 c 0,39,40
 549 188 549 188 564 164 c 0,41,42
 584 132 584 132 623 131 c 0,43,44
 644 131 644 131 670 141 c 0,45,46
 746 168 746 168 835 259 c 1,47,-1
 910 148 l 1,0,1
759 1076 m 1,48,49
 778 1099 778 1099 842 1180 c 0,50,51
 1083 1491 1083 1491 1083 1656 c 0,52,53
 1083 1728 1083 1728 1036 1741 c 0,54,55
 1027 1744 1027 1744 1018 1744 c 0,56,-1
 950 1708 l 1,57,58
 917 1675 917 1675 904 1624 c 2,59,-1
 759 1076 l 1,48,49
EndSplineSet
EndChar

StartChar: approxequal
Encoding: 8776 8776 362
Width: 973
GlyphClass: 2
Flags: W
LayerCount: 2
UndoRedoHistory
Layer: 1
Undoes
EndUndoes
Redoes
EndRedoes
EndUndoRedoHistory
Fore
SplineSet
652 439 m 0,0,1
 614 439 614 439 565.5 458 c 128,-1,2
 517 477 517 477 479 499.5 c 128,-1,3
 441 522 441 522 399 541 c 128,-1,4
 357 560 357 560 330 560 c 0,5,6
 304 560 304 560 259 534 c 128,-1,7
 214 508 214 508 176 468 c 1,8,-1
 91 600 l 1,9,10
 144 667 144 667 221 723.5 c 128,-1,11
 298 780 298 780 356 780 c 0,12,13
 404 780 404 780 466.5 750 c 128,-1,14
 529 720 529 720 585 690.5 c 128,-1,15
 641 661 641 661 674 661 c 0,16,17
 723 661 723 661 826 754 c 1,18,-1
 920 638 l 1,19,20
 873 564 873 564 794 501.5 c 128,-1,21
 715 439 715 439 652 439 c 0,0,1
697 865 m 0,22,23
 649 865 649 865 585.5 895 c 128,-1,24
 522 925 522 925 465 955 c 128,-1,25
 408 985 408 985 375 985 c 0,26,27
 349 985 349 985 304 959 c 128,-1,28
 259 933 259 933 221 893 c 1,29,-1
 136 1025 l 1,30,31
 189 1092 189 1092 266 1148.5 c 128,-1,32
 343 1205 343 1205 401 1205 c 0,33,34
 449 1205 449 1205 511.5 1175.5 c 128,-1,35
 574 1146 574 1146 630 1116.5 c 128,-1,36
 686 1087 686 1087 719 1087 c 0,37,38
 769 1087 769 1087 871 1180 c 1,39,-1
 965 1063 l 1,40,41
 917 989 917 989 838.5 927 c 128,-1,42
 760 865 760 865 697 865 c 0,22,23
EndSplineSet
EndChar

StartChar: breve
Encoding: 728 728 363
Width: 680
GlyphClass: 2
Flags: W
LayerCount: 2
UndoRedoHistory
Layer: 1
Undoes
EndUndoes
Redoes
EndRedoes
EndUndoRedoHistory
Fore
SplineSet
426 1383 m 0,0,1
 290 1383 290 1383 232 1456 c 0,2,3
 185 1516 185 1516 185 1613 c 0,4,5
 185 1635 185 1635 187 1658 c 1,6,-1
 331 1658 l 1,7,8
 329 1639 329 1639 329 1623 c 0,9,10
 329 1574 329 1574 347 1550 c 0,11,12
 371 1518 371 1518 440 1518 c 0,13,14
 508 1518 508 1518 539 1551 c 128,-1,15
 570 1584 570 1584 578 1658 c 1,16,-1
 722 1658 l 1,17,18
 709 1529 709 1529 636 1456 c 128,-1,19
 563 1383 563 1383 426 1383 c 0,0,1
EndSplineSet
EndChar

StartChar: bullet
Encoding: 8226 8226 364
Width: 917
GlyphClass: 2
Flags: W
LayerCount: 2
UndoRedoHistory
Layer: 1
Undoes
EndUndoes
Redoes
EndRedoes
EndUndoRedoHistory
Fore
SplineSet
452 434 m 128,-1,1
 313 434 313 434 228 524 c 0,2,3
 157 599 157 599 157 722 c 0,4,5
 157 746 157 746 160 773 c 0,6,7
 177 934 177 934 281 1025 c 128,-1,8
 385 1116 385 1116 524 1116 c 0,9,10
 615 1116 615 1116 684.5 1077 c 128,-1,11
 754 1038 754 1038 792 959 c 0,12,13
 821 898 821 898 820 820 c 0,14,15
 820 797 820 797 818 773 c 0,16,17
 801 615 801 615 696 524.5 c 128,-1,0
 591 434 591 434 452 434 c 128,-1,1
EndSplineSet
EndChar

StartChar: caron
Encoding: 711 711 366
Width: 789
GlyphClass: 2
Flags: W
LayerCount: 2
UndoRedoHistory
Layer: 1
Undoes
EndUndoes
Redoes
EndRedoes
EndUndoRedoHistory
Fore
SplineSet
330 1286 m 1,0,-1
 192 1658 l 1,1,-1
 410 1658 l 1,2,-1
 493 1431 l 1,3,-1
 626 1658 l 1,4,-1
 845 1658 l 1,5,-1
 625 1286 l 1,6,-1
 330 1286 l 1,0,-1
EndSplineSet
EndChar

